<svg width="1920" height="850" viewBox="0 0 1920 850" fill="none" xmlns="http://www.w3.org/2000/svg">
<mask id="mask0_5032_4488" style="mask-type:alpha" maskUnits="userSpaceOnUse" x="0" y="0" width="1920" height="850">
<rect width="1920" height="850" fill="#370648"/>
</mask>
<g mask="url(#mask0_5032_4488)">
<path d="M773.617 729.359C761.989 716.931 755.356 697.067 747.586 681.712C739.372 665.48 730.85 649.42 721.936 633.604C705.281 604.058 687.234 575.374 667.346 548.239C648.234 522.166 627.433 497.549 604.781 475.17C594.207 464.726 583.219 454.807 571.877 445.435C559.25 435.01 545.648 423.413 531.303 416.363C529.89 415.666 528.983 417.539 530.23 418.569C542.292 428.506 555.599 436.551 567.773 446.408C580.703 456.87 593.09 468.193 604.979 480.11C628.294 503.48 649.64 529.239 669.135 556.506C689.349 584.778 707.646 614.63 724.526 645.317C732.978 660.688 741.084 676.266 748.92 692.001C755.59 705.39 761.126 721.176 771.316 731.993C772.966 733.744 775.259 731.117 773.617 729.359Z" fill="#3A6651"/>
<path d="M605.462 434.403C604.869 449.229 615.275 458.434 622.113 470.3C628.958 482.188 625.357 496.237 633.933 506.312C626.037 499.15 617.141 495.46 606.968 493.755C595.165 491.781 585.573 479.985 573.371 482.311C572.039 482.567 571.507 484.554 572.96 485.368C583.213 491.111 590.87 502.39 601.895 506.364C606.903 508.17 611.218 507.444 616.251 507.163C623.288 506.767 628.726 508.718 634.846 511.407C635.637 512.01 636.418 512.629 637.237 513.184C637.763 513.546 638.177 513.366 638.48 513.026C638.534 513.053 638.582 513.074 638.635 513.101C639.21 513.358 639.571 512.671 639.194 512.174C639.44 511.785 639.574 511.301 639.449 510.785C636.267 497.545 641.459 484.277 637.033 471.285C631.703 455.641 616.501 447.19 608.086 433.884C607.391 432.785 605.518 432.942 605.462 434.403Z" fill="#3A6651"/>
<path d="M573.431 438.289C576.897 435.852 576.422 430.613 573.003 427.15C568.565 422.65 559.574 420.703 553.719 419.042C551.569 418.447 549.236 417.756 546.851 417.155C555.794 416.515 564.772 415.879 573.668 414.972C580.291 414.296 591.49 414.095 594.166 406.346C597.826 395.77 583.268 393.43 572.588 394.305C576.271 390.606 579.379 385.917 578.291 381.589C576.738 375.36 568.593 376.157 563.781 377.406C548.83 381.298 535.435 396.632 532.028 412.138C530.786 403.259 528.456 394.493 526.504 385.775C524.987 378.983 523.796 369.24 517.415 364.944C507.394 358.233 504.532 369.348 505.61 378.436C503.601 377.297 501.301 376.801 498.649 377.437C493.487 378.684 490.799 383.283 492.088 388.344C493.965 395.7 502.625 401.591 508.117 406.152C508.979 406.868 509.843 407.596 510.706 408.314C507.014 408.487 503.333 408.725 499.747 408.775C493.238 408.871 485.028 407.908 479.091 411.332C469.711 416.743 472.924 424.712 479.847 428.554C475.452 429.795 470.702 432.311 470.621 436.437C470.536 441.036 477.91 442.711 481.325 443.317C491.959 445.21 502.352 440.525 511.661 435.975C515.092 434.299 518.546 432.564 521.822 430.579C513.027 443.253 504.965 459.752 513.141 470.785C516.661 475.538 522.27 477.688 527.914 475.435C534.403 472.831 536.87 466.58 537.835 460.175C538.947 461.363 540.265 462.193 542.077 461.811C545.441 461.102 546.767 455.613 547.334 453.09C547.968 450.371 548.063 447.641 547.925 444.919C553.835 451.909 561.173 457.273 569.442 458.349C581.551 459.908 579.85 444.923 573.431 438.289Z" fill="#C24848"/>
<path d="M534.151 406.993C529.334 398.968 516.815 407.966 518.854 416.991C515.507 417.409 513.956 421.605 516.313 424.938C518.269 427.7 523.778 430.068 527.388 429.42C532.005 428.59 536.903 424.552 540.025 421.675C542.828 419.089 547.917 414.803 547.79 410.412C547.545 402.832 538.647 403.347 534.151 406.993Z" fill="#1F2844"/>
<path d="M757.242 722.88C744.94 690.714 729.258 660.709 710.7 631.713C694.305 606.088 676.742 581.849 651.566 564.159C627.641 547.355 599.964 536.397 571.996 528.378C534.979 517.764 496.871 509.497 459.384 500.709C457.58 500.285 456.926 502.813 458.623 503.447C488.63 514.69 521.273 519.32 552.25 527.255C581.48 534.743 610.58 544.125 636.692 559.54C664.745 576.109 684.698 599.442 702.343 626.467C720.853 654.8 737.261 683.968 749.72 715.496C763.953 751.635 769.841 774.303 784.7 810.183C785.705 812.681 789.708 811.79 788.862 809.047C778.379 774.998 769.972 756.159 757.242 722.88Z" fill="#3A6651"/>
<path d="M742.43 329.059C732.898 357.159 725.906 387.138 722.378 416.598C718.518 448.58 721.444 480.633 724.548 512.551C730.858 577.557 740.855 642.166 753.149 706.291C760.279 743.428 767.683 780.601 776.334 817.416C777.07 820.494 781.674 819.197 781.072 816.126C768.128 752.888 754.46 689.923 743.916 626.218C738.475 593.392 733.818 560.449 730.276 527.363C726.906 495.84 723.092 463.693 725.118 431.963C727.365 396.877 737.792 363.897 744.792 329.718C745.126 328.168 742.94 327.552 742.43 329.059Z" fill="#3A6651"/>
<path d="M848.625 745.495C839.85 730.331 830.372 722.691 819.265 709.15C808.04 695.516 796.935 681.797 785.302 668.512C764.659 644.882 742.033 623.342 716.732 604.741C692.086 586.63 665.407 571.288 637.333 559.108C611.323 547.808 581.727 536.074 553.25 533.707C551.871 533.588 551.703 535.646 552.93 536.033C567.238 540.576 582.116 543.243 596.465 547.773C610.654 552.253 624.598 557.517 638.206 563.548C665.243 575.548 690.982 590.501 714.737 608.12C740.179 626.951 762.81 648.903 783.525 672.758C794.72 685.64 805.475 698.893 816.32 712.08C827.341 725.505 833.295 735.831 846.317 747.265C847.541 748.326 849.49 746.998 848.625 745.495Z" fill="#3A6651"/>
<path d="M468.986 511.033C470.2 509.108 476.323 497.634 465.768 489.332C451.94 480.027 441.806 483.403 437.406 487.314C431.318 492.726 430.001 501.868 434.664 508.589C441.705 518.739 461.467 522.947 468.986 511.033Z" fill="#F5C16E"/>
<path d="M524.642 538.251C524.606 540.237 525.223 551.576 536.861 553.001C551.398 553.696 557.442 546.59 558.96 541.681C561.06 534.886 557.906 527.461 551.385 524.548C541.534 520.151 524.871 525.948 524.642 538.251Z" fill="#F5C16E"/>
<path d="M734.413 344.669C735.974 346.319 745.579 355.074 756.226 346.877C768.644 335.757 767.864 325.101 765.145 319.88C761.405 312.647 752.846 309.129 745.195 311.995C733.642 316.329 724.689 334.455 734.413 344.669Z" fill="#F5C16E"/>
<path d="M876.421 769.537C762.795 651.098 650.259 555.307 517.02 459.432C479.076 432.129 440.475 405.623 401.104 380.413C399.383 379.31 397.801 382.037 399.503 383.143C537.442 472.825 667.505 573.87 787.33 686.693C820.975 718.37 842.002 738.619 873.99 771.952C875.541 773.543 877.971 771.122 876.421 769.537Z" fill="#3A6651"/>
<path d="M389.868 372.253C388.331 373.229 379.961 379.42 384.745 389.049C391.543 400.525 400.032 401.564 404.555 400.251C410.815 398.43 414.908 392.271 413.849 385.812C412.243 376.052 399.401 366.222 389.868 372.253Z" fill="#F5C16E"/>
<path d="M622.68 351.634C617.111 351.811 613.423 355.478 611.903 360.816C611.005 363.94 611.194 367.341 611.842 370.488C613.116 376.655 615.582 379.458 613.476 385.472C611.331 391.65 612.107 399.003 614.481 406.095C616.822 407.411 617.917 407.147 619.722 409.238C615.27 400.994 612.577 394.572 616.297 386.651C617.96 383.106 618.652 383.035 618.051 379.387C617.545 376.092 615.371 373.043 614.884 369.66C613.584 361.224 617.407 357.753 623.099 352.688C623.506 352.332 623.182 351.624 622.68 351.634Z" fill="#3A6651"/>
<path d="M789.046 1098.19C779.598 1078.98 778.88 1052.66 775.144 1031.34C771.195 1008.81 766.811 986.365 761.868 964.076C752.629 922.435 741.401 881.324 727.39 841.402C713.926 803.043 697.896 765.817 678.82 730.608C669.915 714.175 660.321 698.223 650.1 682.8C638.717 665.639 626.591 646.712 611.907 632.985C610.461 631.63 608.685 633.552 609.809 635.247C620.69 651.614 633.761 666.159 644.806 682.469C656.539 699.786 667.304 717.938 677.253 736.624C696.764 773.269 713.031 812.067 726.52 852.003C740.506 893.413 751.609 936.021 760.702 979.117C765.253 1000.7 769.31 1022.41 772.988 1044.21C776.118 1062.76 777.008 1083.78 785.315 1100.52C786.661 1103.23 790.379 1100.9 789.046 1098.19Z" fill="#3A6651"/>
<path d="M694.544 681.803C688.41 699.427 697.565 714.307 701.456 731.085C705.346 747.892 695.877 763.48 702.513 778.737C695.63 767.234 686.274 759.541 674.658 753.771C661.177 747.079 653.948 729.38 638.416 727.718C636.719 727.538 635.352 729.734 636.802 731.245C647.04 741.904 652.13 758.276 663.943 767.087C669.309 771.092 674.766 771.795 680.926 773.297C689.538 775.394 695.367 779.729 701.748 785.202C702.479 786.217 703.194 787.247 703.975 788.215C704.477 788.843 705.041 788.777 705.53 788.479C705.584 788.531 705.634 788.574 705.689 788.626C706.286 789.145 706.971 788.451 706.7 787.714C707.139 787.336 707.477 786.803 707.515 786.137C708.526 769.042 719.625 754.975 719.048 737.725C718.354 716.951 703.152 701.226 697.891 682.139C697.456 680.561 695.146 680.066 694.544 681.803Z" fill="#3A6651"/>
<path d="M655.951 673.729C661.396 676.434 673.05 680.283 673.021 669.927C672.979 656.388 655.42 647.444 646.523 643.445C639.992 640.507 632.93 638.368 625.755 637.339C637.652 635.469 649.795 636.205 661.738 633.972C668.203 632.763 685.996 627.734 682.966 616.155C679.606 603.315 659.034 609.256 651.83 611.801C639.353 616.207 627.661 623.72 617.582 633.178C628.839 618.875 643.862 609.459 655.345 595.315C659.565 590.116 669.958 575.883 659.486 571.728C649.382 567.723 635.124 581.914 629.165 589.464C623.361 596.822 618.183 606.375 614.431 616.391C614.456 614.658 614.46 612.929 614.548 611.187C614.552 611.149 614.519 611.13 614.514 611.088C618.267 585.97 620.072 553.651 605.259 556.135C596.212 557.655 595.167 578.207 595.092 585.743C595.012 594.073 596.174 602.692 598.088 611.125C595.079 605.761 591.657 600.76 588.251 596.397C583.324 590.074 570.032 572.375 561.106 581.271C546.497 595.83 582.61 622.516 603.169 633.929C603.178 633.948 603.182 633.962 603.19 633.977C590.959 627.762 575.005 626.463 562.172 627.88C553.338 628.853 539.791 634.25 540.346 646.807C540.915 659.642 552.828 657.862 560.592 655.874C574.215 652.393 588.707 646.694 601.79 639.846C601.778 640.248 601.87 640.644 602.066 640.989C588.498 650.202 573.718 660.992 564.416 675.131C560.116 681.667 553.426 697.042 560.58 704.272C571.353 715.157 587.758 685.959 598.694 661.767C598.013 664.09 597.348 666.395 596.667 668.662C594.043 677.412 590.775 686.535 589.99 695.796C589.375 703.016 592.844 722.377 602.856 715.572C613.729 708.173 616.261 686.285 616.687 673.662C616.959 665.649 616.554 657.687 616.01 649.739C616.926 650.297 617.824 650.868 618.722 651.439C621.246 656.865 623.632 662.362 625.6 668.166C628.613 677.043 629.738 686.762 633.106 695.446C636.006 702.921 644.831 713.863 650.802 702.808C656.331 692.565 648.604 676.184 643.168 667.967C641.492 665.441 639.628 663.051 637.631 660.789C643.473 665.545 649.461 670.503 655.951 673.729Z" fill="#F5E4D5"/>
<path d="M615.388 615.493C609.199 613.841 603.692 617.93 601.243 620.296C596.53 624.853 594.674 632.003 595.94 638.807C597.248 645.829 602.087 652.304 608.526 653.456C614.577 654.532 621.205 651.335 625.254 646.287C633.845 635.572 628.827 619.073 615.388 615.493Z" fill="#F5C16E"/>
<path d="M613.789 625.222C610.868 625.222 611.306 630.34 614.219 630.34C617.136 630.34 616.697 625.222 613.789 625.222Z" fill="#F5E4D5"/>
<path d="M605.767 632.503C602.846 632.503 603.285 637.622 606.197 637.622C609.114 637.622 608.675 632.503 605.767 632.503Z" fill="#F5E4D5"/>
<path d="M613.214 641.726C610.293 641.726 610.732 646.84 613.641 646.84C616.561 646.84 616.123 641.726 613.214 641.726Z" fill="#F5E4D5"/>
<path d="M620.515 633.962C617.594 633.962 618.037 639.077 620.945 639.077C623.866 639.077 623.427 633.962 620.515 633.962Z" fill="#F5E4D5"/>
<path d="M576.316 676.666C573.901 677.823 572.242 680.774 570.725 683.098C569.212 685.416 567.227 688.046 566.768 690.941C566.509 692.58 568.134 693.595 569.304 692.773C571.46 691.253 572.952 688.339 574.519 686.125C576.065 683.924 578.13 681.742 578.773 678.984C579.124 677.469 577.545 676.08 576.316 676.666Z" fill="#F5AE9D"/>
<path d="M651.809 579.368C649.786 580.091 648.316 581.89 646.799 583.496C645.411 584.96 644.016 586.499 643.447 588.577C643.339 588.983 643.736 589.375 644.07 589.332C645.988 589.111 647.668 587.727 649.193 586.466C650.894 585.064 652.628 583.76 653.643 581.635C654.287 580.289 652.958 578.953 651.809 579.368Z" fill="#F5AE9D"/>
<path d="M505.632 177.288C520.136 199.386 531.377 224.786 543.508 248.571C555.78 272.633 568.007 296.722 579.903 321.022C603.123 368.442 624.95 416.763 644.65 466.084C684.44 565.691 714.537 669.623 727.505 777.362C735.51 843.855 736.27 841.042 734.894 907.79C734.835 910.798 730.759 910.9 730.712 907.846C729.126 803.302 724.562 747.803 695.648 635.991C668.573 531.302 627.204 431.675 581.453 335.343C568.604 308.294 555.59 281.34 542.144 254.648C529.418 229.389 514.565 204.543 504.043 178.081C503.604 176.977 505.066 176.429 505.632 177.288Z" fill="#3A6651"/>
<path d="M550.219 319.089C548.981 324.985 557.477 329.637 561.184 331.206C568.115 334.14 576.768 334.979 583.78 332.917C587.111 331.936 592.334 321.243 593.44 317.036C594.708 312.197 596.262 303.824 592.543 299.67C589.2 295.934 585.296 298.529 583.681 302.514C580.556 310.212 581.914 319.661 581.382 328.006C581.277 327.716 581.187 327.42 580.942 327.204C577.614 324.355 574.067 321.959 570.335 320.067C569.647 319.718 568.943 319.394 568.199 319.11C565.62 317.969 562.972 316.999 560.194 316.418C556.951 315.747 551.229 314.262 550.219 319.089Z" fill="#6965D0"/>
<path d="M540.827 295.393C543.42 297.168 558.776 304.215 566.867 304.79C567.858 304.861 568.58 304.443 568.964 303.654C568.967 303.649 568.971 303.649 568.971 303.649C572.808 298.616 584.52 270.767 573.806 266.607C566.674 263.841 565.416 282.562 565.202 294.335C559.175 288.559 536.638 268.451 532.063 281.907C529.98 288.022 537.032 292.796 540.827 295.393Z" fill="#6965D0"/>
<path d="M531.166 261.671C536.849 266.649 551.215 272.904 552.913 271.909C560.184 267.638 559.867 254.207 560.611 245.052C560.942 240.976 560.832 233.959 556.349 232.376C547.786 229.347 547.198 247.62 547.855 259.879C540.945 251.164 529.07 238.8 524.221 248.2C521.498 253.474 528.087 258.969 531.166 261.671Z" fill="#6965D0"/>
<path d="M531.064 226.929C530.937 220.307 531.74 213.766 533.673 207.461C534.473 204.846 535.728 198.65 539.291 199.975C543.442 201.516 542.572 211.867 542.285 215.117C541.645 222.446 539.284 231.581 534.091 235.931C531.238 238.328 519.775 235.08 513.662 230.662C509.681 227.789 502.245 222.636 503.534 216.323C505.979 204.4 522.375 218.667 531.064 226.929Z" fill="#6965D0"/>
<path d="M489.653 188.437C491.592 183.867 497.78 185.971 500.911 187.115C502.562 187.718 504.12 188.49 505.632 189.343C502.265 183.881 499.056 178.234 496.939 172.393C495.556 168.587 493.397 158.248 498.244 156.148C502.533 154.294 506.91 161.854 508.4 165.034C512.029 172.762 514.511 182.094 514.871 190.927C515.554 183.548 514.852 174.592 520.272 169.854C521.625 168.673 523.913 169.094 524.571 170.218C529.115 177.99 528.56 191.779 524.237 200.414C524.096 201.784 520.635 208.099 519.248 207.876C511.131 206.596 505.331 204.917 498.096 200.358C494.836 198.3 487.268 194.046 489.653 188.437Z" fill="#6965D0"/>
<path d="M1273.34 437.199C1239.83 480.743 1208.47 525.736 1173.73 568.399C1139.03 611.021 1102.24 651.801 1065.69 692.825C1064.83 693.784 1066.3 695.035 1067.16 694.143C1106.46 654.846 1142.67 612.503 1177.7 569.405C1211.85 527.409 1246.57 484.478 1275.57 438.694C1276.37 437.416 1274.25 435.996 1273.34 437.199Z" fill="#3A6651"/>
<path d="M1375.15 488.793C1332.55 514.196 1289.24 540.162 1249.23 569.534C1214.95 594.693 1183.62 623.789 1155.54 655.665C1097 722.047 1052.92 800.019 1021.48 882.534C1002.71 931.7 988.403 982.421 977.391 1033.85C976.753 1036.79 981.321 1037.75 981.959 1034.81C1019.24 861.508 1098.88 690.515 1242.29 580.277C1284.96 547.495 1332.37 521.519 1377.24 491.976C1379.29 490.624 1377.27 487.547 1375.15 488.793Z" fill="#3A6651"/>
<path d="M827.026 319.821C833.276 317.721 840.011 324.272 838.665 330.557C838.052 333.404 835.524 335.479 832.723 336.123C830.404 336.661 827.808 336.474 825.78 335.008C820.79 331.403 820.567 321.988 827.026 319.821Z" fill="#1F2844"/>
<path d="M1141.83 442.566C1126.6 470.486 1113.71 500.857 1104.58 531.317C1094.63 564.379 1091.83 598.761 1089.25 633.034C1083.97 702.834 1082.66 772.892 1083.86 842.861C1084.57 883.384 1085.56 923.995 1087.94 964.457C1088.15 967.843 1093.25 967.319 1093.18 963.965C1091.12 894.814 1088.25 825.818 1088.82 756.614C1089.1 720.953 1090.24 685.313 1092.57 649.726C1094.8 615.822 1096.68 581.177 1104.65 548.044C1113.47 511.409 1130.53 478.5 1144.2 443.695C1144.84 442.12 1142.64 441.068 1141.83 442.566Z" fill="#3A6651"/>
<path d="M1242.95 227.812C1214.46 262.312 1189.22 301.891 1168.09 341.277C1146.93 380.716 1131.63 422.862 1126.02 467.399C1119.98 515.195 1123.44 563.557 1128.78 611.237C1134.53 662.67 1142.47 713.846 1152.46 764.623C1164.16 824.281 1174.9 868.781 1192.31 927.028C1193.23 930.017 1197.85 928.477 1196.93 925.477C1166.88 825.018 1149.04 736.701 1136.14 632.629C1130.32 585.707 1125.45 538.206 1128.52 490.894C1131.62 443.24 1144.7 398 1166.02 355.353C1176.86 333.675 1189.31 312.848 1202.53 292.556C1216.4 271.275 1232.06 251.104 1245.38 229.493C1246.28 228.047 1244.03 226.513 1242.95 227.812Z" fill="#3A6651"/>
<path d="M1309.03 304.004C1273.44 331.128 1239.88 363.939 1210.34 397.493C1180.78 431.093 1156.31 468.663 1140.73 510.761C1123.98 555.933 1116.37 603.818 1110.74 651.465C1104.65 702.858 1100.75 754.5 1098.95 806.219C1096.79 866.975 1097.14 912.752 1100.86 973.43C1101.07 976.55 1105.92 976.1 1105.71 972.97C1099.26 868.31 1101.95 778.249 1113.04 673.968C1118.03 626.951 1124.09 579.587 1137.82 534.209C1151.67 488.506 1174.69 447.42 1205.14 410.733C1220.61 392.082 1237.47 374.629 1254.96 357.873C1273.3 340.299 1293.13 324.213 1311.01 306.193C1312.22 304.989 1310.38 302.985 1309.03 304.004Z" fill="#3A6651"/>
<path d="M1277.41 377.184C1275.69 371.885 1271.14 369.367 1265.59 369.398C1262.34 369.407 1259.12 370.538 1256.28 372.039C1250.72 374.983 1248.71 378.134 1242.35 377.79C1235.82 377.455 1228.98 380.253 1222.83 384.512C1222.22 387.128 1222.78 388.105 1221.27 390.422C1227.95 383.846 1233.36 379.467 1242.01 380.828C1245.87 381.436 1246.14 382.081 1249.47 380.485C1252.49 379.08 1254.82 376.141 1257.93 374.729C1265.67 371.126 1270.07 373.828 1276.52 377.88C1276.97 378.172 1277.56 377.663 1277.41 377.184Z" fill="#3A6651"/>
<path d="M1191.14 380.372C1197.24 382.618 1200.32 387.542 1200.55 393.276C1200.7 396.636 1199.57 399.859 1198 402.664C1194.93 408.161 1191.45 409.958 1192.14 416.565C1192.84 423.345 1189.99 430.176 1185.46 436.16C1182.51 436.562 1181.38 435.899 1178.82 437.25C1185.96 430.927 1190.67 425.711 1188.71 416.656C1187.84 412.603 1187.09 412.278 1188.74 408.969C1190.19 405.967 1193.42 403.824 1194.87 400.73C1198.59 393.046 1195.31 388.261 1190.4 381.237C1190.04 380.741 1190.59 380.176 1191.14 380.372Z" fill="#3A6651"/>
<path d="M1297.33 316.636C1298.32 318.159 1304.69 326.423 1314.13 321.392C1325.39 314.288 1326.23 305.732 1324.81 301.217C1322.86 294.967 1316.65 290.997 1310.24 292.217C1300.59 294.06 1291.09 307.197 1297.33 316.636Z" fill="#F5C16E"/>
<path d="M1130.5 457.574C1131.84 459.603 1140.38 470.612 1153.12 463.913C1168.28 454.451 1169.41 443.057 1167.5 437.044C1164.88 428.719 1156.49 423.432 1147.88 425.054C1134.89 427.508 1122.1 445.004 1130.5 457.574Z" fill="#F5C16E"/>
<path d="M1215.79 273.452C1219.3 270.103 1221.85 265.648 1224.47 261.527C1224.4 264.437 1224.47 267.266 1224.61 269.897C1225.1 277.709 1225.56 293.93 1233.5 298.689C1240.83 303.108 1246.03 295.647 1246.88 289.011C1247.84 281.816 1246.92 273.952 1245.25 266.147C1247.31 270.149 1249.47 274.058 1251.63 277.84C1255.13 284.001 1262.64 297.867 1272.27 291.862C1281.26 286.264 1272.94 271.965 1269.47 265.935C1264.37 257.118 1258.21 248.988 1251.24 241.591C1268.91 252.242 1292.17 263.414 1294.19 251.605C1295.82 242.115 1281.97 236.177 1275.67 233.652C1268.59 230.809 1261.33 228.305 1253.86 226.733C1264.94 226.453 1277.69 226 1285.62 225.111C1292.13 224.385 1301.48 221.319 1295.92 213.557C1290.26 205.675 1271.03 210.852 1262.89 212.449C1266.68 209.064 1272.23 202.18 1277.55 196.249C1281.76 191.522 1280.87 184.489 1273.97 182.372C1265.22 179.681 1254.92 187.513 1249.54 193.491C1247.94 195.286 1246.03 197.736 1243.98 200.781C1245.85 194.981 1247.84 189.135 1248.62 183.094C1249.29 177.485 1248.26 171.405 1241.53 175.155C1229.14 182.092 1225.95 204.52 1230.59 220.104C1222.48 203.887 1208.82 178.873 1201.84 192.531C1197.52 200.98 1205.63 212.367 1210.66 218.507C1212.43 220.646 1214.45 222.781 1216.68 224.81C1199.54 220.49 1178.97 218.072 1181.55 229.87C1183.46 238.535 1196.71 241.789 1203.79 242.82C1208.82 243.553 1214.45 243.942 1220.04 243.765C1212.85 247.77 1205.95 252.635 1200.14 257.809C1195.18 262.203 1191.36 270.219 1197.02 275.719C1202.58 281.073 1210.98 278.038 1215.79 273.452Z" fill="#803A77"/>
<path d="M1238.06 250.619C1239.91 252.815 1243.02 254.344 1245.68 253.236C1248.62 252.007 1249.01 248.959 1248.44 246.105C1250.25 246.108 1252.02 245.255 1253.22 243.41C1255.31 240.156 1254.03 236.781 1251.95 234.048C1254.21 233.031 1255.84 231.279 1254.78 228.326C1254.25 226.824 1253.15 225.687 1251.8 224.831C1252.8 222.132 1252.09 218.698 1249.54 216.778C1242.77 211.704 1236.72 220.341 1235.27 226.197C1233.67 232.578 1227.9 241.962 1232.51 248.456C1233.57 249.95 1236.15 250.881 1238.06 250.619Z" fill="#F5C16E"/>
<path d="M1432.23 525.99C1433.01 520.452 1425.78 514.393 1420.22 510.311C1429.04 511.044 1452.27 512.535 1452.09 500.421C1451.92 489.267 1426.92 488.215 1419.83 487.9C1414.77 487.68 1409.74 487.882 1404.78 488.378C1408.22 486.678 1411.62 484.95 1414.88 483.332C1421.68 479.929 1444.62 467.908 1438.6 456.945C1433.36 447.476 1415.73 453.882 1409.07 457.384C1399.23 462.568 1390.48 469.774 1382.23 477.543C1396 459.555 1410.03 437.02 1395.47 434.201C1383.65 431.907 1374.08 449.587 1369.91 457.72C1363.25 470.613 1357.09 489.837 1364.03 502.783C1368.28 510.668 1409.81 530.632 1419.44 531.85C1423.84 532.406 1431.41 531.734 1432.23 525.99Z" fill="#803A77"/>
<path d="M1371.29 495.598C1370.22 491.625 1365.05 480.984 1359.85 485.878C1357.44 488.148 1355.88 491.533 1355.21 494.734C1354.86 496.278 1354.54 498.438 1354.86 500.282C1353.94 501.214 1353.72 502.574 1354.61 503.873C1356.17 506.221 1360.81 506.341 1363.21 506.568C1365.87 506.816 1369.41 507.212 1371.11 504.641C1372.74 502.163 1371.96 498.25 1371.29 495.598Z" fill="#3A6651"/>
<path d="M1314.52 431.007C1315.04 422.604 1302.25 421.207 1292.16 421.246C1298.87 418.535 1307.17 413.496 1301.92 407.809C1296.06 401.471 1283.79 410.552 1275.14 414.925C1279.67 408.909 1287.85 396.739 1280.58 395.327C1271.6 393.591 1265.55 415.075 1265.13 421.349C1265.05 422.517 1266.28 422.941 1267.06 422.318C1267.75 423.159 1268.87 423.614 1270.03 423.382C1274.9 422.418 1278.93 420.082 1283.22 417.48C1281.54 419.172 1280.06 421.212 1278.98 424.015C1278.3 425.798 1279.83 427.941 1281.5 427.735C1286.43 427.122 1291.91 426.737 1297.03 427.373C1292.38 428.431 1288 430.961 1287.29 434.827C1287.06 436.14 1287.32 437.486 1288.42 438.136C1293.55 441.188 1313.9 440.862 1314.52 431.007Z" fill="#3A6651"/>
<path d="M1319.85 468.378C1324.5 467.824 1332.68 464.951 1328.72 458.491C1326.93 455.564 1323.05 453.785 1318.55 452.713C1323.93 451.024 1327.81 448.033 1326.13 442.831C1323.18 433.694 1306.38 433.492 1292.41 434.767C1299.87 431.79 1307 427.535 1313.2 422.478C1314.1 421.75 1314.39 420.19 1313.49 419.438C1304.87 412.143 1294.5 413.639 1284.29 417.722C1294.6 409.445 1303.64 400.184 1296.71 397.352C1290.54 394.827 1280.63 403.069 1275.94 406.806C1272.99 409.157 1269.34 412.05 1266.17 415.354C1266.74 412.498 1267.18 409.603 1267.42 406.626C1267.87 401.247 1270.07 388.742 1264.86 385.644C1257.13 381.049 1255.54 394.947 1255.65 406.017C1253.98 401.859 1252.03 397.999 1247.85 395.816C1245.2 394.425 1240.49 392.668 1238.35 396.343C1235.49 401.26 1239.65 409.163 1241.99 412.83C1244.73 417.122 1248.14 420.745 1251.9 423.896C1248.14 423.37 1244.14 423.646 1240.59 424.374C1237.77 424.951 1232.23 427.135 1234.61 431.305C1235.8 433.385 1239.33 433.605 1241.3 434.078C1245.98 435.215 1250.72 436.141 1255.51 436.855C1256.75 437.045 1258.62 437.539 1260.59 437.92C1256.9 441.378 1253.76 445.825 1255.13 449.727C1257.13 455.416 1264.8 449.875 1269.81 445.476C1270.3 458.062 1275.39 478.277 1287.54 477.496C1295.2 477.01 1292.38 466.102 1288.36 457.556C1297.65 463.586 1308.72 469.705 1319.85 468.378Z" fill="#6965D0"/>
<path d="M981.579 893.104C1007.35 853.225 1035.08 814.646 1062.64 776.003C1085.61 743.823 1108.89 711.818 1133.87 681.172C1133.92 681.057 1133.96 680.942 1134.04 680.836C1135.03 679.548 1136.09 678.332 1137.2 677.155C1139.49 674.386 1141.76 671.602 1144.07 668.853C1157.43 652.973 1171.34 637.135 1186.04 622.056C1185.65 622.193 1185.16 622.048 1185.18 621.506C1185.15 603.625 1191.13 584.785 1196.99 568.044C1202.66 551.868 1209.4 534.879 1219.48 520.907C1220.36 519.718 1222.02 521.081 1221.5 522.303C1214.3 538.932 1205.72 554.658 1199.83 571.891C1194.26 588.179 1191.63 605.142 1186.57 621.502C1206.3 601.301 1227.44 582.478 1250.53 566.773C1251.47 566.128 1252.3 567.52 1251.48 568.22C1216.86 597.261 1184.26 627.554 1154.65 661.806C1153.46 663.184 1152.29 664.588 1151.12 665.98C1163.43 658.339 1178.01 653.354 1190.64 648.225C1202.99 643.208 1214.86 637.343 1226.7 631.234C1237.67 625.583 1249.16 618.887 1261.19 615.872C1262.62 615.514 1263.9 617.581 1262.4 618.374C1250.99 624.352 1239.07 629.394 1227.6 635.346C1217.51 640.591 1207.4 645.765 1196.91 650.193C1186.63 654.541 1176.15 658.44 1166.06 663.238C1155.97 668.05 1147.4 674.043 1138.73 680.804C1116.17 708.285 1094.99 736.895 1074.25 765.774C1017.99 844.078 962.911 922.906 918.874 1008.94C894.214 1057.17 872.87 1106.88 854.047 1157.67C853.193 1159.98 849.826 1158.21 850.668 1155.93C884.043 1063.79 928.423 975.367 981.579 893.104Z" fill="#3A6651"/>
<path d="M1104.33 619.09C1104.5 617.981 1106.23 617.54 1106.79 618.609C1110.54 625.807 1112.67 633.404 1112.52 641.596C1112.48 645.715 1111.66 649.636 1110.78 653.639C1109.01 661.563 1110.97 666.605 1114.77 673.485C1121.48 685.606 1120.48 702.076 1110.76 712.332C1111.26 714.037 1108.75 715.498 1107.64 713.772C1098.8 700.101 1087.1 687.063 1088.57 669.765C1090.09 651.902 1101.15 636.597 1104.33 619.09Z" fill="#3A6651"/>
<path d="M1127.48 731.679C1132.44 735.396 1135.87 740.509 1142.97 740.728C1146.86 740.854 1150.9 739.57 1154.74 739.293C1163.47 738.677 1171.95 740.132 1180.14 743.007C1181.18 743.371 1182.15 744.848 1181.06 745.807C1167.55 757.637 1152.58 774.411 1132.94 765.975C1128.59 764.109 1125.22 761.158 1122.03 757.691C1117.38 752.655 1113.31 748.562 1107.42 744.871C1102.43 741.737 1097.26 737.506 1098.56 731.686C1098.44 731.748 1098.32 731.784 1098.19 731.849C1097.59 732.178 1097.04 731.518 1097.43 730.946C1104.63 720.798 1119.37 725.631 1127.48 731.679Z" fill="#3A6651"/>
<path d="M1151.19 601.465C1150.31 612.616 1147.87 623.578 1147.27 634.785C1146.75 645.12 1147.78 655.307 1147.88 665.611C1147.86 667.176 1145.72 667.265 1145.47 665.765C1143.6 654.723 1144.14 643.058 1144.66 631.896C1145.12 621.631 1145.8 610.828 1148.9 600.99C1149.38 599.535 1151.31 599.967 1151.19 601.465Z" fill="#3A6651"/>
<path d="M1206.83 708.648L1207.98 707.388C1212.77 702.084 1221.51 702.727 1225.41 708.692C1226.97 711.072 1227.57 714.253 1226.97 717.035C1226.14 721.067 1223.32 723.789 1219.66 725.318C1219.13 725.529 1218.61 725.736 1218.12 725.958C1215.98 726.901 1213.26 726.553 1211.18 725.819C1209.07 725.078 1207 723.711 1205.8 721.7C1203.39 717.619 1203.52 712.274 1206.83 708.648Z" fill="#ED8664"/>
<path d="M1199.7 502.862C1202.14 497.944 1206.85 493.864 1212.04 492.174C1219.13 489.865 1227.32 491.372 1232.83 496.437C1234.3 497.783 1235.52 499.32 1236.49 500.962C1238.65 504.064 1239.99 507.769 1240.14 511.743C1240.5 521.216 1234.28 530.352 1225.22 533.228C1219.98 534.881 1214.05 534.458 1209.17 531.971C1204.85 529.769 1201.73 526.202 1199.67 521.929C1196.77 515.908 1196.69 508.954 1199.7 502.862Z" fill="#ED8664"/>
<path d="M1210.31 499.404C1210.64 498.744 1211.73 498.473 1212.15 499.212C1212.95 500.601 1213.2 501.842 1212.32 503.209C1211.84 503.896 1210.79 503.72 1210.37 503.148C1209.48 501.977 1209.69 500.688 1210.31 499.404Z" fill="#D17259"/>
<path d="M1224.28 499.933C1224.67 499.476 1225.37 499.491 1225.72 499.973C1226.72 501.314 1226.98 503.546 1225.85 504.849C1225.28 505.507 1224.27 505.49 1223.77 504.791C1222.76 503.403 1223.17 501.187 1224.28 499.933Z" fill="#D17259"/>
<path d="M1211.11 515.189C1210.91 513.81 1211.08 512.098 1212.13 511.079C1212.59 510.622 1213.37 510.52 1213.78 511.13C1214.59 512.331 1214.62 513.875 1214.56 515.278C1214.49 517.349 1211.38 517.053 1211.11 515.189Z" fill="#D17259"/>
<path d="M1216.64 508.705C1216.42 507.315 1216.62 505.614 1217.64 504.584C1218.09 504.129 1218.88 504.027 1219.28 504.632C1220.09 505.835 1220.12 507.379 1220.07 508.78C1220.02 510.865 1216.92 510.569 1216.64 508.705Z" fill="#D17259"/>
<path d="M1201.58 507.672C1201.9 507.203 1202.65 507.295 1202.95 507.72C1203.85 508.956 1204.68 511.044 1204.12 512.546C1203.91 513.153 1203.19 513.335 1202.63 513.131C1200.58 512.387 1200.44 509.249 1201.58 507.672Z" fill="#D17259"/>
<path d="M1224.38 512.693C1224.65 512.286 1225.24 512.337 1225.59 512.572C1226.89 513.473 1227.44 515.763 1226.38 517.043C1226.16 517.347 1225.66 517.504 1225.29 517.311C1223.73 516.466 1223.43 514.149 1224.38 512.693Z" fill="#D17259"/>
<path d="M1220.12 520.928C1220.23 520.475 1220.86 520.258 1221.16 520.698C1222.18 522.222 1223.29 525.048 1221.62 526.442C1221.3 526.713 1220.74 526.683 1220.41 526.402C1219.03 525.173 1219.74 522.562 1220.12 520.928Z" fill="#D17259"/>
<path d="M1206.95 519.32C1206.7 518.141 1208.29 517.833 1208.91 518.564C1209.72 519.523 1210.47 520.262 1210.12 521.566C1209.96 522.229 1209.35 522.657 1208.68 522.374C1207.31 521.805 1207.2 520.634 1206.95 519.32Z" fill="#D17259"/>
<path d="M1144.85 590.06C1144.9 590.021 1144.94 589.986 1144.99 589.951C1147.78 587.712 1152.9 588.234 1155.37 590.729C1155.42 590.776 1155.44 590.811 1155.49 590.855C1157.3 592.691 1158.14 594.747 1158.22 596.942C1158.11 596.442 1158.01 595.942 1157.9 595.443C1158.08 596.016 1158.18 596.621 1158.21 597.212C1158.21 597.218 1158.24 597.239 1158.24 597.242C1158.24 597.239 1158.24 597.236 1158.24 597.23C1158.44 599.535 1157.73 601.906 1156.18 603.667C1154.06 606.012 1151.33 606.562 1148.33 606.251C1146.8 606.091 1144.85 605.038 1143.76 603.93C1141.78 601.912 1140.76 599.624 1140.97 596.794C1141.2 593.854 1142.6 591.867 1144.85 590.06Z" fill="#ED8664"/>
<path d="M1245.34 539.464C1248.32 536.16 1250.31 535.001 1253.85 533.263C1257.34 531.56 1259.72 530.453 1264.06 530.38C1271.44 530.247 1278.08 532.565 1283.74 537.35C1285.57 538.898 1287.11 540.908 1288.4 542.939C1290.49 546.212 1292.87 552.073 1292.57 556.054C1292.83 560.76 1291.91 565.213 1289.79 569.424C1288.52 571.248 1287.28 573.082 1286.01 574.904C1283.82 577.323 1281.3 579.231 1278.45 580.658C1274.7 583.103 1270.33 584.608 1265.86 584.934C1261.11 585.267 1256.68 584.131 1252.41 582.233C1248.44 580.46 1246.86 578.618 1244.37 575.684C1242.06 573.391 1240.44 570.649 1239.48 567.44C1238.68 565.26 1238.2 562.976 1238.09 560.611C1237.92 558.067 1238 555.402 1238.6 552.944C1239.81 547.965 1241.87 543.314 1245.34 539.464Z" fill="#ED8664"/>
<path d="M1262.51 540.143C1263.6 539.607 1264.69 539.347 1265.89 539.405C1266.39 539.433 1266.61 539.903 1266.31 540.298C1265.42 541.601 1264.12 543.585 1262.34 543.12C1261.88 543.001 1261.4 542.585 1261.4 542.058C1261.41 541.958 1261.42 541.855 1261.42 541.755C1261.47 540.955 1261.83 540.492 1262.51 540.143Z" fill="#D17259"/>
<path d="M1275.4 550.777C1276.08 550.539 1276.68 550.382 1277.38 550.421C1278.27 550.479 1279.29 551.412 1278.64 552.361C1278.08 553.248 1277.47 553.674 1276.5 554.08C1275.8 554.37 1274.89 554.014 1274.5 553.389C1274.33 553.122 1274.23 552.863 1274.22 552.546C1274.16 551.766 1274.69 551.038 1275.4 550.777Z" fill="#D17259"/>
<path d="M1271.04 541.637C1272.07 541.01 1273.2 540.379 1274.46 540.725C1274.86 540.833 1275.11 541.206 1275.04 541.641C1274.85 542.901 1273.82 543.696 1272.83 544.39C1271.08 545.61 1269.21 542.731 1271.04 541.637Z" fill="#D17259"/>
<path d="M1283.71 561.769C1284.05 561.85 1284.35 562.223 1284.26 562.615C1283.77 564.514 1280.89 566.041 1279.3 564.663C1278.92 564.341 1278.84 563.767 1279.05 563.334C1279.78 561.932 1282.26 561.418 1283.71 561.769Z" fill="#D17259"/>
<path d="M1264.09 547.32C1264.78 547.301 1265.48 548.09 1265.06 548.794C1264.25 550.076 1263.3 550.835 1261.77 550.681C1260.98 550.602 1260.69 549.638 1260.97 549.007C1261.58 547.752 1262.76 547.348 1264.09 547.32Z" fill="#D17259"/>
<path d="M1269.74 559.375C1270.26 559.5 1270.57 560.096 1270.32 560.624C1269.62 562.044 1267.85 563.249 1266.27 562.884C1265.49 562.704 1265.06 561.835 1265.42 561.086C1266.15 559.607 1268.19 559.001 1269.74 559.375Z" fill="#D17259"/>
<path d="M1272.76 573.82C1273.21 573.886 1273.41 574.415 1273.22 574.792C1272.43 576.439 1270.71 577.703 1268.89 577.062C1268.53 576.936 1268.33 576.422 1268.43 576.087C1268.9 574.226 1271.03 573.566 1272.76 573.82Z" fill="#D17259"/>
<path d="M1251.17 554.963C1252.26 554.18 1253.76 553.578 1255.08 554.01C1255.65 554.196 1256.08 554.809 1255.77 555.431C1255.09 556.625 1253.81 557.355 1252.6 557.927C1250.84 558.78 1249.73 556.024 1251.17 554.963Z" fill="#D17259"/>
<path d="M1253.34 543.566C1253.88 543.644 1254.13 544.293 1253.92 544.75C1253.26 546.067 1251.86 547.695 1250.36 547.879C1249.76 547.952 1249.29 547.427 1249.23 546.88C1248.97 544.816 1251.54 543.313 1253.34 543.566Z" fill="#D17259"/>
<path d="M1260.82 560.724C1261.27 560.77 1261.48 561.281 1261.42 561.672C1261.22 563.191 1259.55 564.664 1258.02 564.34C1257.67 564.267 1257.3 563.912 1257.32 563.533C1257.36 561.818 1259.15 560.556 1260.82 560.724Z" fill="#D17259"/>
<path d="M1261.42 572.321C1262.42 572.097 1263.07 573.104 1262.47 573.935C1261.65 575.044 1260.72 575.856 1259.32 576.037C1258.5 576.151 1257.8 575.097 1258.23 574.358C1258.97 573.17 1260.07 572.631 1261.42 572.321Z" fill="#D17259"/>
<path d="M1250.27 565.135C1250.72 565.03 1251.16 565.449 1250.92 565.888C1250.1 567.441 1248.2 569.642 1246.31 568.845C1245.94 568.684 1245.72 568.191 1245.81 567.805C1246.23 566.068 1248.75 565.531 1250.27 565.135Z" fill="#D17259"/>
<path d="M1245.91 553.25C1246.78 552.521 1247.72 553.732 1247.38 554.584C1246.94 555.709 1246.66 556.666 1245.39 556.946C1244.79 557.098 1244.14 556.759 1244.08 556.062C1243.98 554.686 1244.91 554.062 1245.91 553.25Z" fill="#D17259"/>
<path d="M1275.91 566.449C1276.59 566.168 1277.4 567.048 1276.97 567.705C1276.32 568.722 1275.69 569.545 1274.53 569.892C1273.69 570.125 1272.91 569.286 1273.33 568.49C1273.87 567.377 1274.77 566.909 1275.91 566.449Z" fill="#D17259"/>
<path d="M1282.35 551.216C1282.84 550.685 1286.57 548.131 1286.94 549.927C1287.36 551.941 1284.56 553.165 1282.96 553.02C1282.11 552.937 1281.86 551.779 1282.35 551.216Z" fill="#D17259"/>
<path d="M1259.65 603.386C1264.89 599.79 1271.31 598.928 1277.45 599.864C1277.74 599.905 1278.02 599.954 1278.34 600.02C1279.75 600.313 1282.71 601.377 1284.02 602.011C1285.98 602.964 1288.08 604.425 1289.67 605.961C1293.66 609.84 1296.25 615.012 1296.72 620.632C1297.12 625.081 1295.88 628.692 1294.33 632.768C1293.1 635.331 1291.38 637.434 1289.13 639.065C1287.2 641.024 1284.91 642.417 1282.22 643.217C1279.61 643.981 1276.61 644.438 1273.7 644.317C1271.72 644.436 1269.76 644.33 1267.88 643.939C1264.72 643.284 1262.32 642.071 1259.76 640.303C1257.24 638.552 1255.21 636.755 1253.46 634.081C1251.5 631.078 1249.98 626.967 1249.85 623.37C1249.59 615.429 1253.02 607.94 1259.65 603.386Z" fill="#ED8664"/>
<path d="M1281.29 611.419C1282.01 611.402 1282.76 612.241 1282.27 612.957C1281.43 614.31 1280.46 615.122 1278.83 614.954C1278.01 614.874 1277.68 613.845 1278 613.197C1278.63 611.872 1279.86 611.438 1281.29 611.419Z" fill="#D17259"/>
<path d="M1287.2 624.093C1287.79 624.232 1288.08 624.855 1287.83 625.409C1287.09 626.906 1285.23 628.176 1283.58 627.796C1282.74 627.602 1282.29 626.686 1282.68 625.896C1283.43 624.343 1285.59 623.707 1287.2 624.093Z" fill="#D17259"/>
<path d="M1267.7 619.463C1268.81 618.63 1270.42 618.007 1271.8 618.456C1272.4 618.651 1272.86 619.294 1272.5 619.942C1271.82 621.215 1270.46 621.978 1269.2 622.582C1267.32 623.471 1266.17 620.577 1267.7 619.463Z" fill="#D17259"/>
<path d="M1275.94 621.355C1277.08 620.53 1278.69 619.905 1280.07 620.356C1280.67 620.551 1281.12 621.197 1280.77 621.842C1280.06 623.104 1278.73 623.879 1277.44 624.474C1275.59 625.371 1274.44 622.474 1275.94 621.355Z" fill="#D17259"/>
<path d="M1269.97 607.469C1270.55 607.552 1270.79 608.228 1270.56 608.708C1269.87 610.096 1268.41 611.813 1266.84 612.009C1266.2 612.082 1265.71 611.53 1265.63 610.951C1265.35 608.772 1268.08 607.201 1269.97 607.469Z" fill="#D17259"/>
<path d="M1275.97 630.127C1276.46 630.178 1276.68 630.719 1276.62 631.131C1276.42 632.732 1274.65 634.279 1273.06 633.942C1272.68 633.858 1272.32 633.498 1272.31 633.086C1272.35 631.285 1274.24 629.953 1275.97 630.127Z" fill="#D17259"/>
<path d="M1266.76 630.167C1267.21 630.051 1267.68 630.494 1267.43 630.957C1266.54 632.58 1264.56 634.904 1262.56 634.058C1262.18 633.897 1261.95 633.371 1262.04 632.968C1262.5 631.146 1265.14 630.573 1266.76 630.167Z" fill="#D17259"/>
<path d="M1262.14 617.654C1263.06 616.886 1264.07 618.168 1263.72 619.067C1263.22 620.239 1262.92 621.246 1261.61 621.544C1260.94 621.694 1260.29 621.351 1260.24 620.625C1260.11 619.163 1261.09 618.507 1262.14 617.654Z" fill="#D17259"/>
<path d="M1219.08 727.167C1209.14 736.699 1200.62 747.914 1191.85 758.516C1183.02 769.182 1174.28 779.921 1165.76 790.824C1149.1 812.118 1133.23 834.064 1118.87 856.975C1089.94 903.126 1068.82 953.501 1053.86 1005.8C1045.37 1035.46 1022.72 1144.97 1018.85 1175.62C1018.61 1177.52 1021.4 1177.99 1021.79 1176.11C1027.34 1149.53 1046.97 1044.12 1054.02 1017.85C1061.09 991.513 1069.65 965.561 1079.99 940.317C1100.78 889.527 1129.6 843.287 1162.87 799.792C1172.17 787.643 1181.7 775.667 1191.36 763.807C1200.97 752.011 1211.58 740.618 1220.03 727.957C1220.47 727.291 1219.65 726.614 1219.08 727.167Z" fill="#315544"/>
<path d="M1266.63 703.684C1273.44 694.482 1278.86 678.633 1266.45 671.194C1253.46 663.399 1239.7 674.203 1231.2 683.481C1219.02 696.778 1209.26 713.466 1205.73 731.284C1205.37 731.05 1204.88 731.012 1204.51 731.379C1201.29 734.636 1205.82 737.657 1208.55 739.468C1213.7 742.893 1218.59 742.958 1224.09 740.255C1240.56 732.159 1255.77 718.329 1266.63 703.684Z" fill="#DE73B3"/>
<path d="M1276.52 707.034C1270.54 693.177 1251.4 701.054 1241.99 706.279C1223.93 716.308 1207.78 730.583 1193.99 745.896C1193.73 745.524 1193.17 745.382 1192.9 745.916C1187.27 757.06 1205.32 764.467 1213.57 764.609C1229.94 764.89 1246.23 753.08 1258 742.868C1267.17 734.91 1282.48 720.856 1276.52 707.034Z" fill="#DE73B3"/>
<path d="M1224.65 723.649C1232.58 714.397 1249.9 691.893 1236.51 680.333C1230.93 675.512 1224.54 678.823 1218.89 681.686C1210.09 686.141 1203.54 692.577 1198.49 701.03C1190.56 714.278 1185.41 734.441 1190.45 749.73C1191.96 754.297 1201.18 746.77 1203.2 745.238C1211.18 739.207 1218.16 731.223 1224.65 723.649Z" fill="#DE73B3"/>
<path d="M1268.58 717.627C1257.7 712.463 1243.94 715.888 1233.26 720.452C1240.97 709.377 1243.23 691.696 1236.04 680.597C1235.69 680.051 1234.79 680.361 1234.96 681.036C1236.81 688.363 1238.69 694.971 1237.69 702.666C1236.72 710.101 1233.56 716.21 1229.47 722.226C1218.18 727.79 1208.13 736.368 1200.96 746.652C1200.95 746.679 1200.99 746.711 1201.01 746.689C1208.68 737.453 1218.09 729.87 1228.56 724.875C1228.85 725.079 1229.25 725.125 1229.55 724.834C1229.8 724.592 1230.04 724.314 1230.28 724.059C1241.82 718.932 1254.58 716.971 1267.75 719.515C1268.82 719.718 1269.73 718.17 1268.58 717.627Z" fill="#A64780"/>
<path d="M1264.42 699.827C1254.6 700.234 1246.73 706.646 1241.34 714.389C1241.26 714.51 1241.45 714.668 1241.54 714.551C1247.48 707.134 1255.74 703.665 1264.56 700.971C1265.16 700.787 1265.11 699.799 1264.42 699.827Z" fill="#A64780"/>
<path d="M1207.76 335.365C1193.67 340.015 1188.71 352.99 1180 363.559C1171.27 374.142 1156.85 375.702 1150.43 387.269C1154.36 377.362 1154.69 367.737 1152.72 357.613C1150.42 345.868 1158.1 332.745 1151.64 322.137C1150.93 320.979 1148.88 321.178 1148.63 322.825C1146.85 334.441 1138.98 345.571 1139.13 357.289C1139.2 362.613 1141.39 366.398 1143.42 371.012C1146.26 377.462 1146.35 383.238 1145.98 389.913C1145.69 390.866 1145.39 391.814 1145.15 392.776C1145 393.396 1145.31 393.72 1145.74 393.885C1145.73 393.944 1145.73 393.997 1145.72 394.056C1145.68 394.684 1146.45 394.781 1146.79 394.254C1147.24 394.348 1147.74 394.304 1148.18 394.005C1159.46 386.377 1173.7 386.58 1184.31 377.875C1197.09 367.391 1199.67 350.191 1209.17 337.639C1209.96 336.602 1209.15 334.904 1207.76 335.365Z" fill="#3A6651"/>
</g>
</svg>
