<svg width="1920" height="850" viewBox="0 0 1920 850" fill="none" xmlns="http://www.w3.org/2000/svg">
<mask id="mask0_5032_4488" style="mask-type:alpha" maskUnits="userSpaceOnUse" x="0" y="0" width="1920" height="850">
<rect width="1920" height="850" fill="#370648"/>
</mask>
<g mask="url(#mask0_5032_4488)">
<path d="M570.48 199.998C582.347 223.617 590.592 250.141 599.908 275.163C609.331 300.477 618.707 325.813 627.73 351.319C645.343 401.095 661.468 451.605 675.365 502.864C703.436 606.386 721.383 713.091 721.874 821.605C722.18 888.578 723.258 885.871 714.216 952.019C713.812 954.999 709.75 954.631 710.056 951.593C720.502 847.56 722.35 791.904 706.486 677.509C691.63 570.401 661.992 466.678 627.623 365.724C617.969 337.376 608.142 309.104 597.854 281.043C588.117 254.488 576.219 228.099 568.811 200.603C568.501 199.456 570.016 199.079 570.48 199.998Z" fill="#3A6651"/>
<path d="M598.465 345.986C596.557 351.7 604.461 357.298 607.963 359.283C614.511 362.994 623.01 364.823 630.212 363.581C633.635 362.99 640.052 352.968 641.635 348.917C643.451 344.256 645.957 336.117 642.741 331.563C639.85 327.467 635.674 329.595 633.611 333.369C629.621 340.657 629.883 350.199 628.396 358.427C628.325 358.127 628.269 357.822 628.051 357.58C625.073 354.367 621.824 351.579 618.334 349.271C617.692 348.845 617.029 348.442 616.324 348.074C613.892 346.644 611.374 345.376 608.681 344.48C605.536 343.44 600.023 341.307 598.465 345.986Z" fill="#6965D0"/>
<path d="M591.86 321.367C594.231 323.428 608.675 332.195 616.647 333.696C617.623 333.88 618.388 333.548 618.86 332.809C618.864 332.804 618.868 332.804 618.868 332.804C623.258 328.246 638.095 301.929 627.93 296.564C621.164 292.997 617.761 311.448 616.195 323.119C610.873 316.688 590.797 294.121 584.705 306.962C581.933 312.797 588.389 318.35 591.86 321.367Z" fill="#6965D0"/>
<path d="M586.141 286.758C591.214 292.356 604.766 300.221 606.566 299.428C614.28 296.022 615.51 282.644 617.302 273.635C618.099 269.624 618.797 262.641 614.526 260.552C606.368 256.559 603.683 274.643 602.925 286.897C597.064 277.445 586.689 263.797 580.791 272.577C577.48 277.503 583.393 283.719 586.141 286.758Z" fill="#6965D0"/>
<path d="M590.035 252.234C590.67 245.641 592.221 239.237 594.866 233.195C595.961 230.69 597.92 224.68 601.307 226.405C605.253 228.413 603.199 238.596 602.54 241.791C601.061 248.998 597.666 257.8 592.006 261.525C588.897 263.578 577.884 259.033 572.319 253.942C568.694 250.63 561.901 244.655 563.907 238.533C567.707 226.97 582.353 243.028 590.035 252.234Z" fill="#6965D0"/>
<path d="M553.326 209.235C555.777 204.919 561.682 207.72 564.66 209.217C566.231 210.006 567.69 210.952 569.094 211.974C566.378 206.161 563.839 200.182 562.408 194.136C561.472 190.196 560.516 179.677 565.572 178.149C570.046 176.8 573.524 184.813 574.639 188.143C577.355 196.238 578.748 205.793 578.089 214.609C579.616 207.357 579.949 198.38 585.878 194.297C587.358 193.28 589.583 193.961 590.106 195.153C593.727 203.395 591.589 217.029 586.303 225.11C586.005 226.454 581.841 232.33 580.489 231.949C572.572 229.744 567.004 227.409 560.341 222.049C557.339 219.629 550.311 214.533 553.326 209.235Z" fill="#6965D0"/>
<path d="M743.365 679.481C732.048 691.252 735.154 708.138 732.973 724.054C730.786 740.001 717.206 748.456 717.963 764.43C715.732 751.473 710.049 740.508 701.718 730.043C692.065 717.918 691.603 699.605 678.442 690.69C677.004 689.718 675.063 690.89 675.837 692.856C681.31 706.738 680.326 722.899 687.806 735.997C691.205 741.941 695.785 745.178 700.724 749.416C707.626 755.345 711.32 761.798 715.121 769.471C715.431 770.674 715.717 771.881 716.08 773.068C716.315 773.84 716.835 774.059 717.362 774.046C717.395 774.111 717.427 774.176 717.456 774.242C717.809 774.968 718.647 774.723 718.655 773.97C719.167 773.868 719.648 773.583 719.902 773.049C726.516 759.242 741.023 752.846 746.284 738.14C752.624 720.425 744.464 699.905 746.208 681.384C746.349 679.853 744.476 678.321 743.365 679.481Z" fill="#3A6651"/>
<path d="M957.215 553.426C956.996 553.426 957.028 553.807 957.246 553.807C957.465 553.807 957.433 553.426 957.215 553.426Z" fill="#944E44"/>
<path d="M760.848 1078.46C759.021 1036.3 753.943 994.455 744.186 954.153C733.653 910.65 717.216 869.749 700.304 829.314C681.471 784.294 657.459 738.144 655.62 686.448C655.555 684.656 653.224 685.037 653.153 686.768C651.47 728.844 669.991 767.547 685.022 803.827C701.897 844.564 719.644 884.952 732.525 927.749C757.156 1009.6 760.355 1098.11 755.37 1185.55C752.468 1236.54 746.912 1287.47 741.209 1338.34C740.855 1341.47 745.196 1342.2 745.541 1339.03C755.042 1252.36 764.592 1165.03 760.848 1078.46Z" fill="#3A6651"/>
<path d="M639.533 624.668C605.366 557.341 561.161 497.571 524.182 432.32C504.737 398.016 489.162 362.452 476.249 324.733C478.189 318.449 474.972 307.334 473.227 302.081C471.387 296.528 467.909 288.887 462.19 287.569C448.563 284.432 458.045 315.684 460.484 321.147C462.551 325.777 466.969 331.809 472.267 330.886C472.735 330.806 473.152 330.644 473.536 330.443C493.628 394.82 531.369 452.779 566.075 507.499C607.678 573.082 647.973 638.257 674.299 713.866C690.342 759.935 701.014 807.537 708.649 856.219C709.002 858.478 712.119 858.204 711.829 855.883C701.617 774.636 675.572 695.683 639.533 624.668Z" fill="#3A6651"/>
<path d="M663.633 655.372C658.171 651.695 650.997 661.647 646.118 669.941C647.533 663.391 648.14 654.635 641.715 656.752C634.556 659.102 634.765 672.667 633.537 681.454C631.638 675.422 627.34 664.013 622.838 669.432C617.294 676.116 628.972 689.378 633.038 692.143C633.793 692.664 634.679 691.818 634.635 690.937C635.546 690.697 636.398 689.952 636.806 688.916C638.522 684.543 638.884 680.345 639.205 675.812C639.536 677.847 640.207 679.845 641.591 681.818C642.468 683.068 644.676 682.64 645.345 681.187C647.326 676.899 649.732 672.267 652.655 668.309C651.112 672.53 650.701 677.104 652.993 679.17C653.772 679.873 654.815 680.179 655.792 679.529C660.367 676.493 670.042 659.683 663.633 655.372Z" fill="#1F2844"/>
<path d="M693.841 665.286C695.777 661.284 697.901 653.496 691.579 654.141C688.714 654.432 685.584 656.88 682.626 660.109C684.162 655.064 684.068 650.729 679.721 650.029C672.089 648.791 663.608 662.368 657.533 674.238C659.226 666.994 659.9 659.495 659.567 652.449C659.518 651.432 658.607 650.577 657.657 651.007C648.453 655.11 644.312 664.138 641.995 674.06C641.527 662.389 639.769 651.371 634.418 655.873C629.649 659.883 630.291 671.216 630.481 676.515C630.6 679.849 630.743 683.96 631.397 687.853C629.751 686.255 628.013 684.753 626.126 683.363C622.723 680.862 615.371 674.108 610.692 677.116C603.757 681.57 612.347 688.38 619.874 692.687C616.237 692.402 612.661 692.45 609.107 694.978C606.86 696.584 603.332 699.714 604.749 702.912C606.646 707.192 614.05 706.953 617.688 706.509C621.944 705.982 626.082 704.648 630.077 702.842C627.852 705.699 626.055 709.052 624.782 712.231C623.77 714.752 622.494 720.123 626.493 719.846C628.483 719.708 630.384 716.926 631.684 715.51C634.777 712.15 637.755 708.667 640.615 705.064C641.363 704.124 642.622 702.812 643.857 701.35C644.358 705.73 645.797 710.049 649.115 710.48C653.947 711.117 654.021 702.676 653.539 696.862C662.273 701.463 678.445 705.366 683.959 695.168C687.425 688.752 678.663 686.711 670.903 686.58C679.587 681.422 689.211 674.86 693.841 665.286Z" fill="#6965D0"/>
<path d="M777.892 344.472C776.845 342.155 775.429 338.942 773.132 338.014C772.549 337.776 771.927 338.184 771.966 338.933C772.109 341.514 773.862 343.952 774.774 346.274C775.762 348.775 776.23 351.639 777.586 353.929C778.221 354.996 779.894 354.646 780.041 353.311C780.37 350.232 779.109 347.17 777.892 344.472Z" fill="#A64780"/>
<path d="M852.935 453.825C853.455 452.088 851.249 450.794 850.6 452.57C821.112 533.174 817.789 625.119 815.909 711.179C813.813 807.103 814.244 903.104 817.064 999C818.67 1053.6 819.599 1108.94 824.692 1163.28C824.858 1165.06 827.158 1164.78 827.12 1163.02C826.051 1116.06 822.562 1069.11 821.039 1022.14C819.52 975.166 818.496 928.169 818.094 881.16C817.3 788.416 816.151 694.327 824.366 601.943C828.889 551.038 838.421 502.261 852.935 453.825Z" fill="#3A6651"/>
<path d="M791.138 444.052C788.217 444.291 785.979 446.447 786 450.692C786.011 452.931 787.18 455.04 788.421 456.651C789.625 458.211 791.061 458.634 792.345 459.92C795.994 463.558 793.874 463.476 795.869 466.341C805.176 479.709 831.345 469.273 840.614 458.736C841.082 458.587 841.418 458.152 841.561 457.651C841.571 457.639 841.578 457.631 841.588 457.619C841.855 457.267 841.772 456.906 841.55 456.663C841.432 456.306 841.207 455.969 840.794 455.726C833.242 451.32 825.954 446.412 818.51 441.79C813.199 438.489 806.622 433.096 800.316 432.778C793.462 432.429 789.587 437.529 791.138 444.052Z" fill="#DE73B3"/>
<path d="M891.772 507.466C894.2 509.317 897.138 509.18 899.442 505.828C900.656 504.056 900.888 501.582 900.791 499.454C900.698 497.384 899.803 496.044 899.49 494.142C898.606 488.733 900.233 490.277 900.226 486.631C900.208 469.618 873.925 459.571 860.875 461.394C860.428 461.183 859.925 461.288 859.536 461.586C859.526 461.59 859.509 461.59 859.498 461.594C859.096 461.684 858.964 462.025 859.006 462.374C858.902 462.731 858.898 463.158 859.089 463.636C862.624 472.37 865.676 481.316 869.003 490.152C871.375 496.447 873.602 505.279 878.389 509.928C883.593 514.985 889.424 513.68 891.772 507.466Z" fill="#DE73B3"/>
<path d="M826.203 390.085C822.072 390.849 819.97 395.651 818.846 399.971C813.275 395.655 811.065 405.573 812.796 411.935C816.858 426.89 831.063 446.886 843.683 453.386C844.269 453.688 844.997 452.947 844.578 452.28C844.46 452.096 844.31 451.935 844.189 451.751C844.689 451.469 845.084 450.947 845.115 450.152C845.667 434.487 849.528 410.422 841.945 396.114C838.764 390.116 834.75 391.774 831.972 395.785C831.112 392.445 829.672 389.442 826.203 390.085Z" fill="#DE73B3"/>
<path d="M877.688 392.464C874.267 389.736 869.789 391.492 866.31 393.679C865.012 386.192 857.284 391.508 854.568 397.415C848.189 411.3 845.906 436.812 850.873 451.445C851.102 452.12 852.077 452.174 852.192 451.367C852.223 451.136 852.219 450.908 852.247 450.681C852.774 450.873 853.385 450.814 853.895 450.277C864.01 439.544 881.698 425.447 885.166 409.238C886.623 402.441 882.735 400.438 878.263 401.096C879.727 398.038 880.56 394.753 877.688 392.464Z" fill="#DE73B3"/>
<path d="M897.177 463.386C900.039 463.617 909.071 464.346 909.959 459.215C910.175 457.992 908.898 454.487 908.562 454.711C908.7 454.546 911.371 453.813 912.225 453.072C915.444 450.262 914.656 446.647 912.246 443.409C911.129 441.912 906.282 437.4 905.943 437.133C906.945 430.556 903.799 428.909 898.655 427.521C882.854 423.26 863.047 437.682 856.97 453.907C856.876 454.17 856.935 454.483 857.081 454.707C857.011 454.977 856.942 455.252 856.876 455.526C856.706 456.193 857.185 456.71 857.729 456.773C870.935 458.188 884.002 462.331 897.177 463.386Z" fill="#DE73B3"/>
<path d="M814.709 452.923C812.444 451.994 810.036 451.696 807.775 450.751C805.745 449.901 803.921 448.376 801.878 447.666C801.67 447.596 801.559 447.862 801.597 448.047C802.721 453.48 810.3 456.953 814.626 455.028C815.371 454.695 815.566 453.276 814.709 452.923Z" fill="#A64780"/>
<path d="M812.029 462.504C810.423 462.437 808.827 462.567 807.204 462.465C805.691 462.374 804.231 461.955 802.729 461.802C802.351 461.763 802.056 462.206 802.285 462.586C804.411 466.146 809.618 466.996 812.702 464.574C813.61 463.86 812.965 462.543 812.029 462.504Z" fill="#A64780"/>
<path d="M864.884 402.523C863.393 403.676 862.408 405.675 861.568 407.443C860.673 409.325 859.615 411.375 859.626 413.55C859.629 414.726 861.1 415.142 861.714 414.295C862.838 412.731 863.237 410.544 863.906 408.697C864.558 406.902 865.464 405.032 865.672 403.092C865.72 402.602 865.259 402.233 864.884 402.523Z" fill="#A64780"/>
<path d="M898.918 437.204C897.152 434.044 892.757 435.342 890.364 436.632C889.777 436.945 889.985 437.808 890.606 437.835C891.945 437.89 893.347 438.349 894.644 438.717C895.785 439.05 896.843 439.689 898.023 439.387C898.932 439.164 899.455 438.164 898.918 437.204Z" fill="#A64780"/>
<path d="M903.26 444.867C900.297 442.766 896.01 444.017 893.006 445.299C892.52 445.506 892.59 446.322 893.1 446.427C896.228 447.098 899.985 448.509 903.156 447.525C904.339 447.161 904.085 445.455 903.26 444.867Z" fill="#A64780"/>
<path d="M856.674 447.717C850.007 444.495 841.674 446.393 838.407 453.962C835.514 460.654 836.475 467.956 842.424 470.865C842.441 470.873 842.441 470.893 842.462 470.901C842.666 471.006 842.927 471.057 843.145 471.147C843.61 471.34 844.03 471.567 844.55 471.7C844.588 471.712 844.612 471.684 844.651 471.688C850.617 473.225 859.629 471.089 862.82 465.518C866.688 458.764 862.591 450.579 856.674 447.717Z" fill="#3A6651"/>
<path d="M682.151 566.045C671.816 579.715 675.957 596.271 674.846 612.679C673.736 629.119 660.969 639.794 662.742 655.804C659.716 643.08 653.434 632.901 644.589 623.66C634.333 612.939 632.695 594.532 619.215 587.612C617.74 586.855 615.911 588.343 616.8 590.207C623.066 603.352 623.145 619.819 631.327 631.861C635.047 637.325 639.747 639.87 644.863 643.366C652.018 648.265 656.059 654.19 660.287 661.339C660.664 662.504 661.021 663.674 661.457 664.821C661.734 665.561 662.262 665.7 662.777 665.601C662.813 665.668 662.849 665.722 662.88 665.785C663.277 666.461 664.082 666.08 664.039 665.327C664.534 665.139 664.986 664.776 665.201 664.198C670.797 649.215 684.602 640.476 688.814 624.798C693.883 605.916 684.551 586.487 685.058 567.52C685.102 565.956 683.167 564.701 682.151 566.045Z" fill="#3A6651"/>
<path d="M731.243 882.176C706.916 797.949 679.388 714.913 656.818 630.036C643.69 580.668 634.068 530.946 625.121 480.454C624.76 478.423 621.718 479.024 621.937 481.099C631.031 567.285 657.492 651.93 681.879 733.786C706.694 817.068 734.198 899.691 753.179 985.013C764.141 1034.29 771.819 1084.41 774.052 1135.2C774.195 1138.48 778.708 1138.26 778.566 1134.97C774.782 1048.35 754.952 964.253 731.243 882.176Z" fill="#3A6651"/>
<path d="M560.688 462.658C557.345 462.47 554.541 464.562 554.041 469.385C553.775 471.926 554.842 474.503 556.048 476.525C557.222 478.483 558.8 479.196 560.097 480.85C563.789 485.56 561.394 485.13 563.306 488.697C572.213 505.334 603.196 497.625 615.018 487.133C615.565 487.035 616.002 486.6 616.228 486.049C616.236 486.035 616.252 486.026 616.264 486.013C616.609 485.659 616.557 485.233 616.335 484.924C616.248 484.502 616.029 484.081 615.593 483.745C607.57 477.551 599.904 470.833 592.027 464.406C586.411 459.825 579.618 452.668 572.499 451.314C564.761 449.831 559.736 455.007 560.688 462.658Z" fill="#DE73B3"/>
<path d="M664.222 424.284C665.487 420.784 664.67 417.099 660.811 414.966C658.777 413.841 656.27 414.124 654.184 414.738C652.157 415.343 651.039 416.786 649.227 417.624C644.071 419.995 645.225 417.583 641.612 418.439C624.768 422.415 620.929 458.005 625.772 474.091C625.668 474.705 625.887 475.314 626.275 475.74C626.279 475.754 626.283 475.772 626.291 475.785C626.474 476.274 626.842 476.359 627.176 476.229C627.56 476.273 627.977 476.179 628.405 475.825C636.238 469.327 644.388 463.384 652.364 457.113C658.051 452.645 666.28 447.778 669.774 440.643C673.574 432.88 670.921 425.808 664.222 424.284Z" fill="#DE73B3"/>
<path d="M594.494 410.215C589.85 411.52 587.847 417.207 586.919 422.245C580.22 417.911 578.511 429.447 581.002 436.52C586.855 453.134 604.678 474.441 619.591 480.523C620.281 480.809 621.05 479.891 620.519 479.174C620.368 478.972 620.186 478.806 620.035 478.609C620.578 478.232 620.987 477.6 620.955 476.695C620.308 458.785 622.736 430.958 612.928 415.446C608.815 408.938 604.373 411.246 601.534 416.105C600.284 412.389 598.396 409.117 594.494 410.215Z" fill="#DE73B3"/>
<path d="M653.47 552.797C658.062 551.282 659.863 545.505 660.613 540.427C667.458 544.456 668.755 532.853 666.014 525.901C659.57 509.565 641.001 489.087 625.883 483.691C625.185 483.44 624.447 484.386 625.006 485.085C625.161 485.278 625.351 485.434 625.51 485.623C624.978 486.022 624.593 486.676 624.657 487.577C625.942 505.446 624.51 533.364 634.865 548.418C639.208 554.724 643.563 552.219 646.228 547.23C647.608 550.888 649.611 554.065 653.47 552.797Z" fill="#DE73B3"/>
<path d="M622.67 492.072C622.631 491.754 622.4 491.489 622.143 491.373C622.063 491.064 621.984 490.75 621.909 490.436C621.714 489.674 620.973 489.491 620.41 489.804C606.818 497.414 591.914 502.277 578.544 510.21C575.637 511.936 566.472 517.363 568.34 522.961C568.784 524.297 569.847 529.173 569.415 530.477C567.777 535.394 570.466 538.37 574.543 539.876C576.419 540.575 583.534 541.668 584.006 541.695C586.54 548.772 590.474 548.23 596.209 546.079C613.838 539.468 625.411 511.981 622.67 492.072Z" fill="#DE73B3"/>
<path d="M629.468 480.182C628.413 481.437 629.297 483.055 630.443 483.337C630.622 483.682 630.919 483.942 631.348 484.001C643.146 485.601 652.685 496.173 663.032 502.089C667.363 504.563 674.851 508.521 678.741 502.645C679.907 500.879 679.039 497.733 679.764 496.612C680.387 495.658 683.211 496.227 685.61 495.071C691.067 492.44 687.823 484.942 687.792 485.054C687.97 484.355 692.384 482.71 692.428 475.991C692.46 470.779 688.549 466.862 684.532 464.939C676.187 460.928 664.599 463.662 656.044 465.656C646.264 467.929 636.452 471.864 629.468 480.182Z" fill="#DE73B3"/>
<path d="M618.924 472.545C615.133 473.965 613.38 478.205 612.757 480.379C611.563 484.57 612.654 489.087 615.315 492.256C618.064 495.528 622.541 497.19 626.321 495.407C629.87 493.73 632.484 489.558 633.178 485.345C634.653 476.417 627.162 469.457 618.924 472.545Z" fill="#F5C16E"/>
<path d="M607.009 425.19C606.85 424.804 606.223 424.755 606.191 425.275C605.93 429.237 605.652 434.821 607.75 438.245C608.432 439.357 610.257 439.043 610.388 437.582C610.737 433.539 608.492 428.753 607.009 425.19Z" fill="#A64780"/>
<path d="M597.435 436.694C596.447 433.875 595.995 430.465 594.127 428.215C593.877 427.91 593.397 428.089 593.258 428.425C592.029 431.424 593.092 435.157 593.873 438.182C594.872 442.064 596.015 445.179 598.652 447.863C599.418 448.643 600.988 447.89 600.742 446.631C600.06 443.059 598.632 440.114 597.435 436.694Z" fill="#A64780"/>
<path d="M600.391 520.348C598.404 521.213 596.734 523.324 595.013 524.74C593.308 526.152 591.436 527.25 590.091 529.142C589.889 529.424 590.028 529.809 590.329 529.895C592.693 530.527 594.843 529.482 596.909 528.263C598.892 527.093 601.513 525.211 602.346 522.76C602.81 521.384 601.739 519.757 600.391 520.348Z" fill="#A64780"/>
<path d="M643.242 508.969C642.643 508.548 641.993 509.399 642.195 510.049C643.099 512.976 644.543 515.669 645.558 518.551C646.613 521.545 647.188 524.516 648.513 527.376C648.953 528.326 650.174 528.339 650.404 527.183C651.673 520.823 648.144 512.402 643.242 508.969Z" fill="#A64780"/>
<path d="M644.086 530.5C643.606 527.905 642.654 525.812 641.445 523.58C641.179 523.082 640.584 523.526 640.699 524.019C641.278 526.475 641.46 529.133 641.512 531.665C641.556 533.673 641.127 535.632 642 537.442C642.305 538.083 643.154 537.998 643.531 537.523C644.955 535.708 644.498 532.714 644.086 530.5Z" fill="#A64780"/>
<path d="M1368.85 436.673C1351.94 455.972 1337.86 479.152 1323.09 500.562C1308.15 522.223 1293.25 543.924 1278.66 565.885C1250.17 608.75 1222.95 652.762 1197.7 698.154C1146.71 789.821 1104.77 887.539 1079.25 992.155C1063.51 1056.73 1053.25 1122.82 1046.72 1189.34C1046.42 1192.34 1050.48 1193.19 1050.83 1190.16C1063.92 1075.76 1085.65 963.346 1127.36 857.587C1166.42 758.56 1218.96 667.157 1275.44 579.824C1291.3 555.299 1307.31 530.904 1323.72 506.85C1339.24 484.082 1356.82 462.108 1370.32 437.749C1370.88 436.731 1369.5 435.925 1368.85 436.673Z" fill="#3A6651"/>
<path d="M1298.63 564.904C1295.82 564.971 1293.1 565.45 1290.42 566.114C1289.65 566.266 1288.92 566.463 1288.2 566.674C1284.3 567.879 1280.52 569.614 1276.9 571.842C1276.63 572.007 1276.51 572.285 1276.37 572.554C1276.84 564.169 1279.29 555.039 1277.12 546.824C1276 542.575 1272.46 539.29 1268.72 542.391C1264.57 545.838 1265.11 554.434 1265.79 559.472C1266.38 563.85 1270.26 575.418 1273.43 576.991C1280.1 580.312 1288.72 581.056 1295.9 579.398C1299.74 578.515 1308.66 575.44 1308.14 569.363C1307.71 564.388 1301.9 564.823 1298.63 564.904Z" fill="#6965D0"/>
<path d="M1330.43 535.745C1327.51 521.555 1302.92 537.421 1296.3 542.06C1297.48 530.335 1298.45 511.52 1291.1 512.972C1280.05 515.15 1288.3 544.933 1291.48 550.625C1291.48 550.625 1291.48 550.624 1291.49 550.629C1291.78 551.485 1292.44 552.032 1293.42 552.139C1301.46 553.04 1317.43 548.832 1320.2 547.541C1324.24 545.654 1331.76 542.194 1330.43 535.745Z" fill="#6965D0"/>
<path d="M1342.14 503.703C1338.47 493.489 1325.31 503.6 1317.47 511.004C1319.56 498.948 1321.15 480.703 1312.35 482.15C1307.74 482.908 1306.81 489.859 1306.65 493.964C1306.3 503.193 1304.4 516.468 1311.07 522.03C1312.62 523.325 1327.52 519.722 1333.7 515.813C1337.06 513.689 1344.2 509.431 1342.14 503.703Z" fill="#6965D0"/>
<path d="M1337.91 481.339C1338.82 474.787 1338.8 468.149 1337.64 461.534C1337.16 458.791 1336.66 452.413 1332.99 453.081C1328.72 453.861 1328.35 464.29 1328.25 467.571C1328.02 474.966 1329.26 484.467 1333.86 489.725C1336.39 492.62 1348.08 491.482 1354.62 488.21C1358.88 486.076 1366.82 482.312 1366.3 475.809C1365.3 463.524 1347.45 474.715 1337.91 481.339Z" fill="#6965D0"/>
<path d="M1383.27 450.643C1381.9 445.753 1375.55 446.721 1372.34 447.286C1370.63 447.582 1369.01 448.075 1367.41 448.64C1371.38 443.831 1375.21 438.807 1377.99 433.388C1379.8 429.865 1383.15 419.992 1378.62 417.029C1374.61 414.403 1369.41 421.117 1367.56 423.998C1363.07 431.021 1359.53 439.833 1358.13 448.537C1358.32 441.083 1360.07 432.321 1355.29 426.629C1354.1 425.213 1351.79 425.217 1351.01 426.212C1345.61 433.101 1344.53 446.892 1347.77 456.254C1347.75 457.639 1350.42 464.532 1351.8 464.568C1359.96 464.77 1365.87 464.16 1373.54 460.947C1377 459.495 1384.96 456.653 1383.27 450.643Z" fill="#6965D0"/>
<path d="M1125.05 1192.48C1116.09 1174.25 1115.41 1149.27 1111.86 1129.04C1108.11 1107.65 1103.95 1086.35 1099.26 1065.2C1090.49 1025.67 1079.83 986.656 1066.54 948.766C1053.76 912.36 1038.54 877.029 1020.44 843.613C1011.99 828.016 1002.88 812.876 993.182 798.238C982.378 781.951 970.869 763.988 956.933 750.959C955.56 749.673 953.875 751.497 954.942 753.106C965.269 768.64 977.675 782.444 988.157 797.924C999.293 814.359 1009.51 831.588 1018.95 849.323C1037.47 884.102 1052.91 920.925 1065.71 958.828C1078.99 998.129 1089.52 1038.57 1098.15 1079.47C1102.47 1099.96 1106.32 1120.56 1109.81 1141.25C1112.78 1158.85 1113.63 1178.8 1121.51 1194.69C1122.79 1197.26 1126.32 1195.06 1125.05 1192.48Z" fill="#3A6651"/>
<path d="M1154.49 538.515C1128.34 618.785 1116.26 704.388 1102.24 788.136C1087.72 874.847 1074.85 961.974 1068.91 1050.04C1065.61 1098.84 1064.4 1147.86 1065.64 1196.77C1065.69 1198.8 1068.48 1198.5 1068.42 1196.48C1063.14 1023.08 1094.75 850.08 1125.07 680.988C1133.64 633.247 1144.56 586.686 1158.05 540.428C1158.82 537.766 1155.37 535.794 1154.49 538.515Z" fill="#3A6651"/>
<path d="M1151.87 738.742C1137.58 746.643 1135.55 763.692 1128.77 778.253C1121.97 792.842 1106.49 796.907 1102.5 812.392C1104.19 799.354 1102 787.199 1097.14 774.74C1091.5 760.304 1096.47 742.672 1086.53 730.266C1085.44 728.913 1083.24 729.459 1083.4 731.566C1084.53 746.446 1078.81 761.594 1082.09 776.317C1083.58 783 1087 787.446 1090.46 792.954C1095.31 800.658 1096.93 807.914 1098.29 816.367C1098.23 817.609 1098.15 818.846 1098.15 820.087C1098.14 820.894 1098.57 821.257 1099.08 821.4C1099.09 821.472 1099.11 821.544 1099.11 821.615C1099.24 822.413 1100.11 822.427 1100.34 821.71C1100.86 821.763 1101.4 821.634 1101.8 821.199C1112.2 809.963 1127.95 808.139 1137.32 795.643C1148.61 780.593 1146.88 758.578 1154.02 741.399C1154.61 739.978 1153.27 737.962 1151.87 738.742Z" fill="#3A6651"/>
<path d="M1035.36 797.292C1029.54 814.019 1038.23 828.141 1041.92 844.065C1045.62 860.016 1036.63 874.811 1042.93 889.292C1036.39 878.374 1027.51 871.073 1016.49 865.596C1003.7 859.245 996.834 842.447 982.092 840.87C980.482 840.699 979.185 842.783 980.561 844.218C990.278 854.333 995.109 869.872 1006.32 878.235C1011.41 882.036 1016.59 882.703 1022.44 884.129C1030.61 886.118 1036.14 890.233 1042.2 895.427C1042.89 896.391 1043.57 897.368 1044.31 898.287C1044.79 898.883 1045.33 898.82 1045.79 898.538C1045.84 898.587 1045.89 898.627 1045.94 898.677C1046.51 899.17 1047.16 898.511 1046.9 897.812C1047.32 897.453 1047.64 896.947 1047.67 896.315C1048.63 880.09 1059.17 866.739 1058.62 850.367C1057.96 830.651 1043.53 815.726 1038.54 797.611C1038.13 796.114 1035.93 795.643 1035.36 797.292Z" fill="#3A6651"/>
<path d="M1129.28 836.406C1125.28 843.931 1120.67 850.707 1114.8 856.494C1109.72 861.495 1103.61 864.928 1098.79 870.266C1095.01 874.439 1092.05 879.275 1089.63 884.456C1089.62 876.626 1088.36 868.832 1085.65 861.406C1082.95 853.97 1078.56 847.521 1075.78 840.117C1073.06 832.888 1071.62 825.121 1070.05 817.501C1069.73 815.928 1067.53 816.305 1067.34 817.779C1065.55 831.928 1062.76 849.237 1067.78 862.938C1069.54 867.734 1072.34 870.571 1075.58 874.044C1083.25 882.246 1083.17 889.682 1083.89 899.833C1083.79 900.331 1083.75 900.806 1083.64 901.312C1083.41 902.365 1083.82 903.132 1084.44 903.531C1083.93 904.512 1083.41 905.503 1082.95 906.551C1081.86 909.079 1085.17 910.751 1086.39 908.402C1093.89 893.944 1106.75 886.715 1117.29 875.622C1127.13 865.255 1131.5 852.643 1132.68 837.629C1132.86 835.303 1130.34 834.42 1129.28 836.406Z" fill="#3A6651"/>
<path d="M1204.72 553.206C1200.04 550.131 1194.92 547.626 1189.57 545.726C1196.43 545.578 1203.34 545.914 1210.15 545.376C1214.87 545.004 1221.41 543.014 1219.37 535.969C1216.96 527.628 1203.44 527.691 1197.43 528.08C1192.37 528.412 1187.09 529.51 1181.95 531.272C1186.2 527.821 1190.21 524.186 1193.75 520.811C1199.18 515.63 1210.79 505.94 1207.38 496.111C1204 486.377 1194.35 491.204 1189.82 496.434C1180.93 506.662 1174.63 518.749 1166.34 529.322C1166.73 527.964 1167.19 526.624 1167.55 525.252C1170.99 516.956 1173.15 507.881 1173.73 499.356C1174.41 489.51 1173.33 473.984 1163.54 469.821C1156.28 466.733 1155.31 474.657 1155.54 481.173C1155.93 492.539 1156.95 503.305 1155.34 514.716C1155.01 517.033 1154.55 519.309 1154.02 521.573C1153.85 513.851 1152.46 506.142 1150.01 499.06C1147.65 492.252 1139.11 472.353 1131.02 472.169C1124.44 472.026 1126.9 480.241 1128.24 484.813C1130.78 493.431 1135.33 501.118 1138.11 509.629C1140.55 517.113 1142.42 524.71 1143.75 532.486C1136.48 520.99 1124.92 510.341 1115.03 504.161C1107.68 499.571 1094.34 495.134 1088.37 504.542C1081.21 515.836 1095.88 522.389 1102.93 525.239C1116.36 530.667 1130.1 535.588 1143.72 540.554C1143.98 540.894 1144.24 541.226 1144.5 541.562C1130.43 538.111 1114.07 537.188 1100.48 540.356C1094.49 541.75 1078.46 545.591 1079.93 556.016C1081.69 568.48 1104.29 560.404 1110.56 559.028C1121.27 556.679 1133.21 554.443 1143.88 549.862C1128.62 563.702 1095.94 594.564 1109.45 602.3C1117.73 607.042 1129.73 592.167 1134.3 586.228C1138.01 581.397 1142.12 575.525 1145.69 569.237C1145.33 572.034 1144.96 574.822 1144.5 577.583C1142.81 587.707 1140.9 597.805 1140.14 608.095C1139.64 614.796 1139.37 626.009 1148.16 623.934C1157.01 621.85 1158.96 605.37 1159.82 597.509C1160.86 587.985 1161.21 577.86 1160.32 567.969C1162.05 573.316 1163.82 578.649 1165.2 584.14C1167.45 593.117 1168.42 603.084 1171.73 611.716C1174.15 618.018 1178.15 622.244 1182.7 615.441C1189.67 605.003 1184.47 588.657 1180.36 578.304C1176.73 569.179 1171.64 559.189 1165.03 551.588C1169.19 554.111 1173.5 556.365 1177.58 559.055C1186.13 564.706 1192.84 573.029 1201.27 578.82C1206.1 582.141 1220.68 590.526 1223.82 580.742C1227.8 568.314 1211.96 557.966 1204.72 553.206Z" fill="#F5E4D5"/>
<path d="M1148.86 523.845C1142.32 526.696 1139.56 534.288 1138.64 538.16C1136.86 545.618 1139.1 553.426 1144 558.732C1149.06 564.204 1157.03 566.687 1163.52 563.205C1169.61 559.933 1173.89 552.363 1174.79 544.923C1176.71 529.134 1163.06 517.656 1148.86 523.845Z" fill="#F5C16E"/>
<path d="M1329.33 644.896C1329.11 644.896 1329.14 645.277 1329.36 645.277C1329.58 645.277 1329.55 644.896 1329.33 644.896Z" fill="#944E44"/>
<path d="M1299.68 704.912C1292.73 708.821 1285.61 711.738 1277.92 713.047C1271.25 714.181 1264.47 713.365 1257.86 714.929C1252.69 716.153 1247.89 718.43 1243.39 721.329C1247.1 714.723 1249.75 707.382 1251 699.48C1252.27 691.57 1251.63 683.462 1252.8 675.534C1253.95 667.78 1256.44 660.358 1258.74 652.976C1259.21 651.453 1257.18 650.44 1256.33 651.569C1248.08 662.411 1237.5 675.314 1235.2 689.911C1234.41 695.025 1235.41 699.113 1236.5 704.011C1239.06 715.588 1235.46 721.813 1231.23 730.808C1230.91 731.171 1230.65 731.543 1230.32 731.902C1229.62 732.65 1229.6 733.542 1229.94 734.26C1229.03 734.775 1228.13 735.295 1227.25 735.904C1225.12 737.37 1227.12 740.79 1229.27 739.553C1242.46 731.92 1256.75 733.636 1270.91 730.687C1284.15 727.927 1293.83 719.953 1301.96 708.014C1303.23 706.163 1301.52 703.882 1299.68 704.912Z" fill="#3A6651"/>
<path d="M1332.24 631.898C1299.4 655.495 1269.77 687.675 1242.23 718.573C1213.55 750.762 1186.88 785.236 1162.34 821.53C1113.59 893.608 1073.13 972.699 1040.87 1055.72C1022.56 1102.82 1006.97 1151.2 993.829 1200.45C992.98 1203.63 997.502 1204.5 998.346 1201.34C1044.18 1029.58 1121.77 866.9 1232.12 737.02C1247.98 718.344 1264.5 700.377 1281.67 683.238C1298.61 666.337 1316.82 651.229 1333.85 634.507C1335.21 633.18 1333.8 630.773 1332.24 631.898Z" fill="#3A6651"/>
<path d="M1366.36 566.028C1367.21 562.367 1365.96 558.835 1361.89 557.307C1359.73 556.491 1357.29 557.145 1355.29 558.073C1353.35 558.974 1352.41 560.574 1350.72 561.672C1345.89 564.8 1346.75 562.237 1343.27 563.626C1327.04 570.093 1327.42 605.944 1334.1 621.16C1334.07 621.787 1334.36 622.356 1334.79 622.715C1334.8 622.728 1334.81 622.746 1334.82 622.764C1335.05 623.221 1335.43 623.248 1335.75 623.065C1336.13 623.06 1336.53 622.903 1336.92 622.486C1343.92 614.867 1351.3 607.75 1358.47 600.346C1363.58 595.062 1371.16 589.002 1373.79 581.406C1376.64 573.145 1373.18 566.53 1366.36 566.028Z" fill="#DE73B3"/>
<path d="M1378.54 688.388C1381.32 690.499 1384.67 690.342 1387.31 686.51C1388.7 684.489 1388.96 681.66 1388.85 679.227C1388.74 676.856 1387.72 675.328 1387.36 673.149C1386.35 666.964 1388.21 668.735 1388.21 664.562C1388.19 645.115 1358.13 633.628 1343.21 635.708C1342.7 635.47 1342.13 635.587 1341.68 635.932C1341.67 635.936 1341.65 635.936 1341.64 635.941C1341.18 636.04 1341.03 636.434 1341.08 636.828C1340.96 637.245 1340.95 637.725 1341.17 638.271C1345.21 648.261 1348.7 658.489 1352.51 668.587C1355.22 675.789 1357.77 685.882 1363.24 691.207C1369.19 696.988 1375.85 695.491 1378.54 688.388Z" fill="#DE73B3"/>
<path d="M1404.92 614.105C1404.73 608.7 1400.21 605.325 1396.03 603.273C1401.15 596.743 1391.51 592.507 1384.88 593.825C1369.29 596.917 1347.2 612.304 1338.9 627.56C1338.51 628.272 1339.15 629.308 1339.88 628.864C1340.08 628.739 1340.26 628.573 1340.46 628.447C1340.68 629.124 1341.14 629.707 1341.94 629.855C1357.58 632.777 1381.2 641.136 1396.64 633.436C1403.11 630.204 1402.01 624.821 1398.38 620.694C1401.86 620.071 1405.07 618.645 1404.92 614.105Z" fill="#DE73B3"/>
<path d="M1269.39 650.337C1269.76 655.733 1274.4 658.902 1278.65 660.762C1273.77 667.516 1283.55 671.312 1290.14 669.694C1305.6 665.884 1327.12 649.508 1334.87 633.884C1335.23 633.153 1334.56 632.149 1333.85 632.625C1333.64 632.763 1333.47 632.938 1333.27 633.073C1333.04 632.405 1332.54 631.84 1331.75 631.733C1316.01 629.523 1292.12 622.253 1276.97 630.648C1270.62 634.171 1271.9 639.495 1275.68 643.457C1272.23 644.246 1269.07 645.815 1269.39 650.337Z" fill="#DE73B3"/>
<path d="M1321.53 576.103C1320.63 572.54 1317.79 561.291 1312.56 562.219C1311.31 562.438 1308.48 565.36 1308.82 565.683C1308.61 565.58 1306.87 562.622 1305.83 561.878C1301.9 559.068 1298.77 561.434 1296.64 565.638C1295.65 567.579 1293.26 575.225 1293.14 575.745C1286.49 577.107 1286.16 581.567 1286.86 588.352C1288.99 609.207 1310.46 627.596 1328.26 628.622C1328.55 628.64 1328.82 628.443 1328.98 628.178C1329.26 628.156 1329.55 628.129 1329.84 628.107C1330.54 628.048 1330.84 627.269 1330.68 626.583C1326.86 609.991 1325.68 592.512 1321.53 576.103Z" fill="#DE73B3"/>
<path d="M1337.18 638.559C1336.31 637.138 1334.73 637.788 1334.25 638.998C1333.91 639.123 1333.63 639.401 1333.49 639.867C1329.71 652.591 1318.61 660.99 1311.38 671.24C1308.35 675.529 1303.4 683.005 1307.69 688.509C1308.99 690.158 1311.89 689.836 1312.71 690.866C1313.41 691.749 1312.34 694.761 1312.86 697.648C1314.02 704.222 1321.18 702.156 1321.1 702.103C1321.66 702.439 1322.19 707.655 1328 709.072C1332.51 710.17 1336.7 706.643 1339.18 702.591C1344.36 694.17 1344.34 680.787 1344.36 670.918C1344.38 659.641 1342.97 647.984 1337.18 638.559Z" fill="#DE73B3"/>
<path d="M1331.23 623.087C1327.65 624.656 1326.13 628.824 1325.62 630.948C1324.64 635.045 1325.88 639.334 1328.57 642.247C1331.35 645.254 1335.72 646.617 1339.29 644.708C1342.63 642.906 1344.98 638.751 1345.48 634.664C1346.53 625.996 1339.03 619.69 1331.23 623.087Z" fill="#F5C16E"/>
<path d="M1350.97 566.647C1350.9 566.476 1350.76 566.369 1350.6 566.382C1347.16 566.642 1345.85 572.307 1344.47 575.328C1342.2 580.298 1340.22 585.103 1339.17 590.58C1338.94 591.772 1340.34 592.063 1340.84 591.18C1343.4 586.613 1345.31 581.746 1347.52 576.959C1348.87 574.037 1352.31 569.963 1350.97 566.647Z" fill="#A64780"/>
<path d="M1362.37 574.849C1359 576.512 1356.39 580.756 1354.09 583.889C1352.26 586.389 1348.44 590.513 1349.01 594.013C1349.06 594.372 1349.33 594.721 1349.69 594.654C1352.72 594.08 1354.7 589.589 1356.54 587.084C1358.91 583.857 1362.52 580.729 1364.03 576.897C1364.48 575.767 1363.48 574.306 1362.37 574.849Z" fill="#A64780"/>
<path d="M1387.41 603.215C1384.3 602.368 1381.02 603.479 1377.97 604.304C1374.93 605.124 1371.89 605.832 1370.03 608.898C1369.93 609.073 1369.99 609.283 1370.17 609.337C1373.34 610.278 1376.29 608.911 1379.39 608.163C1382.27 607.468 1385.32 607.195 1387.82 605.321C1388.61 604.734 1388.25 603.443 1387.41 603.215Z" fill="#A64780"/>
<path d="M1393.02 619.349C1389.12 616.987 1384.09 617.337 1379.77 617.686C1375.6 618.027 1370.67 618.139 1367.02 620.6C1366.78 620.761 1366.91 621.12 1367.14 621.191C1370.98 622.388 1375.18 621.187 1379.14 621.084C1383.65 620.972 1388.18 622.186 1392.64 621.792C1393.8 621.689 1393.97 619.927 1393.02 619.349Z" fill="#A64780"/>
<path d="M1380.27 662.586C1378.55 660.035 1376.28 658.565 1374.09 656.647C1373.73 656.329 1373.22 656.822 1373.49 657.257C1374.92 659.538 1376 662.263 1377.15 664.728C1378.21 666.969 1378.8 669.362 1380.4 671.186C1381.14 672.025 1382.22 671.281 1382.45 670.348C1383.16 667.556 1381.75 664.777 1380.27 662.586Z" fill="#A64780"/>
<path d="M1331.97 682.073C1330.87 683.79 1329.87 685.573 1328.86 687.366C1327.83 689.194 1326.51 690.817 1325.99 692.928C1325.7 694.125 1327.09 694.949 1327.9 694.304C1329.47 693.053 1330.3 690.974 1331.15 689.078C1332.08 687.03 1332.76 684.95 1333.16 682.696C1333.29 681.979 1332.38 681.445 1331.97 682.073Z" fill="#A64780"/>
<path d="M1303.67 635.206C1299.82 635.475 1296.01 637.111 1292.25 638.039C1288.92 638.859 1285.14 638.93 1282.09 640.665C1281.64 640.925 1281.42 641.839 1282.03 642.086C1285.54 643.457 1289.76 642.556 1293.37 641.92C1297.18 641.234 1301.31 640.427 1304.62 638.133C1305.89 637.254 1305.01 635.112 1303.67 635.206Z" fill="#A64780"/>
<path d="M1301.66 649.683C1299.44 649.992 1297.47 651.507 1295.42 652.448C1293.33 653.416 1291.02 654.572 1288.83 655.182C1288.52 655.271 1288.61 655.782 1288.89 655.845C1293.31 656.889 1299.89 657.315 1303.06 652.712C1303.89 651.493 1303.13 649.476 1301.66 649.683Z" fill="#A64780"/>
<path d="M1302.43 588.281C1301.42 585.874 1300.65 583.118 1298.88 581.276C1298.61 580.993 1298.04 581.083 1297.91 581.513C1296.25 586.995 1299.83 595.492 1303.52 599.037C1304.69 600.176 1306.09 598.724 1305.78 597.249C1305.1 594.085 1303.66 591.212 1302.43 588.281Z" fill="#A64780"/>
<path d="M1308.32 411.445C1301.27 466.083 1284.01 516.262 1259.55 563.917C1234.49 612.765 1203.8 657.45 1175.02 703.487C1146.86 748.543 1121.32 795.28 1102.15 846.14C1082.6 898.009 1070.63 952.289 1060.16 1007.26C1047.53 1073.6 1035.4 1140.08 1022.27 1206.29C1021.78 1208.72 1025.2 1209.42 1025.65 1206.97C1036.34 1147.57 1047.88 1088.36 1059.07 1029.09C1070.03 970.992 1081.14 913.144 1101.04 857.955C1120.42 804.208 1146.67 754.908 1176.19 707.57C1203.64 663.545 1232.88 620.819 1257.46 574.598C1283.7 525.279 1306.32 469.937 1310.6 411.893C1310.72 410.248 1308.55 409.755 1308.32 411.445Z" fill="#3A6651"/>
<path d="M1373.82 378.74C1376.33 376.24 1377.05 372.529 1374.44 368.679C1373.06 366.649 1370.7 365.64 1368.59 365.143C1366.54 364.659 1364.97 365.389 1363.02 365.228C1357.47 364.762 1359.45 363.18 1355.88 362.126C1339.23 357.214 1321.77 387.148 1319.76 403.987C1319.43 404.489 1319.39 405.139 1319.57 405.712C1319.56 405.73 1319.56 405.748 1319.56 405.766C1319.53 406.295 1319.83 406.559 1320.18 406.609C1320.5 406.837 1320.92 406.972 1321.44 406.869C1331.01 404.986 1340.65 403.767 1350.26 402.167C1357.12 401.029 1366.41 400.814 1372.35 396.175C1378.8 391.142 1379.22 383.473 1373.82 378.74Z" fill="#A64780"/>
<path d="M1269.24 338.381C1264.8 340.393 1263.51 346.341 1263.21 351.482C1256.04 348.232 1255.76 359.925 1259.09 366.536C1266.92 382.079 1287.18 400.397 1302.69 404.094C1303.41 404.264 1304.06 403.243 1303.45 402.615C1303.28 402.44 1303.07 402.301 1302.9 402.131C1303.39 401.674 1303.72 400.979 1303.58 400.087C1300.74 382.451 1299.75 354.507 1288.14 340.68C1283.27 334.881 1279.15 337.852 1276.93 343.118C1275.24 339.627 1272.97 336.687 1269.24 338.381Z" fill="#A64780"/>
<path d="M1339.76 364.179C1341.53 361.055 1347.11 351.204 1343.03 347.39C1342.06 346.48 1338.25 346.009 1338.26 346.516C1338.19 346.269 1339 342.836 1338.81 341.465C1338.07 336.27 1334.43 335.19 1330.23 336.162C1328.29 336.606 1321.64 339.645 1321.21 339.887C1315.91 335.154 1312.73 337.83 1308.69 342.912C1296.27 358.518 1298.27 388.874 1309.38 404.632C1309.55 404.887 1309.86 404.986 1310.14 404.946C1310.34 405.174 1310.55 405.398 1310.76 405.627C1311.26 406.183 1311.98 405.923 1312.34 405.335C1320.81 391.123 1331.62 378.552 1339.76 364.179Z" fill="#A64780"/>
<path d="M1171.52 702.779C1151.86 737.083 1138.27 777.707 1126.28 816.09C1114.45 853.934 1105.18 892.797 1098.45 932.206C1083.91 1017.35 1085.66 1102.56 1086.12 1188.82C1086.13 1191.61 1089.95 1191.19 1089.94 1188.41C1089.58 1103.45 1088.46 1019.12 1102.55 935.276C1109.35 894.831 1118.86 854.979 1130.88 816.121C1142.84 777.492 1159.23 741.601 1173.24 704.034C1173.67 702.882 1172.18 701.609 1171.52 702.779Z" fill="#3A6651"/>
<path d="M1113.95 667.977C1110.79 666.74 1107.58 667.861 1105.9 672.329C1105.02 674.682 1105.4 677.497 1106.06 679.818C1106.7 682.073 1108.04 683.256 1108.87 685.255C1111.25 690.942 1109.06 689.773 1110 693.806C1114.43 712.599 1146.08 715.01 1160.03 708.682C1160.58 708.767 1161.11 708.484 1161.46 708.027C1161.48 708.018 1161.49 708.014 1161.5 708.005C1161.93 707.772 1161.98 707.351 1161.84 706.979C1161.87 706.544 1161.76 706.078 1161.42 705.611C1155.26 697.127 1149.57 688.249 1143.6 679.59C1139.35 673.409 1134.6 664.387 1128.11 660.829C1121.05 656.961 1114.94 660.331 1113.95 667.977Z" fill="#A64780"/>
<path d="M1222.85 663.948C1224.94 660.986 1225.07 657.19 1221.89 653.922C1220.22 652.192 1217.74 651.672 1215.59 651.605C1213.49 651.538 1212.06 652.569 1210.11 652.797C1204.57 653.447 1206.28 651.493 1202.6 651.17C1185.45 649.651 1172.93 682.602 1173.59 699.57C1173.33 700.13 1173.4 700.785 1173.66 701.309C1173.66 701.327 1173.66 701.345 1173.67 701.363C1173.72 701.892 1174.06 702.089 1174.41 702.066C1174.76 702.237 1175.19 702.277 1175.69 702.071C1184.82 698.315 1194.12 695.191 1203.33 691.704C1209.9 689.217 1219 687.146 1224.13 681.405C1229.7 675.162 1228.91 667.529 1222.85 663.948Z" fill="#A64780"/>
<path d="M1159.42 628.349C1154.64 628.129 1151.3 632.961 1149.16 637.496C1143.8 631.217 1139.3 641.745 1139.94 649.324C1141.44 667.13 1153.26 693.228 1166.06 703.788C1166.66 704.281 1167.62 703.644 1167.29 702.788C1167.2 702.551 1167.06 702.331 1166.97 702.094C1167.58 701.905 1168.13 701.426 1168.32 700.547C1172.15 683.153 1181.38 657.208 1175.81 639.208C1173.48 631.661 1168.64 632.468 1164.71 636.237C1164.43 632.271 1163.43 628.537 1159.42 628.349Z" fill="#A64780"/>
<path d="M1180.65 783.896C1185.44 783.901 1188.59 778.926 1190.57 774.292C1196.15 780.32 1200.27 769.599 1199.36 762.056C1197.23 744.33 1184.49 718.797 1171.31 708.821C1170.7 708.363 1169.76 709.036 1170.13 709.883C1170.23 710.116 1170.37 710.326 1170.47 710.559C1169.87 710.775 1169.34 711.281 1169.17 712.164C1165.98 729.724 1157.67 756.068 1163.88 773.794C1166.48 781.234 1171.29 780.203 1175.08 776.259C1175.5 780.212 1176.63 783.896 1180.65 783.896Z" fill="#A64780"/>
<path d="M1119.29 719.281C1116.08 720.012 1105.93 722.325 1106.34 728.285C1106.43 729.706 1108.78 733.13 1109.1 732.767C1108.99 732.996 1106.24 734.726 1105.5 735.842C1102.71 740.046 1104.55 743.752 1108.09 746.491C1109.72 747.755 1116.28 751.058 1116.73 751.232C1117.4 758.825 1121.31 759.555 1127.36 759.309C1145.92 758.551 1163.84 735.828 1166.15 715.853C1166.19 715.53 1166.04 715.207 1165.82 715.015C1165.82 714.692 1165.82 714.365 1165.83 714.038C1165.83 713.249 1165.16 712.836 1164.54 712.962C1149.61 715.951 1134.09 715.897 1119.29 719.281Z" fill="#A64780"/>
<path d="M1175.63 706.589C1174.3 707.463 1174.75 709.296 1175.78 709.928C1175.87 710.318 1176.09 710.658 1176.48 710.851C1187.41 716.126 1193.95 729.298 1202.41 738.253C1205.96 742.004 1212.16 748.176 1217.35 743.761C1218.91 742.439 1218.85 739.145 1219.83 738.298C1220.66 737.576 1223.24 739.024 1225.83 738.67C1231.71 737.877 1230.46 729.648 1230.41 729.742C1230.75 729.133 1235.39 728.949 1237.1 722.517C1238.43 717.524 1235.64 712.523 1232.27 709.403C1225.25 702.914 1213.45 701.865 1204.74 701.063C1194.79 700.148 1184.4 700.816 1175.63 706.589Z" fill="#A64780"/>
<path d="M1164.51 697.244C1160.77 698.875 1159.2 703.205 1158.67 705.419C1157.65 709.677 1158.94 714.136 1161.73 717.161C1164.62 720.281 1169.17 721.702 1172.87 719.712C1176.35 717.847 1178.79 713.526 1179.31 709.278C1180.4 700.269 1172.61 693.712 1164.51 697.244Z" fill="#F5C16E"/>
<path d="M1115.08 391.792C1115.67 389.806 1113.15 388.327 1112.41 390.357C1078.69 482.513 1074.89 587.635 1072.74 686.03C1070.35 795.701 1070.84 905.462 1074.07 1015.1C1075.9 1077.53 1076.96 1140.8 1082.79 1202.93C1082.98 1204.96 1085.61 1204.64 1085.56 1202.63C1084.34 1148.94 1080.35 1095.26 1078.61 1041.56C1076.87 987.852 1075.7 934.119 1075.24 880.373C1074.34 774.336 1073.02 666.763 1082.41 561.139C1087.59 502.937 1098.48 447.169 1115.08 391.792Z" fill="#3A6651"/>
<path d="M1044.42 380.618C1041.08 380.892 1038.53 383.357 1038.55 388.21C1038.56 390.77 1039.9 393.181 1041.32 395.023C1042.69 396.807 1044.34 397.291 1045.8 398.761C1049.98 402.92 1047.55 402.826 1049.83 406.102C1060.47 421.385 1090.39 409.454 1100.99 397.407C1101.53 397.237 1101.91 396.739 1102.07 396.166C1102.09 396.152 1102.09 396.144 1102.11 396.13C1102.41 395.727 1102.32 395.314 1102.06 395.036C1101.93 394.628 1101.67 394.243 1101.2 393.965C1092.56 388.928 1084.23 383.316 1075.72 378.032C1069.65 374.258 1062.13 368.092 1054.92 367.728C1047.08 367.33 1042.65 373.16 1044.42 380.618Z" fill="#DE73B3"/>
<path d="M1159.48 453.121C1162.26 455.237 1165.62 455.08 1168.25 451.248C1169.64 449.222 1169.9 446.394 1169.79 443.96C1169.69 441.594 1168.66 440.061 1168.31 437.888C1167.29 431.703 1169.15 433.468 1169.15 429.3C1169.13 409.849 1139.08 398.362 1124.16 400.446C1123.64 400.204 1123.07 400.325 1122.63 400.666C1122.61 400.67 1122.59 400.67 1122.58 400.675C1122.12 400.778 1121.97 401.168 1122.02 401.567C1121.9 401.974 1121.9 402.463 1122.11 403.01C1126.15 412.995 1129.65 423.223 1133.45 433.325C1136.16 440.523 1138.71 450.621 1144.18 455.936C1150.13 461.718 1156.8 460.225 1159.48 453.121Z" fill="#DE73B3"/>
<path d="M1084.51 318.917C1079.79 319.791 1077.39 325.281 1076.1 330.22C1069.73 325.285 1067.21 336.625 1069.19 343.899C1073.83 360.997 1090.07 383.859 1104.5 391.29C1105.17 391.635 1106 390.788 1105.52 390.026C1105.39 389.815 1105.22 389.631 1105.08 389.421C1105.65 389.098 1106.1 388.502 1106.14 387.592C1106.77 369.683 1111.18 342.168 1102.51 325.81C1098.88 318.952 1094.29 320.848 1091.11 325.433C1090.13 321.615 1088.48 318.182 1084.51 318.917Z" fill="#DE73B3"/>
<path d="M1143.38 321.637C1139.47 318.517 1134.35 320.525 1130.37 323.026C1128.89 314.466 1120.05 320.543 1116.94 327.298C1109.65 343.172 1107.04 372.34 1112.72 389.071C1112.98 389.842 1114.1 389.905 1114.23 388.981C1114.26 388.717 1114.26 388.457 1114.29 388.197C1114.89 388.417 1115.59 388.349 1116.18 387.735C1127.74 375.464 1147.96 359.347 1151.93 340.815C1153.59 333.043 1149.15 330.753 1144.04 331.506C1145.71 328.01 1146.66 324.254 1143.38 321.637Z" fill="#DE73B3"/>
<path d="M1165.66 402.723C1168.93 402.988 1179.26 403.821 1180.28 397.954C1180.52 396.556 1179.06 392.549 1178.68 392.805C1178.84 392.616 1181.89 391.778 1182.86 390.931C1186.55 387.718 1185.65 383.586 1182.89 379.884C1181.61 378.172 1176.07 373.013 1175.68 372.708C1176.83 365.187 1173.23 363.305 1167.35 361.719C1149.28 356.847 1126.64 373.336 1119.69 391.886C1119.58 392.186 1119.65 392.545 1119.82 392.8C1119.74 393.11 1119.66 393.423 1119.58 393.737C1119.39 394.499 1119.94 395.091 1120.56 395.162C1135.66 396.78 1150.6 401.518 1165.66 402.723Z" fill="#DE73B3"/>
<path d="M1119.35 384.809C1111.73 381.125 1102.2 383.294 1098.47 391.949C1095.16 399.599 1096.26 407.949 1103.06 411.274C1103.08 411.283 1103.08 411.306 1103.1 411.315C1103.34 411.436 1103.64 411.494 1103.88 411.597C1104.42 411.817 1104.9 412.077 1105.49 412.229C1105.53 412.243 1105.56 412.211 1105.61 412.215C1112.43 413.972 1122.73 411.53 1126.38 405.161C1130.8 397.439 1126.12 388.081 1119.35 384.809Z" fill="#3A6651"/>
<path d="M998.735 789.629C1003.9 792.197 1014.96 795.849 1014.94 786.021C1014.9 773.171 998.231 764.682 989.788 760.886C983.589 758.099 976.886 756.068 970.077 755.091C981.368 753.317 992.893 754.016 1004.23 751.896C1010.36 750.748 1027.25 745.975 1024.38 734.986C1021.19 722.799 1001.66 728.438 994.824 730.853C982.982 735.035 971.885 742.166 962.319 751.143C973.003 737.567 987.261 728.63 998.16 715.207C1002.17 710.273 1012.03 696.764 1002.09 692.82C992.5 689.02 978.968 702.488 973.313 709.654C967.804 716.637 962.89 725.704 959.329 735.21C959.352 733.565 959.357 731.924 959.44 730.271C959.444 730.235 959.412 730.217 959.408 730.177C962.97 706.338 964.683 675.664 950.623 678.021C942.037 679.464 941.046 698.969 940.974 706.122C940.899 714.028 942.001 722.208 943.818 730.212C940.962 725.121 937.714 720.375 934.482 716.234C929.806 710.232 917.19 693.434 908.719 701.878C894.854 715.696 929.128 741.023 948.64 751.855C948.648 751.873 948.652 751.887 948.66 751.9C937.052 746.002 921.91 744.769 909.73 746.114C901.346 747.037 888.488 752.16 889.016 764.077C889.555 776.259 900.862 774.57 908.231 772.683C921.16 769.38 934.914 763.97 947.332 757.471C947.32 757.852 947.407 758.229 947.593 758.556C934.716 767.3 920.688 777.541 911.86 790.96C907.779 797.162 901.429 811.755 908.219 818.617C918.443 828.948 934.014 801.237 944.393 778.276C943.746 780.481 943.116 782.668 942.469 784.82C939.979 793.124 936.877 801.783 936.132 810.572C935.549 817.425 938.84 835.801 948.343 829.342C958.662 822.319 961.066 801.546 961.47 789.566C961.728 781.96 961.343 774.404 960.828 766.861C961.696 767.389 962.549 767.932 963.402 768.474C965.797 773.624 968.062 778.841 969.93 784.349C972.789 792.775 973.856 801.998 977.053 810.241C979.805 817.335 988.181 827.72 993.849 817.228C999.096 807.507 991.763 791.959 986.603 784.161C985.012 781.763 983.244 779.495 981.348 777.348C986.892 781.861 992.576 786.567 998.735 789.629Z" fill="#F5E4D5"/>
<path d="M960.236 734.358C954.363 732.789 949.136 736.671 946.812 738.916C942.338 743.241 940.577 750.027 941.779 756.485C943.02 763.15 947.613 769.294 953.724 770.388C959.467 771.41 965.757 768.375 969.6 763.584C977.754 753.415 972.991 737.755 960.236 734.358Z" fill="#F5C16E"/>
<path d="M1231.18 427.844C1192.2 524.119 1157.03 623.253 1123.89 722.266C1091.37 819.415 1062.62 918.428 1042.85 1019.95C1031.59 1077.79 1022.84 1136.6 1019.1 1195.7C1018.95 1198 1022.07 1198.69 1022.28 1196.34C1031.43 1093.07 1049.66 992.056 1076.11 892.676C1103.16 790.955 1137.21 691.812 1173.06 593.704C1193.11 538.837 1214.87 484.642 1233.97 429.345C1234.69 427.27 1232.01 425.782 1231.18 427.844Z" fill="#3A6651"/>
<path d="M1261.51 424.55C1259.38 417.594 1248.62 420.346 1240.47 423.438C1245.07 419.212 1250.25 412.619 1244.28 409.612C1237.62 406.264 1230.46 417.329 1224.78 423.492C1226.62 417.253 1229.55 404.928 1223.23 405.995C1215.45 407.313 1217.08 426.522 1218.64 431.725C1218.93 432.693 1220.05 432.662 1220.49 431.922C1221.31 432.393 1222.35 432.42 1223.22 431.882C1226.87 429.623 1229.41 426.513 1232.09 423.107C1231.25 424.985 1230.67 427.082 1230.65 429.677C1230.64 431.326 1232.53 432.595 1233.81 431.922C1237.62 429.928 1241.93 427.956 1246.26 426.916C1242.82 429.184 1240.05 432.559 1240.65 435.898C1240.86 437.032 1241.48 438.04 1242.56 438.233C1247.64 439.143 1264 432.707 1261.51 424.55Z" fill="#1F2844"/>
<path d="M1277.16 453.153C1280.75 451.293 1286.49 446.488 1281.34 442.464C1279 440.64 1275.32 440.38 1271.36 440.877C1275.2 437.879 1277.42 434.284 1274.49 430.587C1269.33 424.093 1255.68 429.027 1244.77 434.298C1249.9 429.628 1254.38 424.021 1257.86 418.051C1258.36 417.19 1258.12 415.841 1257.17 415.505C1247.99 412.22 1240.05 416.576 1233.03 422.977C1238.86 413.157 1243.36 402.925 1236.9 402.736C1231.14 402.566 1225.63 412.238 1222.97 416.684C1221.29 419.481 1219.22 422.927 1217.66 426.562C1217.25 424.079 1216.73 421.605 1216.03 419.122C1214.76 414.636 1212.74 403.857 1207.58 402.934C1199.94 401.562 1202.88 413.282 1206.32 422.201C1203.71 419.346 1200.96 416.818 1196.92 416.321C1194.35 415.998 1190.01 416.007 1189.4 419.628C1188.57 424.473 1194.34 429.601 1197.34 431.855C1200.86 434.495 1204.72 436.391 1208.71 437.798C1205.51 438.515 1202.37 439.949 1199.71 441.617C1197.61 442.939 1193.79 446.385 1196.98 449.034C1198.57 450.356 1201.49 449.464 1203.23 449.249C1207.36 448.747 1211.48 448.057 1215.56 447.183C1216.63 446.959 1218.28 446.793 1220 446.502C1218.06 450.419 1216.87 454.968 1219.16 457.706C1222.51 461.7 1227.03 454.892 1229.75 449.814C1233.96 459.844 1244.21 474.648 1253.8 470.327C1259.84 467.611 1254.25 459.647 1248.41 453.955C1257.75 456.012 1268.56 457.603 1277.16 453.153Z" fill="#6965D0"/>
<path d="M1299.62 399.577C1297.78 395.131 1295.1 391.303 1292.79 387.166C1290.58 383.213 1288.86 378.247 1285.9 374.976C1285.36 374.38 1284.43 375.003 1284.51 375.796C1284.95 380.296 1287.67 384.76 1289.68 388.6C1292.01 393.038 1294.45 397.533 1297.97 400.872C1298.72 401.584 1300.07 400.675 1299.62 399.577Z" fill="#803762"/>
<path d="M1315.77 377.826C1315.74 377.512 1315.36 377.342 1315.18 377.615C1312.77 381.053 1311.9 385.597 1310.89 389.766C1309.74 394.512 1308.3 399.496 1308.36 404.444C1308.38 405.878 1310.21 406.088 1310.71 404.914C1312.52 400.733 1313.13 395.892 1314.05 391.379C1314.96 386.978 1316.3 382.37 1315.77 377.826Z" fill="#803762"/>
<path d="M1339.87 392.531C1336.25 393.028 1333.12 394.431 1329.83 396.157C1327.04 397.618 1323.73 398.98 1321.76 401.75C1321.43 402.207 1321.6 403.113 1322.21 403.157C1325.36 403.382 1328.34 401.701 1331.21 400.361C1334.59 398.779 1337.69 397.134 1340.49 394.449C1341.16 393.813 1340.87 392.397 1339.87 392.531Z" fill="#803762"/>
<path d="M1321.42 406.075C1318.71 404.484 1307.36 402.356 1304.39 401.733C1301.16 401.051 1300.55 400.513 1300.3 401.988C1299.57 406.461 1299.67 412.623 1301.4 416.85C1302.74 420.144 1305.76 421.179 1308.69 421.901C1317.91 424.178 1319.74 414.613 1321.63 406.546C1321.67 406.358 1321.56 406.161 1321.42 406.075Z" fill="#3A6651"/>
<path d="M1157.23 531.473C1154.47 531.473 1154.88 536.327 1157.64 536.327C1160.42 536.327 1160 531.473 1157.23 531.473Z" fill="#F5E4D5"/>
<path d="M1149.63 538.384C1146.86 538.384 1147.27 543.238 1150.03 543.238C1152.81 543.238 1152.39 538.384 1149.63 538.384Z" fill="#F5E4D5"/>
<path d="M1156.7 547.137C1153.92 547.137 1154.34 551.991 1157.1 551.991C1159.87 551.991 1159.46 547.137 1156.7 547.137Z" fill="#F5E4D5"/>
<path d="M1163.63 539.769C1160.85 539.769 1161.27 544.623 1164.03 544.623C1166.8 544.623 1166.39 539.769 1163.63 539.769Z" fill="#F5E4D5"/>
<path d="M958.719 743.591C955.947 743.591 956.363 748.449 959.127 748.449C961.895 748.449 961.479 743.591 958.719 743.591Z" fill="#F5E4D5"/>
<path d="M951.105 750.502C948.333 750.502 948.75 755.36 951.514 755.36C954.282 755.36 953.866 750.502 951.105 750.502Z" fill="#F5E4D5"/>
<path d="M958.173 759.255C955.401 759.255 955.817 764.109 958.578 764.109C961.35 764.109 960.933 759.255 958.173 759.255Z" fill="#F5E4D5"/>
<path d="M965.102 751.887C962.33 751.887 962.75 756.741 965.511 756.741C968.283 756.741 967.866 751.887 965.102 751.887Z" fill="#F5E4D5"/>
<path d="M1165.03 484.907C1164.6 483.383 1162.82 483.863 1162.5 485.167C1162 487.219 1162.63 489.537 1162.64 491.647C1162.65 494.413 1162.16 497.169 1161.99 499.926C1161.92 501.019 1163.18 502.014 1163.89 500.929C1167.02 496.147 1166.53 490.298 1165.03 484.907Z" fill="#F5AE9D"/>
<path d="M1124.51 582.02C1123.1 582.947 1122.24 584.794 1121.12 586.12C1119.92 587.564 1118.62 588.85 1117.21 590.024C1116.74 590.41 1116.85 591.4 1117.49 591.481C1121.51 591.969 1127.48 588.792 1127.3 583.476C1127.25 581.849 1125.58 581.307 1124.51 582.02Z" fill="#F5AE9D"/>
<path d="M923.154 792.416C920.861 793.514 919.287 796.316 917.847 798.521C916.411 800.721 914.528 803.218 914.091 805.965C913.846 807.52 915.388 808.484 916.499 807.704C918.545 806.261 919.961 803.496 921.448 801.394C922.916 799.305 924.875 797.234 925.486 794.617C925.819 793.178 924.32 791.861 923.154 792.416Z" fill="#F5AE9D"/>
<path d="M994.804 700.072C992.884 700.758 991.488 702.465 990.049 703.989C988.732 705.379 987.407 706.84 986.868 708.812C986.765 709.197 987.141 709.569 987.459 709.529C989.279 709.318 990.873 708.005 992.321 706.808C993.935 705.477 995.581 704.24 996.545 702.223C997.156 700.946 995.894 699.678 994.804 700.072Z" fill="#F5AE9D"/>
<path d="M1150 435.942C1148.96 433.625 1147.54 430.412 1145.25 429.484C1144.66 429.247 1144.04 429.654 1144.08 430.403C1144.22 432.984 1145.98 435.423 1146.89 437.744C1147.87 440.245 1148.34 443.109 1149.7 445.399C1150.33 446.466 1152.01 446.116 1152.15 444.781C1152.48 441.702 1151.22 438.641 1150 435.942Z" fill="#A64780"/>
<path d="M1071.37 390.761C1068.78 389.699 1066.03 389.358 1063.45 388.278C1061.13 387.305 1059.04 385.562 1056.7 384.751C1056.47 384.67 1056.34 384.975 1056.38 385.185C1057.67 391.397 1066.33 395.368 1071.28 393.168C1072.13 392.787 1072.35 391.164 1071.37 390.761Z" fill="#A64780"/>
<path d="M1068.31 401.715C1066.47 401.638 1064.65 401.786 1062.79 401.67C1061.06 401.567 1059.39 401.087 1057.68 400.912C1057.24 400.868 1056.91 401.374 1057.17 401.809C1059.6 405.878 1065.55 406.851 1069.08 404.081C1070.12 403.265 1069.38 401.759 1068.31 401.715Z" fill="#A64780"/>
<path d="M1128.74 333.137C1127.03 334.455 1125.91 336.741 1124.95 338.762C1123.93 340.914 1122.72 343.257 1122.73 345.745C1122.73 347.089 1124.41 347.565 1125.12 346.597C1126.4 344.808 1126.86 342.307 1127.62 340.196C1128.37 338.144 1129.4 336.006 1129.64 333.787C1129.7 333.227 1129.17 332.806 1128.74 333.137Z" fill="#A64780"/>
<path d="M1167.65 372.789C1165.63 369.176 1160.61 370.66 1157.87 372.134C1157.2 372.493 1157.44 373.479 1158.15 373.51C1159.68 373.573 1161.28 374.097 1162.76 374.519C1164.07 374.9 1165.28 375.63 1166.63 375.285C1167.67 375.03 1168.27 373.887 1167.65 372.789Z" fill="#A64780"/>
<path d="M1172.62 381.55C1169.23 379.148 1164.33 380.578 1160.89 382.043C1160.34 382.281 1160.42 383.213 1161 383.334C1164.58 384.101 1168.87 385.714 1172.5 384.589C1173.85 384.172 1173.56 382.223 1172.62 381.55Z" fill="#A64780"/>
</g>
</svg>
