<svg xmlns="http://www.w3.org/2000/svg" width="152" height="175" fill="none" viewBox="0 0 152 175"><rect width="97.28" height="56.3" fill="#A93FA0" rx="8" transform="matrix(.98 .2 -.2 .98 56.24 0)"/><path fill="#fff" d="m71.43 46.58-4.44-.9 3.63-17.88a67.8 67.8 0 0 1 1.19-5.04c-.35.25-.78.5-1.28.79-.5.28-2.14 1.15-4.95 2.62l-1.66-3.28 9.44-4.74 3.7.76-5.63 27.67ZM99.25 52.25 80.5 48.43l.68-3.37 8.6-5.72a61.4 61.4 0 0 0 5.1-3.73 11.2 11.2 0 0 0 2.03-2.24c.48-.74.81-1.56 1-2.46a3.96 3.96 0 0 0-.54-3.19 4.36 4.36 0 0 0-2.88-1.71 8.53 8.53 0 0 0-3.2-.04c-1.06.19-2.35.66-3.85 1.42l-1.8-3.42a15.8 15.8 0 0 1 5.04-1.85c1.56-.25 3.16-.2 4.8.13 2.57.52 4.49 1.62 5.77 3.28a6.93 6.93 0 0 1 1.22 5.9 9.62 9.62 0 0 1-1.4 3.41 14.52 14.52 0 0 1-2.77 3.07c-1.17 1-3.03 2.29-5.6 3.88l-5.75 3.68-.04.19 13.12 2.67-.8 3.92ZM110.15 34.29a12.32 12.32 0 0 0-.3 4.31c.17 1 .68 1.58 1.5 1.75 1.67.34 2.88-1.35 3.64-5.08.76-3.72.3-5.75-1.36-6.09-.83-.17-1.52.17-2.08 1.02-.55.84-1.02 2.2-1.4 4.09Zm8.52 1.7c-.6 2.9-1.56 4.97-2.9 6.22-1.34 1.25-3.02 1.66-5.05 1.24a5.25 5.25 0 0 1-4-3.16c-.74-1.73-.82-4-.25-6.8 1.17-5.76 3.77-8.23 7.8-7.41a5.35 5.35 0 0 1 4.09 3.18c.77 1.7.87 3.95.3 6.72ZM125.9 49a12.52 12.52 0 0 0-.31 4.34c.19 1 .7 1.6 1.53 1.77 1.65.33 2.86-1.37 3.62-5.12.75-3.7.3-5.71-1.35-6.05-.83-.17-1.53.16-2.1 1-.54.83-1 2.18-1.39 4.06Zm8.5 1.74c-.58 2.9-1.55 4.97-2.89 6.2a5.4 5.4 0 0 1-5.02 1.25 5.27 5.27 0 0 1-4-3.14c-.76-1.72-.85-3.98-.28-6.8 1.18-5.77 3.78-8.24 7.81-7.42 1.94.4 3.3 1.45 4.07 3.16.78 1.71.89 3.96.32 6.75Zm-1.67-20.5-20.97 24.56-3.67-.75 20.97-24.55 3.67.75Z"/><g filter="url(#a)"><rect width="82.08" height="51.74" fill="#A93FA0" rx="8" transform="matrix(.98 -.19 .19 .98 45.6 99.2)"/><g fill="#fff" opacity=".6"><path d="M74.29 109.3c2.22-.44 4.08-.27 5.57.51 1.5.77 2.4 2 2.73 3.72.47 2.4-.6 4.6-3.22 6.58 2.02.57 3.5 1.28 4.47 2.15a5.55 5.55 0 0 1 1.83 3.18 5.83 5.83 0 0 1-1.23 5.06c-1.2 1.44-3.01 2.4-5.44 2.87-2.54.5-4.62.33-6.23-.5a5.64 5.64 0 0 1-3-4.22 6.1 6.1 0 0 1 .42-3.73 9.41 9.41 0 0 1 3.07-3.5 9.22 9.22 0 0 1-3.59-2.11 5.93 5.93 0 0 1-1.53-3.03 4.91 4.91 0 0 1 1.22-4.45c1.14-1.28 2.78-2.12 4.93-2.54Zm-.93 18.52a3.2 3.2 0 0 0 1.67 2.37c.9.46 2.02.56 3.35.3a4.97 4.97 0 0 0 3.03-1.56c.64-.8.86-1.74.65-2.83a3.38 3.38 0 0 0-1.52-2.17 10.17 10.17 0 0 0-3.59-1.37l-.5-.12a8.35 8.35 0 0 0-2.65 2.65 3.93 3.93 0 0 0-.44 2.73Zm1.46-15.62c-1.07.21-1.88.64-2.43 1.3a2.66 2.66 0 0 0-.56 2.34c.1.56.32 1.04.64 1.43.32.4.74.73 1.26 1s1.36.55 2.52.85a7.69 7.69 0 0 0 2.37-2.3c.41-.74.54-1.53.38-2.36a2.64 2.64 0 0 0-1.41-1.96c-.76-.4-1.68-.5-2.77-.3ZM89.57 113.94c.31 1.6.7 2.75 1.16 3.48.46.72 1.04 1.01 1.74.87 1.42-.27 1.82-1.98 1.2-5.14-.6-3.16-1.61-4.6-3.02-4.33-.7.14-1.14.63-1.3 1.47-.16.84-.09 2.06.22 3.65Zm7.21-1.42c.48 2.46.39 4.4-.26 5.8-.64 1.4-1.82 2.27-3.54 2.6-1.62.32-3-.07-4.15-1.17-1.13-1.11-1.93-2.86-2.39-5.23-.94-4.9.29-7.67 3.7-8.33a4.52 4.52 0 0 1 4.23 1.16c1.15 1.1 1.96 2.81 2.41 5.17Zm9.86 7.84c.31 1.6.7 2.76 1.16 3.5.47.72 1.06 1.02 1.77.88 1.4-.27 1.8-2 1.18-5.17-.6-3.14-1.61-4.57-3.01-4.3-.7.14-1.14.62-1.32 1.46-.16.83-.08 2.04.22 3.63Zm7.22-1.4c.47 2.47.39 4.4-.26 5.8a4.57 4.57 0 0 1-3.53 2.6c-1.62.31-3-.08-4.15-1.16-1.14-1.1-1.94-2.85-2.4-5.23-.95-4.9.3-7.67 3.71-8.33a4.53 4.53 0 0 1 4.2 1.15c1.16 1.09 1.97 2.81 2.43 5.18Zm-7.93-15.47-8.47 25.98-3.11.6 8.47-25.98 3.11-.6Z"/></g></g><defs><filter id="a" width="89.66" height="65.65" x="45.97" y="83.98" color-interpolation-filters="sRGB" filterUnits="userSpaceOnUse"><feFlood flood-opacity="0" result="BackgroundImageFix"/><feBlend in="SourceGraphic" in2="BackgroundImageFix" result="shape"/><feGaussianBlur result="effect1_foregroundBlur_4199_9532" stdDeviation=".5"/></filter></defs></svg>