<svg width="30" height="30" viewBox="0 0 30 30" fill="none" xmlns="http://www.w3.org/2000/svg">
<rect width="30" height="30" rx="15" fill="white"/>
<path d="M6.713 14.7714H8.50202V22.3C8.50202 22.6866 8.81542 23 9.20202 23H12.9842C13.3708 23 13.6842 22.6866 13.6842 22.3V18.656C13.6842 18.2694 13.9976 17.956 14.3842 17.956H15.5753C15.9619 17.956 16.2753 18.2694 16.2753 18.656V22.3C16.2753 22.6866 16.5887 23 16.9753 23H20.7575C21.1441 23 21.4575 22.6866 21.4575 22.3V14.7714H23.2771C23.9053 14.7714 24.2155 14.0079 23.7653 13.5698L15.6598 5.6815C15.2704 5.3026 14.6498 5.30385 14.262 5.68433L6.22276 13.5718C5.7753 14.0108 6.08614 14.7714 6.713 14.7714Z" fill="#BE48B4"/>
</svg>
