<svg xmlns="http://www.w3.org/2000/svg" width="141" height="71" fill="none" class="logo" viewBox="0 0 141 71">
  <path fill="#9B4BA0"
    d="m89.95 58.78-2.11.23a1.7 1.7 0 0 0-.9-1.06 2.14 2.14 0 0 0-.9-.17c-.5 0-.9.1-1.22.31-.33.21-.49.48-.48.81 0 .29.1.52.31.7.22.18.58.33 1.07.44l1.68.36c.93.2 1.62.52 2.07.95.46.44.69 1 .69 1.71 0 .62-.19 1.16-.54 1.64-.36.46-.85.83-1.48 1.1-.63.26-1.36.4-2.17.4-1.2 0-2.17-.26-2.9-.76a3.03 3.03 0 0 1-1.32-2.12l2.26-.22c.1.45.32.78.65 1 .34.23.77.35 1.3.35.55 0 1-.12 1.32-.34.34-.23.5-.5.5-.84 0-.28-.1-.51-.32-.7a2.27 2.27 0 0 0-1-.42l-1.67-.35a3.98 3.98 0 0 1-2.09-.99 2.44 2.44 0 0 1-.67-1.78c0-.6.16-1.13.5-1.57.33-.45.8-.8 1.4-1.04.6-.24 1.28-.37 2.07-.37 1.15 0 2.05.25 2.72.74a3.1 3.1 0 0 1 1.23 1.99Zm6.46 7.41c-.98 0-1.83-.2-2.55-.61-.7-.42-1.26-1-1.64-1.75a5.87 5.87 0 0 1-.57-2.68c0-1.01.19-1.9.57-2.66a4.35 4.35 0 0 1 4.07-2.44c.6 0 1.18.1 1.72.3.54.19 1.01.49 1.43.9.42.4.74.91.98 1.54.24.62.36 1.36.36 2.22v.71h-8.05v-1.56h5.83c0-.44-.1-.83-.29-1.18a2.1 2.1 0 0 0-.78-.82c-.33-.2-.72-.3-1.17-.3-.47 0-.88.11-1.24.34-.36.23-.64.53-.84.9-.2.36-.3.77-.3 1.2v1.37c0 .57.1 1.06.31 1.47.21.4.5.71.88.93.37.21.81.32 1.32.32.33 0 .64-.05.91-.14.27-.1.51-.24.71-.43.2-.19.35-.42.45-.7l2.16.25c-.13.57-.4 1.07-.78 1.5a3.8 3.8 0 0 1-1.45.98c-.6.23-1.27.34-2.04.34Zm10.61 0a4.32 4.32 0 0 1-4.14-2.43 5.9 5.9 0 0 1-.56-2.63c0-1 .19-1.88.57-2.64a4.3 4.3 0 0 1 1.63-1.79c.7-.43 1.53-.65 2.49-.65.8 0 1.5.15 2.11.45a3.62 3.62 0 0 1 2.1 3.08h-2.2c-.1-.47-.3-.86-.64-1.18a1.85 1.85 0 0 0-1.34-.48c-.47 0-.89.13-1.25.38-.36.26-.63.62-.83 1.1-.2.46-.3 1.03-.3 1.7 0 .66.1 1.24.3 1.72.2.47.47.84.82 1.1.36.26.78.39 1.26.39.34 0 .64-.07.91-.2.28-.13.5-.32.69-.56.18-.25.3-.55.38-.9h2.2a3.63 3.63 0 0 1-2.06 3.1c-.6.3-1.32.44-2.14.44Zm6.1-.19v-9.82h2.25v1.64h.1a2.45 2.45 0 0 1 2.42-1.78 5.33 5.33 0 0 1 .84.07v2.12a4.28 4.28 0 0 0-1.07-.13c-.43 0-.8.1-1.15.27a2.02 2.02 0 0 0-1.07 1.86V66h-2.31Zm11.08.2c-.98 0-1.83-.21-2.55-.62-.7-.42-1.25-1-1.64-1.75a5.87 5.87 0 0 1-.57-2.68c0-1.01.19-1.9.57-2.66a4.35 4.35 0 0 1 4.07-2.44c.6 0 1.18.1 1.72.3.54.19 1.02.49 1.43.9.42.4.74.91.98 1.54.24.62.36 1.36.36 2.22v.71h-8.05v-1.56h5.83c0-.44-.1-.83-.28-1.18a2.1 2.1 0 0 0-.8-.82 2.2 2.2 0 0 0-1.15-.3c-.48 0-.9.11-1.25.34-.36.23-.64.53-.84.9-.2.36-.3.77-.3 1.2v1.37c0 .57.1 1.06.31 1.47.21.4.5.71.88.93.38.21.81.32 1.32.32.33 0 .64-.05.91-.14.27-.1.51-.24.71-.43.2-.19.35-.42.45-.7l2.16.25c-.13.57-.4 1.07-.78 1.5a3.8 3.8 0 0 1-1.45.98c-.6.23-1.27.34-2.03.34Zm11.23-10.02v1.8h-5.64v-1.8h5.64Zm-4.25-2.35h2.31v9.22c0 .3.05.55.14.71.1.16.23.28.39.34.16.05.33.08.52.08a2.26 2.26 0 0 0 .68-.08l.39 1.8a5.1 5.1 0 0 1-1.36.23c-.58.02-1.1-.07-1.57-.26-.46-.2-.83-.5-1.1-.9a2.7 2.7 0 0 1-.4-1.54v-9.6Z"
    class="logo__title" />
  <path fill="#000000"
    d="M131.47 27.62c0-.35-.03-.6-.07-.75a4.11 4.11 0 0 0-.23-.52c-2.28.25-5.52 2.54-9.71 6.87-4.2 4.32-6.4 7.78-6.6 10.37.06.2.17.34.34.41.18.08.36.11.56.11.7 0 1.96-.62 3.8-1.86a35.33 35.33 0 0 0 7.03-6.35c.67-.8 1.36-1.61 2.05-2.46.7-.85 1.34-1.8 1.94-2.84.6-1.04.89-2.04.89-2.98Zm-4.69 17.76c-.25 0-.52-.06-.82-.18-.3-.13-.57-.32-.82-.56-.35-.35-.6-.76-.74-1.24-.15-.47-.23-1-.23-1.6 0-.35.07-.72.19-1.12.13-.4.28-.82.48-1.27a46.93 46.93 0 0 1-5.2 4.14c-1.8 1.22-3.09 1.83-3.88 1.83-.94 0-1.69-.37-2.23-1.12-.55-.74-.82-1.86-.82-3.36 0-2.73 2-6.13 6-10.18 3.99-4.06 7.55-6.11 10.67-6.16 1.3.5 2.15 1 2.57 1.53.43.52.64 1.03.64 1.53v.48c0 .18-.03.36-.08.56.5-.64.9-1.24 1.2-1.79.3-.55.47-.97.51-1.27.85.35 1.34.79 1.5 1.3.14.53.22 1.04.22 1.54 0 1.2-1.57 3.66-4.7 7.39-3.12 3.73-4.66 6.52-4.6 8.36 1.78 0 4.23-1.37 7.36-4.1a57.4 57.4 0 0 0 6.78-6.72c.05.05.1.1.15.18.04.08.07.14.07.19 0 .74-1.9 2.87-5.7 6.38-3.8 3.5-6.64 5.26-8.52 5.26Zm-54.56-7.54a30.02 30.02 0 0 1-7.3 5.34c-2.78 1.47-4.89 2.2-6.33 2.2-1.24 0-2.18-.32-2.83-.97-.64-.64-.96-1.79-.96-3.43 0-3.09 1.83-6.6 5.5-10.56 3.68-3.96 7.08-5.96 10.2-6.01a7.1 7.1 0 0 1 2.28 1.12c.47.4.7 1 .7 1.79 0 .65-.27 1.33-.81 2.05-.55.72-1.15 1.4-1.8 2.05a15.8 15.8 0 0 1-4.31 3.03 10.37 10.37 0 0 1-4.4 1.23h-.66c-.2 0-.38-.03-.52-.08a31.14 31.14 0 0 0-2.76 4.3 9.25 9.25 0 0 0-1.19 3.77c.05.1.19.2.41.3.22.1.56.14 1 .14 1.7 0 3.93-.74 6.7-2.24 2.79-1.49 5.24-3.3 7.38-5.44a48 48 0 0 0 1.6-1.68c.47-.53.88-1.01 1.23-1.46.05.05.1.11.15.19.04.07.07.13.07.18 0 .25-.31.76-.93 1.53-.62.78-1.43 1.66-2.42 2.65Zm-9.98-3.06c.95 0 2.2-.38 3.76-1.15a14.54 14.54 0 0 0 5.7-4.82c.44-.64.67-1.14.67-1.5 0-.34-.03-.6-.08-.77a.87.87 0 0 0-.15-.34c-1.24.1-2.87 1-4.91 2.72a37.9 37.9 0 0 0-5.58 5.86h.6Zm-32.6 21.65c-3.13 0-5.67-.42-7.6-1.27a15.3 15.3 0 0 1-4.77-3.13c-.3-.3-.5-.56-.63-.79a1.22 1.22 0 0 1-.19-.56c0-.1.04-.22.12-.37a.98.98 0 0 1 .33-.37c1.14 1.24 2.5 2.3 4.06 3.17 1.56.87 3.83 1.3 6.81 1.3 4.17 0 8.48-2.01 12.92-6.04 4.44-4.03 6.66-8.49 6.66-13.36a16 16 0 0 0-.18-2.65 4.47 4.47 0 0 0-.71-1.83 19.5 19.5 0 0 1-3.58-.26 6.02 6.02 0 0 1-2.38-1.01c.1-.35.29-.72.56-1.12.27-.4.56-.67.86-.82a8.32 8.32 0 0 1 4.24.97c2.58-.7 5.67-2.81 9.27-6.35 3.6-3.53 5.4-7.6 5.4-12.24 0-1.14-.16-2.2-.49-3.17a7.38 7.38 0 0 0-1.37-2.5c-.45.35-.93.76-1.46 1.23-.52.48-1.05.98-1.6 1.53-3.02 3.04-6.97 7.95-11.83 14.74-4.87 6.8-9.38 12.26-13.55 16.39a47.69 47.69 0 0 1-9.42 7.46 19.42 19.42 0 0 1-10.02 2.84c-2.83 0-5.38-.8-7.67-2.43C1.15 44.18 0 41.4 0 37.47c0-6.72 5.3-14.64 15.9-23.77C26.5 4.57 38.12 0 50.78 0c1.54 0 2.96.16 4.28.48 1.31.33 2.47.81 3.46 1.46.9-.4 1.71-.7 2.46-.9a8.1 8.1 0 0 1 2.08-.3c.5 0 .83.1 1 .3.18.2.24.4.2.6a5.6 5.6 0 0 0-1.87.38c-.7.24-1.46.64-2.3 1.19.94 1 1.68 2.25 2.23 3.77.54 1.52.82 3.35.82 5.49 0 3.88-1.63 7.68-4.88 11.42-3.25 3.73-6.59 5.9-10.01 6.49.5.8.88 1.77 1.15 2.91.27 1.15.4 2.49.4 4.03 0 4.33-1.99 8.6-5.98 12.8-4 4.2-8.73 6.31-14.19 6.31Zm102.12-40.24c-.87.8-1.74 1.25-3.55 1.64-1.8.38-4.44.4-7.9.06-1.96-.23-3.93.14-5.92 1.12-2 .98-4.15 2.77-6.47 5.36a325.67 325.67 0 0 0-2.73 3.08c-.7.8-1.3 1.52-1.79 2.16a27.75 27.75 0 0 0-2.53 3.94 39.45 39.45 0 0 1 5.75-5.44c2.88-2.25 5.19-3.23 6.93-2.93 1.42.25 1.9 1.4 1.42 3.46-.69 2.97-2.38 6.2-5.1 9.67a25.57 25.57 0 0 1-6.37 5.93c-2.88 1.85-5.55 2.57-8 2.14-.84-.14-1.67-.83-2.07-1.92-.05-.13.47.17.97.43s.95.42 1.33.49c2.12.36 3.59.05 6.22-2.05 2-1.6 3.75-3.58 5.33-5.9a20.03 20.03 0 0 0 2.99-6.88c.36-1.58.19-2.43-.52-2.56-1.56-.26-3.2 1.03-6.82 4.94-3.38 3.67-5.32 6.5-5.78 8.5-.12.53-.04.97.25 1.32.29.35.4.62.36.8-.04.2-.18.28-.42.24-1.74-.3-2.32-1.75-1.72-4.34.21-.93.57-1.95 1.07-3.05-.93 1-2.2 2.23-3.81 3.72-3.8 3.5-6.64 5.26-8.52 5.26-.25 0-.53-.06-.82-.18-.3-.13-.57-.32-.82-.56a3.74 3.74 0 0 1-.93-1.46 5.07 5.07 0 0 1-.26-1.6c0-2.3 2.03-5.18 6.1-8.66 4.07-3.49 6-5.92 5.8-7.32l-.33-.07a2.54 2.54 0 0 0-.48-.08c-1 0-2.4.64-4.2 1.9a49.94 49.94 0 0 0-6.37 5.57 99.97 99.97 0 0 0-6.52 7.16c-1.96 2.4-4.75 6.1-8.37 11.12-2.09 2.9-4.25 6.11-6.48 9.67-2.24 3.56-3.6 5.94-4.1 7.13a2.05 2.05 0 0 1-1.56-1.38 5.81 5.81 0 0 1-.45-2.05c0-.85 1.12-3.03 3.35-6.54a343 343 0 0 1 8.27-12.27 645.7 645.7 0 0 1 10.5-14.63c2.13-2.84 3.15-4.8 3.05-5.9.84.35 1.34.82 1.49 1.42.15.6.22 1.07.22 1.42 0 .8-.25 1.72-.74 2.8-.5 1.06-1.5 2.6-2.98 4.59v.52c.64-.75 1.29-1.46 1.93-2.13l1.87-1.9a47.6 47.6 0 0 1 6.29-5.45c1.86-1.3 3.43-1.94 4.72-1.94.65 0 1.26.27 1.83.82.57.55.85 1.27.85 2.16 0 2.24-1.84 5.15-5.54 8.74-3.7 3.58-5.52 6.22-5.47 7.9 1.78 0 4.24-1.36 7.37-4.1 3-2.63 5.21-4.8 6.61-6.52l.4-.66a51.81 51.81 0 0 1 12.8-13.73 21.81 21.81 0 0 1 7.5-3.76 30.6 30.6 0 0 1 6.34-.82l2.34-.09c.7-.03 1.33-.12 1.9-.27a12.6 12.6 0 0 0 2.02-.59c.57-.22 1.41-.58 1.7-.58-.04 1.24-1.29 2.87-1.43 3.13ZM9.46 45.98c2.43 0 5-.85 7.74-2.54 2.73-1.69 5.98-4.45 9.75-8.28 3.08-3.14 6.65-7.38 10.72-12.73 4.07-5.35 7.8-9.72 11.17-13.1a49.17 49.17 0 0 1 4.5-4.03 26.95 26.95 0 0 1 4.06-2.69c-.84-.54-1.83-.97-2.98-1.27a15 15 0 0 0-3.8-.44C38.13.9 26.75 5.47 16.5 14.63 6.24 23.8 1.12 31.4 1.12 37.47c0 3.14.85 5.34 2.57 6.6a9.45 9.45 0 0 0 5.77 1.91Z"
    class="logo__subtitle" />
</svg>