<svg width="61" height="61" viewBox="0 0 61 61" fill="none" xmlns="http://www.w3.org/2000/svg">
<path fill-rule="evenodd" clip-rule="evenodd" d="M7.625 26.6875C7.625 14.0536 17.8661 3.8125 30.5 3.8125C43.1339 3.8125 53.375 14.0536 53.375 26.6875C53.375 33.0021 50.8164 38.7197 46.6783 42.859C45.5982 43.9397 44.1358 45.1466 42.5541 46.4519C38.0747 50.1487 32.6383 54.6353 32.2156 59.2844C32.1299 60.2276 31.447 61 30.5 61C29.553 61 28.8701 60.2276 28.7844 59.2844C28.3617 54.6353 22.9253 50.1487 18.4459 46.452C16.8642 45.1466 15.4018 43.9397 14.3217 42.859C10.1836 38.7197 7.625 33.0021 7.625 26.6875ZM38.5062 26.6879C38.5062 31.1096 34.9218 34.6941 30.5 34.6941C26.0783 34.6941 22.4938 31.1096 22.4938 26.6879C22.4938 22.2662 26.0783 18.6816 30.5 18.6816C34.9218 18.6816 38.5062 22.2662 38.5062 26.6879Z" fill="#BE48B4"/>
</svg>
