<svg viewBox="0 0 343 256" fill="none" xmlns="http://www.w3.org/2000/svg">
  <rect opacity="0.6" width="343" height="256" fill="#2B0638" />
  <path
    d="M71.4375 89.9375C65.017 89.9375 59.8125 95.142 59.8125 101.562C59.8125 104.772 61.1128 107.677 63.2157 109.781C65.3193 111.886 70.275 114.931 70.5656 118.128C70.6092 118.607 70.9562 119 71.4375 119C71.9188 119 72.2658 118.607 72.3094 118.128C72.6 114.931 77.5557 111.886 79.6593 109.781C81.7622 107.677 83.0625 104.772 83.0625 101.562C83.0625 95.142 77.858 89.9375 71.4375 89.9375Z"
    fill="white" />
  <path
    d="M71.4375 105.632C73.6846 105.632 75.5062 103.81 75.5062 101.563C75.5062 99.3157 73.6846 97.494 71.4375 97.494C69.1904 97.494 67.3688 99.3157 67.3688 101.563C67.3688 103.81 69.1904 105.632 71.4375 105.632Z"
    fill="#806985" />
  <!-- <path
    d="M249.938 60.9375C243.31 60.9375 237.938 66.142 237.938 72.5625C237.938 75.7716 239.28 78.6773 241.451 80.7808C243.622 82.8855 248.738 85.9313 249.038 89.1281C249.082 89.6075 249.441 90 249.938 90C250.434 90 250.793 89.6075 250.837 89.1281C251.137 85.9313 256.253 82.8855 258.424 80.7808C260.595 78.6773 261.938 75.7716 261.938 72.5625C261.938 66.142 256.565 60.9375 249.938 60.9375Z"
    fill="white" />
  <path
    d="M249.938 76.6315C252.257 76.6315 254.138 74.8099 254.138 72.5628C254.138 70.3157 252.257 68.494 249.938 68.494C247.618 68.494 245.738 70.3157 245.738 72.5628C245.738 74.8099 247.618 76.6315 249.938 76.6315Z"
    fill="#806985" /> -->
</svg>