<svg width="41" height="40" viewBox="0 0 41 40" fill="none" xmlns="http://www.w3.org/2000/svg">
<g clip-path="url(#clip0_6209_3062)">
<circle cx="20.5" cy="20" r="19.25" stroke="#202020" stroke-width="1.5"/>
<path d="M26.55 22.1C26.8814 22.3485 27.3515 22.2814 27.6 21.95C27.8485 21.6186 27.7814 21.1485 27.45 20.9L26.55 22.1ZM24.9547 32.515C25.2391 32.8161 25.7138 32.8297 26.015 32.5453C26.3161 32.2609 26.3297 31.7862 26.0453 31.485L24.9547 32.515ZM12.8767 30.7602C12.4681 30.8283 12.1921 31.2147 12.2602 31.6233C12.3283 32.0319 12.7147 32.3079 13.1233 32.2398L12.8767 30.7602ZM7 19L6.34438 19.3642L6.53879 19.7142L6.93772 19.7474L7 19ZM24.2785 22.3036C23.894 22.1498 23.4575 22.3369 23.3036 22.7215C23.1498 23.106 23.3369 23.5425 23.7215 23.6964L24.2785 22.3036ZM14.9235 23.119C15.2654 22.8851 15.3529 22.4183 15.119 22.0765C14.8851 21.7346 14.4183 21.6471 14.0765 21.881L14.9235 23.119ZM35.1819 18.2724C34.7801 18.1719 34.3729 18.4163 34.2724 18.8181C34.1719 19.2199 34.4163 19.6271 34.8181 19.7276L35.1819 18.2724ZM33.3721 20.8488C33.0125 20.6433 32.5543 20.7683 32.3488 21.1279C32.1433 21.4875 32.2683 21.9457 32.6279 22.1512L33.3721 20.8488ZM19.4426 -0.00172353C18.6575 0.870516 17.5617 2.3296 16.8108 3.90174C16.0845 5.42219 15.5611 7.29911 16.3292 8.83541L17.6708 8.16459C17.239 7.30089 17.4655 6.01114 18.1643 4.54826C18.8384 3.13706 19.8425 1.79615 20.5575 1.00172L19.4426 -0.00172353ZM16.3292 8.83541C17.1596 10.4961 18.2872 11.3408 19.0781 12.01C19.4819 12.3518 19.7642 12.6184 19.9563 12.9152C20.1332 13.1887 20.25 13.5152 20.25 14H21.75C21.75 13.2348 21.5543 12.6238 21.2156 12.1004C20.8921 11.6003 20.4556 11.2107 20.047 10.865C19.2129 10.1592 18.3405 9.50386 17.6708 8.16459L16.3292 8.83541ZM20.25 14C20.25 14.2942 20.115 14.697 19.7962 15.2001C19.4849 15.6913 19.0416 16.2102 18.5322 16.7197C17.5137 17.7382 16.3052 18.6452 15.584 19.126L16.416 20.374C17.1948 19.8548 18.4863 18.8868 19.5928 17.7803C20.1459 17.2273 20.6714 16.6212 21.0632 16.0031C21.4475 15.3967 21.75 14.7058 21.75 14H20.25ZM38.416 11.876C37.1507 11.0324 35.1845 9.84459 33.0497 9.33314C30.888 8.81523 28.4623 8.97704 26.4697 10.9697L27.5303 12.0303C29.0377 10.523 30.862 10.3514 32.7003 10.7919C34.5655 11.2387 36.3493 12.3009 37.584 13.124L38.416 11.876ZM26.4697 10.9697C22.7383 14.7011 23.0701 18.4828 23.2602 19.6233L24.7398 19.3767C24.5965 18.5172 24.2617 15.2989 27.5303 12.0303L26.4697 10.9697ZM27.45 20.9C26.4105 20.1204 24.7341 19.0939 23.075 18.5721C22.2464 18.3114 21.3651 18.1582 20.5447 18.2675C19.6972 18.3804 18.9141 18.7768 18.376 19.584L19.624 20.416C19.8859 20.0232 20.2528 19.8196 20.7427 19.7544C21.2599 19.6855 21.9036 19.7761 22.625 20.0029C24.0659 20.4561 25.5895 21.3796 26.55 22.1L27.45 20.9ZM18.376 19.584C17.8024 20.4444 17.8896 21.5435 18.1867 22.5582C18.4926 23.6032 19.0775 24.7553 19.7771 25.8929L21.0548 25.1071C20.3854 24.0187 19.8781 22.9971 19.6262 22.1367C19.3655 21.2461 19.4292 20.7082 19.624 20.416L18.376 19.584ZM19.7771 25.8929C21.295 28.3611 23.4619 30.9343 24.9547 32.515L26.0453 31.485C24.5929 29.9473 22.5 27.457 21.0548 25.1071L19.7771 25.8929ZM19.6943 25.2956C19.2833 26.7472 17.3301 30.018 12.8767 30.7602L13.1233 32.2398C18.2699 31.382 20.6047 27.5861 21.1376 25.7044L19.6943 25.2956ZM19.0623 19.2526L7.06228 18.2526L6.93772 19.7474L18.9377 20.7474L19.0623 19.2526ZM7.65562 18.6358C7.20117 17.8178 6.343 16.693 5.2135 16.0386C4.63816 15.7052 3.96332 15.4777 3.22349 15.5085C2.47486 15.5396 1.72927 15.8327 1.01986 16.4238L1.98014 17.5762C2.47073 17.1673 2.90847 17.0229 3.28588 17.0072C3.67209 16.9911 4.066 17.1073 4.4615 17.3364C5.27366 17.807 5.9655 18.6822 6.34438 19.3642L7.65562 18.6358ZM39.3106 20.2046C38.5936 21.8777 37.5119 23.5621 36.309 24.9454C35.0955 26.3409 33.8139 27.3667 32.7215 27.8036L33.2785 29.1964C34.6861 28.6333 36.1545 27.4091 37.441 25.9296C38.7381 24.4379 39.9064 22.6223 40.6894 20.7954L39.3106 20.2046ZM33.4269 27.8834C32.3364 27.1284 30.5771 25.9471 28.8368 24.8526C27.1173 23.7712 25.3522 22.7331 24.2785 22.3036L23.7215 23.6964C24.6478 24.0669 26.2994 25.0288 28.0382 26.1224C29.7562 27.2029 31.4969 28.3716 32.5731 29.1166L33.4269 27.8834ZM32.25 28.5C32.25 30.4971 31.1221 35.1004 26.6646 37.3292L27.3354 38.6708C32.4779 36.0996 33.75 30.8362 33.75 28.5H32.25ZM14.0765 21.881C13.4431 22.3144 12.6877 22.8248 11.8984 23.3904L12.7721 24.6096C13.5443 24.0563 14.2811 23.5585 14.9235 23.119L14.0765 21.881ZM11.8984 23.3904C10.3395 24.5074 8.59602 25.8759 7.28883 27.3946C5.99529 28.8973 5.01644 30.6782 5.25579 32.593L6.74421 32.407C6.58428 31.1276 7.22552 29.7674 8.42566 28.3731C9.61215 26.9947 11.236 25.7104 12.7721 24.6096L11.8984 23.3904ZM12.3352 23.25C11.2884 23.25 9.87552 23.2268 8.52648 23.1536C7.15924 23.0794 5.91829 22.9565 5.1819 22.7724L4.8181 24.2276C5.70868 24.4503 7.07949 24.5773 8.44519 24.6514C9.82909 24.7265 11.2704 24.75 12.3352 24.75V23.25ZM5.1819 22.7724C3.34668 22.3136 2.08347 21.1892 1.69636 20.2215L0.303643 20.7785C0.916535 22.3108 2.65332 23.6864 4.8181 24.2276L5.1819 22.7724ZM34.8181 19.7276C35.282 19.8436 35.5523 20.4248 35.3625 20.9183C35.2893 21.1086 35.1548 21.2417 34.9232 21.288C34.6594 21.3408 34.1609 21.2995 33.3721 20.8488L32.6279 22.1512C33.5891 22.7005 34.4656 22.9092 35.2174 22.7589C36.0014 22.6021 36.5232 22.0789 36.7625 21.4567C37.1977 20.3252 36.718 18.6564 35.1819 18.2724L34.8181 19.7276Z" fill="#202020"/>
</g>
<defs>
<clipPath id="clip0_6209_3062">
<rect width="40" height="40" fill="white" transform="translate(0.5)"/>
</clipPath>
</defs>
</svg>
