<svg width="30" height="30" viewBox="0 0 30 30" fill="none" xmlns="http://www.w3.org/2000/svg">
<rect width="30" height="30" rx="15" fill="#202020"/>
<path d="M23.6961 20.8553C23.3498 21.8439 21.9754 22.6639 20.8791 22.9033C20.129 23.0648 19.1493 23.1936 15.8514 21.8113C11.6329 20.0445 8.91633 15.7108 8.7046 15.4296C8.50185 15.1485 7 13.1349 7 11.0525C7 8.97 8.04609 7.95598 8.46775 7.52062C8.81406 7.16326 9.38644 7 9.93551 7C10.1131 7 10.2728 7.00907 10.4164 7.01633C10.838 7.03447 11.0498 7.05986 11.3279 7.73286C11.6742 8.57636 12.5175 10.6588 12.618 10.8729C12.7203 11.0869 12.8226 11.3772 12.679 11.6583C12.5444 11.9486 12.426 12.0774 12.2143 12.3241C12.0026 12.5708 11.8016 12.7594 11.5899 13.0243C11.3961 13.2547 11.1772 13.5014 11.4212 13.9277C11.6652 14.3449 12.5086 15.7362 13.7502 16.8536C15.3526 18.2958 16.6516 18.7565 17.1164 18.9524C17.4627 19.0975 17.8754 19.0631 18.1284 18.791C18.4495 18.4409 18.8461 17.8604 19.2498 17.289C19.5369 16.879 19.8994 16.8282 20.2798 16.9734C20.6673 17.1094 22.7182 18.1343 23.1399 18.3466C23.5616 18.5606 23.8397 18.6622 23.942 18.8418C24.0424 19.0214 24.0424 19.8649 23.6961 20.8553Z" fill="white"/>
</svg>
