<svg width="80" height="80" viewBox="0 0 80 80" fill="none" xmlns="http://www.w3.org/2000/svg">
<rect width="80" height="80" rx="40" fill="#BE48B4"/>
<path d="M23 39.5C23 38.6716 23.6716 38 24.5 38H56.5C57.3284 38 58 38.6716 58 39.5V39.5C58 40.3284 57.3284 41 56.5 41H24.5C23.6716 41 23 40.3284 23 39.5V39.5Z" fill="#FAFAFA"/>
<path d="M40.5 22C41.3284 22 42 22.6716 42 23.5L42 55.5C42 56.3284 41.3284 57 40.5 57V57C39.6716 57 39 56.3284 39 55.5L39 23.5C39 22.6716 39.6716 22 40.5 22V22Z" fill="#FAFAFA"/>
</svg>
