<svg width="125" height="60" viewBox="0 0 125 60" fill="none" xmlns="http://www.w3.org/2000/svg">
<path d="M119.498 49.5722V51.1514H114.518V49.5722H119.498ZM115.748 47.4966H117.79V55.6296C117.79 55.9041 117.831 56.1146 117.914 56.2613C118 56.4041 118.113 56.5019 118.252 56.5545C118.391 56.6072 118.545 56.6335 118.714 56.6335C118.842 56.6335 118.959 56.6241 119.064 56.6053C119.173 56.5865 119.256 56.5696 119.312 56.5545L119.656 58.1507C119.547 58.1883 119.391 58.2296 119.188 58.2748C118.989 58.3199 118.745 58.3462 118.455 58.3537C117.944 58.3688 117.483 58.2917 117.073 58.1225C116.663 57.9495 116.338 57.6826 116.098 57.3216C115.861 56.9606 115.744 56.5094 115.748 55.968V47.4966Z" fill="#BE48B4"/>
<path d="M109.593 58.4045C108.724 58.4045 107.974 58.224 107.342 57.863C106.715 57.4983 106.231 56.9832 105.893 56.3176C105.555 55.6484 105.385 54.8606 105.385 53.9545C105.385 53.0633 105.555 52.2813 105.893 51.6082C106.235 50.9314 106.713 50.405 107.326 50.029C107.938 49.6492 108.658 49.4594 109.486 49.4594C110.02 49.4594 110.523 49.5458 110.997 49.7188C111.475 49.888 111.896 50.1512 112.261 50.5084C112.629 50.8656 112.919 51.3206 113.129 51.8733C113.34 52.4223 113.445 53.0765 113.445 53.836V54.4621H106.344V53.0859H111.488C111.484 52.6949 111.4 52.3471 111.234 52.0425C111.069 51.7342 110.837 51.4916 110.54 51.3149C110.247 51.1382 109.905 51.0498 109.514 51.0498C109.097 51.0498 108.73 51.1514 108.414 51.3544C108.098 51.5537 107.852 51.8169 107.675 52.144C107.502 52.4674 107.414 52.8227 107.41 53.21V54.4113C107.41 54.9151 107.502 55.3476 107.687 55.7085C107.871 56.0657 108.128 56.3402 108.459 56.532C108.79 56.72 109.177 56.814 109.621 56.814C109.918 56.814 110.187 56.7726 110.428 56.6899C110.668 56.6034 110.877 56.4774 111.054 56.312C111.23 56.1466 111.364 55.9416 111.454 55.6972L113.36 55.9116C113.24 56.4154 113.011 56.8553 112.672 57.2313C112.338 57.6036 111.909 57.8931 111.386 58.0999C110.864 58.3029 110.266 58.4045 109.593 58.4045Z" fill="#BE48B4"/>
<path d="M99.8176 58.2353V49.5722H101.797V51.016H101.888C102.045 50.5159 102.316 50.1305 102.7 49.8598C103.087 49.5853 103.529 49.4481 104.025 49.4481C104.138 49.4481 104.264 49.4537 104.403 49.465C104.546 49.4725 104.664 49.4857 104.758 49.5045V51.3826C104.672 51.3525 104.535 51.3262 104.347 51.3037C104.162 51.2773 103.984 51.2642 103.811 51.2642C103.439 51.2642 103.104 51.345 102.807 51.5067C102.514 51.6646 102.282 51.8846 102.113 52.1666C101.944 52.4486 101.859 52.7738 101.859 53.1423V58.2353H99.8176Z" fill="#BE48B4"/>
<path d="M94.4299 58.4045C93.5651 58.4045 92.8225 58.2146 92.2021 57.8348C91.5854 57.455 91.1098 56.9305 90.7751 56.2612C90.4442 55.5882 90.2788 54.8136 90.2788 53.9375C90.2788 53.0577 90.448 52.2813 90.7864 51.6082C91.1248 50.9314 91.6023 50.405 92.219 50.029C92.8394 49.6492 93.5726 49.4594 94.4186 49.4594C95.1217 49.4594 95.744 49.5891 96.2855 49.8485C96.8307 50.1042 97.2649 50.467 97.5883 50.937C97.9117 51.4033 98.0959 51.9485 98.141 52.5727H96.1896C96.1106 52.1553 95.9226 51.8075 95.6256 51.5292C95.3323 51.2472 94.9394 51.1062 94.4468 51.1062C94.0294 51.1062 93.6628 51.219 93.347 51.4446C93.0311 51.6665 92.7849 51.9861 92.6081 52.4035C92.4352 52.8208 92.3487 53.3209 92.3487 53.9037C92.3487 54.494 92.4352 55.0016 92.6081 55.4265C92.7811 55.8476 93.0236 56.1729 93.3357 56.4022C93.6516 56.6278 94.0219 56.7406 94.4468 56.7406C94.7476 56.7406 95.0164 56.6842 95.2533 56.5714C95.494 56.4549 95.6951 56.2876 95.8568 56.0695C96.0185 55.8514 96.1294 55.5863 96.1896 55.2742H98.141C98.0921 55.8871 97.9117 56.4304 97.5996 56.9042C97.2875 57.3742 96.8626 57.7427 96.3249 58.0097C95.7872 58.2729 95.1556 58.4045 94.4299 58.4045Z" fill="#BE48B4"/>
<path d="M85.0714 58.4045C84.2028 58.4045 83.4527 58.224 82.821 57.863C82.1931 57.4983 81.7099 56.9832 81.3715 56.3176C81.0331 55.6484 80.8639 54.8606 80.8639 53.9545C80.8639 53.0633 81.0331 52.2813 81.3715 51.6082C81.7137 50.9314 82.1912 50.405 82.8041 50.029C83.417 49.6492 84.137 49.4594 84.9642 49.4594C85.4981 49.4594 86.002 49.5458 86.4757 49.7188C86.9533 49.888 87.3744 50.1512 87.7391 50.5084C88.1076 50.8656 88.3971 51.3206 88.6077 51.8733C88.8182 52.4223 88.9235 53.0765 88.9235 53.836V54.4621H81.8227V53.0859H86.9664C86.9627 52.6949 86.8781 52.3471 86.7126 52.0425C86.5472 51.7342 86.3159 51.4916 86.0189 51.3149C85.7256 51.1382 85.3834 51.0498 84.9924 51.0498C84.575 51.0498 84.2084 51.1514 83.8926 51.3544C83.5768 51.5537 83.3305 51.8169 83.1537 52.144C82.9808 52.4674 82.8924 52.8227 82.8887 53.21V54.4113C82.8887 54.9151 82.9808 55.3476 83.165 55.7085C83.3493 56.0657 83.6068 56.3402 83.9377 56.532C84.2686 56.72 84.6559 56.814 85.0996 56.814C85.3966 56.814 85.6654 56.7726 85.9061 56.6899C86.1467 56.6034 86.3554 56.4774 86.5321 56.312C86.7089 56.1466 86.8423 55.9416 86.9326 55.6972L88.8389 55.9116C88.7186 56.4154 88.4892 56.8553 88.1508 57.2313C87.8162 57.6036 87.3875 57.8931 86.8649 58.0999C86.3423 58.3029 85.7444 58.4045 85.0714 58.4045Z" fill="#BE48B4"/>
<path d="M79.3668 51.862L77.5055 52.065C77.4529 51.877 77.3608 51.7003 77.2292 51.5349C77.1013 51.3694 76.9284 51.236 76.7103 51.1344C76.4922 51.0329 76.2253 50.9822 75.9094 50.9822C75.4845 50.9822 75.1273 51.0743 74.8378 51.2585C74.552 51.4428 74.411 51.6815 74.4148 51.9748C74.411 52.2267 74.5032 52.4317 74.6912 52.5896C74.8829 52.7475 75.1988 52.8772 75.6387 52.9787L77.1164 53.2946C77.9361 53.4713 78.5452 53.7514 78.9438 54.1349C79.3461 54.5185 79.5491 55.0204 79.5529 55.6408C79.5491 56.186 79.3893 56.6673 79.0735 57.0847C78.7614 57.4983 78.3271 57.8216 77.7706 58.0548C77.2141 58.2879 76.5749 58.4045 75.853 58.4045C74.7927 58.4045 73.9392 58.1826 73.2924 57.7389C72.6457 57.2915 72.2603 56.6692 72.1362 55.8721L74.1272 55.6803C74.2174 56.0714 74.4092 56.3665 74.7024 56.5658C74.9957 56.7651 75.3774 56.8647 75.8474 56.8647C76.3324 56.8647 76.7216 56.7651 77.0149 56.5658C77.3119 56.3665 77.4604 56.1202 77.4604 55.827C77.4604 55.5788 77.3645 55.3739 77.1728 55.2122C76.9848 55.0505 76.6915 54.9264 76.2929 54.8399L74.8152 54.5297C73.9843 54.3568 73.3695 54.0654 72.971 53.6555C72.5724 53.2419 72.375 52.7193 72.3788 52.0876C72.375 51.5537 72.5198 51.0912 72.813 50.7002C73.1101 50.3054 73.5218 50.0008 74.0482 49.7865C74.5784 49.5684 75.1894 49.4594 75.8812 49.4594C76.8964 49.4594 77.6954 49.6756 78.2782 50.108C78.8648 50.5404 79.2276 51.125 79.3668 51.862Z" fill="#BE48B4"/>
<path d="M116.003 24.3689C116.003 24.0607 115.981 23.8417 115.937 23.7099C115.894 23.5781 115.828 23.4247 115.74 23.2483C113.726 23.4687 110.868 25.4881 107.168 29.3087C103.467 33.1278 101.528 36.1799 101.353 38.4628C101.398 38.6386 101.496 38.7596 101.65 38.8251C101.802 38.8915 101.966 38.9244 102.142 38.9244C102.755 38.9244 103.871 38.375 105.492 37.2776C107.113 36.1799 108.646 34.9066 110.09 33.4578C110.572 32.9745 111.109 32.3824 111.7 31.6795C112.292 30.9773 112.894 30.2528 113.507 29.506C114.12 28.7599 114.69 27.9252 115.215 27.0033C115.74 26.0815 116.003 25.2029 116.003 24.3689ZM111.864 40.0438C111.645 40.0438 111.404 39.9889 111.142 39.8795C110.879 39.7692 110.638 39.6044 110.419 39.3855C110.112 39.078 109.893 38.7157 109.762 38.2979C109.631 37.8818 109.565 37.4092 109.565 36.8828C109.565 36.5754 109.62 36.2454 109.73 35.894C109.839 35.5432 109.981 35.1702 110.157 34.7749C108.668 36.1359 107.135 37.3546 105.558 38.4299C103.981 39.5056 102.842 40.0438 102.142 40.0438C101.31 40.0438 100.653 39.7147 100.171 39.0555C99.6893 38.3975 99.4487 37.4092 99.4487 36.0921C99.4487 33.6772 101.211 30.6806 104.736 27.102C108.262 23.5234 111.404 21.7121 114.163 21.6689C115.302 22.1068 116.058 22.5576 116.43 23.0186C116.802 23.4795 116.988 23.9296 116.988 24.3689C116.988 24.5 116.988 24.6433 116.988 24.7967C116.988 24.9508 116.967 25.115 116.923 25.2907C117.36 24.7196 117.711 24.1932 117.974 23.7099C118.237 23.2274 118.39 22.8544 118.433 22.5908C119.179 22.8983 119.616 23.2821 119.748 23.7423C119.878 24.204 119.944 24.6541 119.944 25.0934C119.944 26.147 118.565 28.3206 115.806 31.6133C113.047 34.9066 111.689 37.3654 111.733 38.99C113.31 38.99 115.478 37.7823 118.237 35.3676C120.996 32.9528 122.989 30.9773 124.214 29.4405C124.258 29.4844 124.302 29.5384 124.346 29.6047C124.389 29.6709 124.412 29.7256 124.412 29.7696C124.412 30.4278 122.737 32.3046 119.387 35.4006C116.037 38.496 113.528 40.0438 111.864 40.0438ZM63.7219 33.3923C61.883 35.2357 59.738 36.8058 57.2849 38.1013C54.8325 39.3962 52.9712 40.0438 51.6998 40.0438C50.6057 40.0438 49.7732 39.7585 49.2043 39.1874C48.6346 38.6169 48.3501 37.6067 48.3501 36.1576C48.3501 33.4352 49.9707 30.3292 53.2119 26.8391C56.4523 23.3484 59.4521 21.5811 62.2113 21.5364C63.1315 21.8439 63.7995 22.1731 64.2154 22.5245C64.6314 22.876 64.839 23.4031 64.839 24.1053C64.839 24.6757 64.5983 25.2799 64.1163 25.9166C63.635 26.5532 63.1092 27.1567 62.5403 27.7278C61.4886 28.7815 60.2186 29.6709 58.7295 30.3954C57.2411 31.1192 55.9488 31.4822 54.854 31.4822C54.6356 31.4822 54.4381 31.4822 54.2628 31.4822C54.0875 31.4822 53.9338 31.4599 53.8031 31.4159C52.8391 32.6892 52.0295 33.9518 51.3722 35.2025C50.7149 36.4544 50.3651 37.5628 50.3206 38.5283C50.3651 38.6169 50.4858 38.705 50.6826 38.7919C50.8794 38.88 51.1754 38.9244 51.569 38.9244C53.0582 38.9244 55.0293 38.2656 57.4817 36.9484C59.9341 35.6312 62.1028 34.0288 63.9856 32.1404C64.5107 31.6132 64.9812 31.1192 65.3971 30.659C65.8145 30.1974 66.1744 29.7696 66.4818 29.3742C66.5263 29.4181 66.5694 29.4736 66.6133 29.5384C66.6564 29.6047 66.6793 29.6594 66.6793 29.7033C66.6793 29.923 66.4057 30.3731 65.8576 31.0537C65.3102 31.7342 64.5983 32.5135 63.7219 33.3923ZM54.9201 30.6914C55.7519 30.6914 56.8575 30.3515 58.2374 29.6709C59.6173 28.9903 60.766 28.1888 61.6854 27.2669C62.3427 26.608 62.8685 25.9936 63.2622 25.4225C63.6573 24.8514 63.8541 24.4128 63.8541 24.1053C63.8541 23.7978 63.8326 23.5673 63.7887 23.4139C63.7449 23.2598 63.7004 23.1612 63.6573 23.1172C62.5618 23.2051 61.1165 24.0067 59.3207 25.5212C57.5255 27.0358 55.8827 28.7599 54.3943 30.6914H54.9201ZM26.1462 49.7908C23.3871 49.7908 21.153 49.4183 19.4455 48.6717C17.7373 47.9253 16.3365 47.0029 15.2411 45.9055C14.9781 45.6418 14.7921 45.4111 14.6829 45.2139C14.573 45.0165 14.5177 44.8516 14.5177 44.72C14.5177 44.6319 14.5514 44.5224 14.6168 44.39C14.6829 44.2588 14.7813 44.1494 14.9128 44.0608C15.9199 45.1591 17.1138 46.0925 18.493 46.8611C19.8722 47.6288 21.8764 48.0134 24.5041 48.0134C28.1827 48.0134 31.982 46.2352 35.9013 42.6781C39.8213 39.1219 41.7809 35.1918 41.7809 30.8887C41.7809 29.9669 41.7263 29.1877 41.6171 28.551C41.5079 27.9137 41.2996 27.3764 40.9929 26.9371C39.679 26.9371 38.6274 26.8608 37.8394 26.7074C37.0513 26.5532 36.3502 26.2572 35.7368 25.8179C35.8244 25.5104 35.9889 25.1813 36.2303 24.8298C36.4709 24.4784 36.7223 24.2371 36.9853 24.1053C37.598 24.0607 38.2337 24.1161 38.8903 24.2702C39.5476 24.4229 40.1611 24.6541 40.73 24.9616C43.0071 24.3466 45.7332 22.4806 48.9083 19.3629C52.0834 16.2459 53.6709 12.6457 53.6709 8.56156C53.6709 7.55186 53.5294 6.61922 53.2442 5.76292C52.9597 4.90662 52.5546 4.17059 52.0295 3.55627C51.6351 3.86379 51.2084 4.22605 50.748 4.64304C50.2882 5.06075 49.8177 5.51014 49.3357 5.99339C46.6635 8.67247 43.1824 13.0073 38.8903 19.0006C34.5982 24.994 30.6136 29.8135 26.9349 33.4578C24.2189 36.1799 21.449 38.375 18.6244 40.0438C15.7999 41.7123 12.854 42.5465 9.78813 42.5465C7.29189 42.5465 5.03701 41.8333 3.02206 40.4058C1.00783 38.9793 0 36.5315 0 33.0623C0 27.1344 4.67497 20.1421 14.0256 12.0854C23.3756 4.02872 33.6356 -3.8147e-06 44.8037 -3.8147e-06C46.1606 -3.8147e-06 47.4199 0.142597 48.58 0.427792C49.7409 0.713707 50.7595 1.14149 51.6351 1.7126C52.4231 1.36043 53.1465 1.09756 53.8031 0.921837C54.4604 0.746113 55.0724 0.658249 55.642 0.658249C56.0802 0.658249 56.3762 0.746113 56.5292 0.921837C56.6829 1.09756 56.7368 1.27329 56.693 1.44902C56.211 1.44902 55.6643 1.55848 55.0508 1.77814C54.4381 1.9978 53.7593 2.34853 53.0143 2.83177C53.8462 3.7104 54.5035 4.81948 54.9847 6.15758C55.4668 7.49712 55.7074 9.11107 55.7074 10.9987C55.7074 14.4239 54.2736 17.7835 51.4053 21.0755C48.5362 24.3689 45.591 26.2788 42.5696 26.8053C43.0071 27.5082 43.3469 28.3638 43.5883 29.3742C43.8282 30.3839 43.9489 31.57 43.9489 32.9305C43.9489 36.7509 42.1861 40.5153 38.6612 44.2259C35.1355 47.9363 30.9634 49.7908 26.1462 49.7908ZM116.263 14.2892C115.495 14.9928 114.721 15.3868 113.125 15.7296C111.53 16.0717 109.209 16.0918 106.158 15.7893C104.43 15.5812 102.686 15.9096 100.928 16.7746C99.1692 17.6381 97.2692 19.2138 95.2263 21.5026C94.2357 22.6073 93.4311 23.5148 92.8133 24.2227C92.1956 24.9299 91.6705 25.5651 91.2373 26.129C90.8049 26.6922 90.4205 27.2309 90.0858 27.7451C89.7518 28.2593 89.3919 28.8794 89.0083 29.6054C90.4881 27.8798 92.1783 26.2788 94.0776 24.801C96.6141 22.8176 98.652 21.957 100.195 22.2213C101.445 22.4352 101.861 23.4514 101.443 25.2706C100.839 27.8935 99.3402 30.7361 96.946 33.7996C95.3369 35.8982 93.4627 37.6447 91.3221 39.0369C88.7813 40.6681 86.4259 41.3041 84.2586 40.9266C83.5216 40.7991 82.7867 40.1907 82.4398 39.2305C82.3967 39.1118 82.8499 39.3782 83.2953 39.608C83.7407 39.8384 84.13 39.9811 84.4633 40.0388C86.3396 40.36 87.6334 40.0818 89.9565 38.229C91.7186 36.8238 93.2659 35.0731 94.6616 33.0322C95.8771 31.2553 96.7685 29.2381 97.2944 26.9544C97.6147 25.5587 97.4632 24.8075 96.8375 24.7002C95.4626 24.464 94.0101 25.6091 90.8235 29.0588C87.8381 32.2909 86.127 34.7834 85.719 36.5602C85.612 37.0255 85.6852 37.412 85.9395 37.7198C86.1938 38.0273 86.3016 38.2647 86.2614 38.4341C86.2233 38.6034 86.0997 38.6704 85.8914 38.6344C84.3491 38.3707 83.8405 37.0961 84.3664 34.8123C84.5567 33.9841 84.8735 33.0853 85.3139 32.1159C84.4949 32.9916 83.3751 34.0856 81.952 35.4006C78.6017 38.496 76.0947 40.0438 74.431 40.0438C74.2119 40.0438 73.9705 39.9889 73.7083 39.8795C73.4454 39.7692 73.2048 39.6044 72.9857 39.3855C72.5913 38.99 72.3176 38.5624 72.1639 38.1013C72.0109 37.6396 71.934 37.1681 71.934 36.6848C71.934 34.6647 73.7299 32.1181 77.3209 29.0451C80.9119 25.9713 82.6201 23.8201 82.4448 22.5908C82.4448 22.5908 82.3464 22.5684 82.1496 22.5245C81.952 22.4806 81.8098 22.459 81.7222 22.459C80.8465 22.459 79.6095 23.0186 78.0105 24.1377C76.4122 25.2576 74.5402 26.8939 72.3945 29.0451C70.2919 31.1531 68.3754 33.2603 66.6463 35.3676C64.9158 37.4748 62.4526 40.746 59.2553 45.1807C57.4156 47.7273 55.5106 50.5706 53.5409 53.7099C51.569 56.85 50.3651 58.9464 49.9262 60C49.2703 59.8689 48.8099 59.4621 48.547 58.7816C48.2848 58.101 48.1533 57.4974 48.1533 56.9701C48.1533 56.2241 49.1389 54.3035 51.1093 51.2073C53.0804 48.1118 55.5106 44.5002 58.4012 40.3729C62.6933 34.2699 65.7814 29.9669 67.6642 27.4643C69.547 24.9616 70.4449 23.2274 70.358 22.2609C71.1022 22.5684 71.5396 22.9862 71.6718 23.5126C71.8026 24.0398 71.8686 24.4568 71.8686 24.7643C71.8686 25.4665 71.6496 26.2896 71.2114 27.2338C70.7739 28.1772 69.8975 29.5276 68.5837 31.2841V31.745C69.1533 31.0868 69.7222 30.461 70.2919 29.8682C70.8608 29.2755 71.4089 28.7159 71.934 28.1888C73.9921 26.1247 75.8425 24.5223 77.4847 23.3808C79.1275 22.2393 80.5175 21.6689 81.6568 21.6689C82.2257 21.6689 82.7623 21.9102 83.2659 22.3927C83.7701 22.876 84.0216 23.5126 84.0216 24.3027C84.0216 26.2788 82.3909 28.8477 79.1275 32.0086C75.8648 35.1702 74.2557 37.4973 74.2988 38.99C75.8756 38.99 78.0435 37.7823 80.8034 35.3676C83.4584 33.0434 85.4036 31.1257 86.6392 29.6155C86.7541 29.4225 86.8727 29.2273 86.9962 29.0299C88.3697 26.8247 90.0355 24.6699 91.9923 22.5656C93.9498 20.4597 96.0509 18.5772 98.2957 16.9164C100.54 15.2564 102.745 14.1502 104.907 13.5978C106.006 13.345 107.022 13.1671 107.956 13.0634C108.888 12.9597 109.737 12.8956 110.501 12.8726C111.265 12.8495 111.953 12.8243 112.566 12.797C113.178 12.7703 113.738 12.6904 114.245 12.5572C114.929 12.4102 115.522 12.2367 116.022 12.0365C116.523 11.837 117.269 11.5222 117.529 11.5222C117.489 12.6198 116.383 14.0595 116.263 14.2892ZM8.34354 40.571C10.4892 40.571 12.7664 39.8247 15.175 38.3311C17.5836 36.8381 20.4526 34.401 23.7814 31.0205C26.4967 28.255 29.6496 24.5115 33.2413 19.7921C36.833 15.0713 40.1172 11.2183 43.0948 8.23244C44.4524 6.87129 45.777 5.68586 47.0693 4.67616C48.3609 3.66647 49.5548 2.8757 50.6496 2.30531C49.9046 1.82207 49.0283 1.44902 48.0219 1.18543C47.0148 0.921841 45.8977 0.790047 44.6715 0.790047C33.6356 0.790047 23.5947 4.82956 14.5514 12.9093C5.5068 20.9876 0.985563 27.7055 0.985563 33.0623C0.985563 35.8293 1.74125 37.7716 3.25264 38.8915C4.7626 40.0106 6.46005 40.571 8.34354 40.571Z" fill="#202020"/>
</svg>
