<svg width="32" height="32" viewBox="0 0 32 32" fill="none" xmlns="http://www.w3.org/2000/svg">
<path fill-rule="evenodd" clip-rule="evenodd" d="M23.3309 19.1762C22.9328 18.9779 20.9755 18.0195 20.6106 17.8871C20.2457 17.7549 19.9803 17.6889 19.7149 18.0855C19.4495 18.482 18.6865 19.3745 18.4543 19.639C18.2221 19.9034 17.9898 19.9366 17.5917 19.7381C17.1936 19.5399 15.9108 19.1215 14.3902 17.7716C13.2067 16.721 12.4077 15.4236 12.1756 15.0269C11.9433 14.6303 12.1507 14.4158 12.35 14.2183C12.5292 14.0407 12.7482 13.7555 12.9472 13.5241C13.1463 13.2928 13.2126 13.1274 13.3454 12.8632C13.4781 12.5987 13.4117 12.3674 13.3121 12.1691C13.2126 11.9708 12.4164 10.0205 12.0847 9.22711C11.7615 8.45461 11.4333 8.55925 11.1889 8.54699C10.957 8.53553 10.6913 8.53308 10.426 8.53308C10.1606 8.53308 9.72921 8.63224 9.36422 9.02878C8.99941 9.42544 7.97091 10.3841 7.97091 12.3341C7.97091 14.2845 9.3974 16.1684 9.59651 16.4328C9.79562 16.6973 12.4037 20.6992 16.3975 22.4154C17.3473 22.8237 18.0888 23.0674 18.667 23.25C19.6207 23.5516 20.4885 23.509 21.1746 23.407C21.9394 23.2933 23.53 22.4486 23.8617 21.5231C24.1935 20.5975 24.1935 19.8042 24.0939 19.639C23.9944 19.4737 23.729 19.3745 23.3309 19.1762ZM16.0669 29.0471H16.0616C13.6852 29.0462 11.3545 28.4107 9.32125 27.21L8.83766 26.9243L3.82551 28.2328L5.1633 23.3694L4.84851 22.8707C3.52286 20.7723 2.82267 18.3471 2.82371 15.8567C2.82663 8.5901 8.76747 2.67813 16.0722 2.67813C19.6094 2.67939 22.9344 4.05207 25.4348 6.54334C27.935 9.03443 29.3112 12.3458 29.3098 15.8673C29.3068 23.1346 23.3661 29.0471 16.0669 29.0471ZM27.3377 4.65031C24.3295 1.65307 20.3291 0.00171072 16.0668 0C7.28465 0 0.137057 7.11295 0.133505 15.8557C0.132359 18.6505 0.866003 21.3783 2.26029 23.7831L0 32L8.44631 29.795C10.7736 31.0583 13.3938 31.7241 16.0604 31.725H16.067C24.8482 31.725 31.9964 24.6113 32 15.8684C32.0016 11.6315 30.3458 7.64749 27.3377 4.65031Z" fill="white"/>
</svg>
