<svg width="141" height="71" viewBox="0 0 141 71" fill="none" xmlns="http://www.w3.org/2000/svg">
<path d="M89.95 58.78L87.84 59.01C87.7732 58.7799 87.6584 58.5665 87.5033 58.3838C87.3482 58.2011 87.1563 58.0533 86.94 57.95C86.6558 57.829 86.3488 57.771 86.04 57.78C85.54 57.78 85.14 57.88 84.82 58.09C84.49 58.3 84.33 58.57 84.34 58.9C84.34 59.19 84.44 59.42 84.65 59.6C84.87 59.78 85.23 59.93 85.72 60.04L87.4 60.4C88.33 60.6 89.02 60.92 89.47 61.35C89.93 61.79 90.16 62.35 90.16 63.06C90.16 63.68 89.97 64.22 89.62 64.7C89.26 65.16 88.77 65.53 88.14 65.8C87.51 66.06 86.78 66.2 85.97 66.2C84.77 66.2 83.8 65.94 83.07 65.44C82.712 65.2007 82.409 64.8879 82.1814 64.5223C81.9538 64.1568 81.8067 63.7469 81.75 63.32L84.01 63.1C84.11 63.55 84.33 63.88 84.66 64.1C85 64.33 85.43 64.45 85.96 64.45C86.51 64.45 86.96 64.33 87.28 64.11C87.62 63.88 87.78 63.61 87.78 63.27C87.78 62.99 87.68 62.76 87.46 62.57C87.1655 62.3513 86.8224 62.2071 86.46 62.15L84.79 61.8C84.0107 61.6841 83.2833 61.3396 82.7 60.81C82.4748 60.5733 82.2995 60.2937 82.1844 59.988C82.0693 59.6822 82.0168 59.3564 82.03 59.03C82.03 58.43 82.19 57.9 82.53 57.46C82.86 57.01 83.33 56.66 83.93 56.42C84.53 56.18 85.21 56.05 86 56.05C87.15 56.05 88.05 56.3 88.72 56.79C89.3742 57.2672 89.8156 57.9815 89.95 58.78ZM96.41 66.19C95.43 66.19 94.58 65.99 93.86 65.58C93.16 65.16 92.6 64.58 92.22 63.83C91.8213 62.9941 91.6259 62.0758 91.65 61.15C91.65 60.14 91.84 59.25 92.22 58.49C92.5893 57.7329 93.1705 57.0993 93.893 56.6661C94.6155 56.233 95.4482 56.019 96.29 56.05C96.89 56.05 97.47 56.15 98.01 56.35C98.55 56.54 99.02 56.84 99.44 57.25C99.86 57.65 100.18 58.16 100.42 58.79C100.66 59.41 100.78 60.15 100.78 61.01V61.72H92.73V60.16H98.56C98.56 59.72 98.46 59.33 98.27 58.98C98.0899 58.6404 97.8201 58.3568 97.49 58.16C97.16 57.96 96.77 57.86 96.32 57.86C95.85 57.86 95.44 57.97 95.08 58.2C94.72 58.43 94.44 58.73 94.24 59.1C94.04 59.46 93.94 59.87 93.94 60.3V61.67C93.94 62.24 94.04 62.73 94.25 63.14C94.46 63.54 94.75 63.85 95.13 64.07C95.5 64.28 95.94 64.39 96.45 64.39C96.78 64.39 97.09 64.34 97.36 64.25C97.63 64.15 97.87 64.01 98.07 63.82C98.27 63.63 98.42 63.4 98.52 63.12L100.68 63.37C100.55 63.94 100.28 64.44 99.9 64.87C99.4995 65.305 99.003 65.6406 98.45 65.85C97.85 66.08 97.18 66.19 96.41 66.19ZM107.02 66.19C106.167 66.2398 105.318 66.0355 104.581 65.603C103.844 65.1704 103.252 64.5291 102.88 63.76C102.493 62.9381 102.302 62.0381 102.32 61.13C102.32 60.13 102.51 59.25 102.89 58.49C103.251 57.7495 103.816 57.1282 104.52 56.7C105.22 56.27 106.05 56.05 107.01 56.05C107.81 56.05 108.51 56.2 109.12 56.5C109.716 56.7746 110.227 57.2064 110.597 57.7489C110.967 58.2915 111.182 58.9244 111.22 59.58H109.02C108.92 59.11 108.72 58.72 108.38 58.4C108.199 58.2355 107.988 58.1084 107.758 58.026C107.528 57.9436 107.284 57.9076 107.04 57.92C106.57 57.92 106.15 58.05 105.79 58.3C105.43 58.56 105.16 58.92 104.96 59.4C104.76 59.86 104.66 60.43 104.66 61.1C104.66 61.76 104.76 62.34 104.96 62.82C105.16 63.29 105.43 63.66 105.78 63.92C106.14 64.18 106.56 64.31 107.04 64.31C107.38 64.31 107.68 64.24 107.95 64.11C108.23 63.98 108.45 63.79 108.64 63.55C108.82 63.3 108.94 63 109.02 62.65H111.22C111.188 63.3045 110.98 63.9383 110.618 64.4841C110.255 65.0299 109.751 65.4673 109.16 65.75C108.56 66.05 107.84 66.19 107.02 66.19ZM113.12 66V56.18H115.37V57.82H115.47C115.619 57.2968 115.937 56.8379 116.375 56.5156C116.813 56.1933 117.346 56.026 117.89 56.04C118.171 56.0411 118.452 56.0645 118.73 56.11V58.23C118.38 58.1417 118.021 58.0981 117.66 58.1C117.23 58.1 116.86 58.2 116.51 58.37C116.175 58.5482 115.897 58.8172 115.708 59.1462C115.518 59.4751 115.426 59.8508 115.44 60.23V66H113.13H113.12ZM124.2 66.2C123.22 66.2 122.37 65.99 121.65 65.58C120.95 65.16 120.4 64.58 120.01 63.83C119.611 62.9941 119.416 62.0758 119.44 61.15C119.44 60.14 119.63 59.25 120.01 58.49C120.379 57.7329 120.96 57.0993 121.683 56.6661C122.405 56.233 123.238 56.019 124.08 56.05C124.68 56.05 125.26 56.15 125.8 56.35C126.34 56.54 126.82 56.84 127.23 57.25C127.65 57.65 127.97 58.16 128.21 58.79C128.45 59.41 128.57 60.15 128.57 61.01V61.72H120.52V60.16H126.35C126.35 59.72 126.25 59.33 126.07 58.98C125.884 58.6378 125.608 58.3539 125.27 58.16C124.921 57.9564 124.524 57.8526 124.12 57.86C123.64 57.86 123.22 57.97 122.87 58.2C122.51 58.43 122.23 58.73 122.03 59.1C121.83 59.46 121.73 59.87 121.73 60.3V61.67C121.73 62.24 121.83 62.73 122.04 63.14C122.25 63.54 122.54 63.85 122.92 64.07C123.3 64.28 123.73 64.39 124.24 64.39C124.57 64.39 124.88 64.34 125.15 64.25C125.42 64.15 125.66 64.01 125.86 63.82C126.06 63.63 126.21 63.4 126.31 63.12L128.47 63.37C128.34 63.94 128.07 64.44 127.69 64.87C127.29 65.305 126.793 65.6406 126.24 65.85C125.64 66.08 124.97 66.19 124.21 66.19L124.2 66.2ZM135.43 56.18V57.98H129.79V56.18H135.43ZM131.18 53.83H133.49V63.05C133.49 63.35 133.54 63.6 133.63 63.76C133.73 63.92 133.86 64.04 134.02 64.1C134.18 64.15 134.35 64.18 134.54 64.18C134.769 64.188 134.999 64.161 135.22 64.1L135.61 65.9C135.169 66.0379 134.712 66.1153 134.25 66.13C133.67 66.15 133.15 66.06 132.68 65.87C132.22 65.67 131.85 65.37 131.58 64.97C131.295 64.5085 131.156 63.9719 131.18 63.43V53.83Z" fill="#9B4BA0"/>
<path d="M19.9414 48.4883L20.0586 43.3906C20.0586 33.2995 19.1406 26.2943 17.3047 22.375C15.3646 18.2474 12.9883 16.1836 10.1758 16.1836C7.63672 16.1836 5.39062 17.8047 3.4375 21.0469L2.44141 20.5195C5.33203 16.0273 8.48958 13.7812 11.9141 13.7812C20.0911 13.7812 24.1797 23.1628 24.1797 41.9258L30.4297 32.1406C34.2188 26.2161 36.1133 22.5117 36.1133 21.0273C36.1133 20.5326 35.5273 20.2852 34.3555 20.2852H32.793L33.0273 19.0938H41.4258L41.1719 20.2852H39.5508L21.9922 48L19.9414 48.4883ZM56.6992 42.668L56.4062 44.1719C52.2656 47.0495 48.737 48.4883 45.8203 48.4883C43.9714 48.4883 42.4674 47.8438 41.3086 46.5547C40.1628 45.2526 39.5898 43.5729 39.5898 41.5156C39.5898 37.8438 40.9961 34.3932 43.8086 31.1641C46.6211 27.9219 49.6224 26.3008 52.8125 26.3008C53.9714 26.3008 54.9089 26.6914 55.625 27.4727C56.3411 28.2539 56.6992 29.2695 56.6992 30.5195C56.6992 33.0195 55.4232 35.168 52.8711 36.9648C50.319 38.7617 47.2721 39.6602 43.7305 39.6602L43.7109 40.5391C43.7109 44.3411 45.1042 46.2422 47.8906 46.2422C50.2995 46.2422 53.2357 45.0508 56.6992 42.668ZM43.7695 38.4492C46.6862 38.2148 48.9648 37.4661 50.6055 36.2031C52.2461 34.9271 53.0664 33.2799 53.0664 31.2617C53.0664 29.2695 52.3438 28.2734 50.8984 28.2734C49.3359 28.2734 47.8255 29.3151 46.3672 31.3984C44.9089 33.4688 44.043 35.819 43.7695 38.4492ZM62.8516 48.2344L64.2969 42.2188L66.1914 32.668C66.3867 31.7044 66.4844 30.8711 66.4844 30.168C66.4844 29.0482 66.0938 28.4883 65.3125 28.4883C63.9323 28.4883 61.9596 29.9596 59.3945 32.9023L59.7461 31.1641C62.7539 27.9219 65.3646 26.3008 67.5781 26.3008C69.4531 26.3008 70.3906 27.375 70.3906 29.5234C70.3906 30.474 70.2734 31.5286 70.0391 32.6875L69.1016 37.3945H69.3555C70.9049 34.1393 72.7344 31.4831 74.8438 29.4258C76.9661 27.3555 78.9062 26.3203 80.6641 26.3203C81.5755 26.3203 82.3893 26.5221 83.1055 26.9258L80.5078 30.4414C79.7396 29.9336 79.0885 29.6797 78.5547 29.6797C76.0156 29.6797 72.6367 33.4102 68.418 40.8711L66.9922 48L62.8516 48.2344ZM83.5156 48L84.9023 42.2188L87.5977 28.7227C88.5352 24.0091 90.2995 20.3438 92.8906 17.7266C95.4948 15.0964 98.6589 13.7812 102.383 13.7812C103.672 13.7812 104.844 13.918 105.898 14.1914L103.203 16.9844C101.693 16.2943 100.391 15.9492 99.2969 15.9492C97.2266 15.9492 95.6706 16.7044 94.6289 18.2148C93.6003 19.7122 92.6693 22.5703 91.8359 26.7891L89.7266 37.3945H90.0586C91.556 34.1133 93.3333 31.4505 95.3906 29.4062C97.4609 27.349 99.401 26.3203 101.211 26.3203C103.971 26.3203 105.352 28.0391 105.352 31.4766C105.352 35.2786 103.848 38.9961 100.84 42.6289C97.7409 46.3659 93.9583 48.2344 89.4922 48.2344C88.8281 48.2344 87.9883 48.2148 86.9727 48.1758L83.5156 48ZM88.1641 45.2461C89.7786 45.9622 91.4062 46.3203 93.0469 46.3203C95.4036 46.3203 97.2917 44.8229 98.7109 41.8281C100.391 38.2865 101.23 35.1029 101.23 32.2773C101.23 30.2331 100.625 29.2109 99.4141 29.2109C98.3073 29.2109 96.6992 30.3893 94.5898 32.7461C92.4935 35.0898 90.6445 37.7786 89.043 40.8125L88.1641 45.2461ZM123.711 37.3945H123.359C121.888 40.6628 120.117 43.332 118.047 45.4023C115.977 47.4596 114.036 48.4883 112.227 48.4883C109.479 48.4883 108.105 46.7695 108.105 43.332C108.105 39.543 109.616 35.832 112.637 32.1992C115.762 28.4362 119.577 26.5547 124.082 26.5547C125.944 26.5547 127.891 26.6328 129.922 26.7891L128.516 32.5703L126.621 42.2188C126.322 43.7292 126.172 44.7057 126.172 45.1484C126.172 45.9688 126.556 46.3789 127.324 46.3789C128.626 46.3789 130.566 44.9466 133.145 42.082L132.793 43.8984C129.941 46.9583 127.383 48.4883 125.117 48.4883C123.229 48.4883 122.285 47.5052 122.285 45.5391C122.285 44.888 122.441 43.7812 122.754 42.2188L123.711 37.3945ZM125.273 29.582C123.633 28.8529 122.012 28.4883 120.41 28.4883C118.04 28.4883 116.146 29.9857 114.727 32.9805C113.06 36.5221 112.227 39.7057 112.227 42.5312C112.227 44.5755 112.826 45.5977 114.023 45.5977C115.143 45.5977 116.751 44.4258 118.848 42.082C120.957 39.7253 122.806 37.0365 124.395 34.0156L125.273 29.582Z" fill="black"/>
</svg>
