<svg width="141" height="71" viewBox="0 0 141 71" fill="none" xmlns="http://www.w3.org/2000/svg">
<path d="M89.95 58.78L87.84 59.01C87.7732 58.7799 87.6584 58.5665 87.5033 58.3838C87.3482 58.2011 87.1563 58.0533 86.94 57.95C86.6558 57.829 86.3488 57.771 86.04 57.78C85.54 57.78 85.14 57.88 84.82 58.09C84.49 58.3 84.33 58.57 84.34 58.9C84.34 59.19 84.44 59.42 84.65 59.6C84.87 59.78 85.23 59.93 85.72 60.04L87.4 60.4C88.33 60.6 89.02 60.92 89.47 61.35C89.93 61.79 90.16 62.35 90.16 63.06C90.16 63.68 89.97 64.22 89.62 64.7C89.26 65.16 88.77 65.53 88.14 65.8C87.51 66.06 86.78 66.2 85.97 66.2C84.77 66.2 83.8 65.94 83.07 65.44C82.712 65.2007 82.409 64.8879 82.1814 64.5223C81.9538 64.1568 81.8067 63.7469 81.75 63.32L84.01 63.1C84.11 63.55 84.33 63.88 84.66 64.1C85 64.33 85.43 64.45 85.96 64.45C86.51 64.45 86.96 64.33 87.28 64.11C87.62 63.88 87.78 63.61 87.78 63.27C87.78 62.99 87.68 62.76 87.46 62.57C87.1655 62.3513 86.8224 62.2071 86.46 62.15L84.79 61.8C84.0107 61.6841 83.2833 61.3396 82.7 60.81C82.4748 60.5733 82.2995 60.2937 82.1844 59.988C82.0693 59.6822 82.0168 59.3564 82.03 59.03C82.03 58.43 82.19 57.9 82.53 57.46C82.86 57.01 83.33 56.66 83.93 56.42C84.53 56.18 85.21 56.05 86 56.05C87.15 56.05 88.05 56.3 88.72 56.79C89.3742 57.2672 89.8156 57.9815 89.95 58.78ZM96.41 66.19C95.43 66.19 94.58 65.99 93.86 65.58C93.16 65.16 92.6 64.58 92.22 63.83C91.8213 62.9941 91.6259 62.0758 91.65 61.15C91.65 60.14 91.84 59.25 92.22 58.49C92.5893 57.7329 93.1705 57.0993 93.893 56.6661C94.6155 56.233 95.4482 56.019 96.29 56.05C96.89 56.05 97.47 56.15 98.01 56.35C98.55 56.54 99.02 56.84 99.44 57.25C99.86 57.65 100.18 58.16 100.42 58.79C100.66 59.41 100.78 60.15 100.78 61.01V61.72H92.73V60.16H98.56C98.56 59.72 98.46 59.33 98.27 58.98C98.0899 58.6404 97.8201 58.3568 97.49 58.16C97.16 57.96 96.77 57.86 96.32 57.86C95.85 57.86 95.44 57.97 95.08 58.2C94.72 58.43 94.44 58.73 94.24 59.1C94.04 59.46 93.94 59.87 93.94 60.3V61.67C93.94 62.24 94.04 62.73 94.25 63.14C94.46 63.54 94.75 63.85 95.13 64.07C95.5 64.28 95.94 64.39 96.45 64.39C96.78 64.39 97.09 64.34 97.36 64.25C97.63 64.15 97.87 64.01 98.07 63.82C98.27 63.63 98.42 63.4 98.52 63.12L100.68 63.37C100.55 63.94 100.28 64.44 99.9 64.87C99.4995 65.305 99.003 65.6406 98.45 65.85C97.85 66.08 97.18 66.19 96.41 66.19ZM107.02 66.19C106.167 66.2398 105.318 66.0355 104.581 65.603C103.844 65.1704 103.252 64.5291 102.88 63.76C102.493 62.9381 102.302 62.0381 102.32 61.13C102.32 60.13 102.51 59.25 102.89 58.49C103.251 57.7495 103.816 57.1282 104.52 56.7C105.22 56.27 106.05 56.05 107.01 56.05C107.81 56.05 108.51 56.2 109.12 56.5C109.716 56.7746 110.227 57.2064 110.597 57.7489C110.967 58.2915 111.182 58.9244 111.22 59.58H109.02C108.92 59.11 108.72 58.72 108.38 58.4C108.199 58.2355 107.988 58.1084 107.758 58.026C107.528 57.9436 107.284 57.9076 107.04 57.92C106.57 57.92 106.15 58.05 105.79 58.3C105.43 58.56 105.16 58.92 104.96 59.4C104.76 59.86 104.66 60.43 104.66 61.1C104.66 61.76 104.76 62.34 104.96 62.82C105.16 63.29 105.43 63.66 105.78 63.92C106.14 64.18 106.56 64.31 107.04 64.31C107.38 64.31 107.68 64.24 107.95 64.11C108.23 63.98 108.45 63.79 108.64 63.55C108.82 63.3 108.94 63 109.02 62.65H111.22C111.188 63.3045 110.98 63.9383 110.618 64.4841C110.255 65.0299 109.751 65.4673 109.16 65.75C108.56 66.05 107.84 66.19 107.02 66.19ZM113.12 66V56.18H115.37V57.82H115.47C115.619 57.2968 115.937 56.8379 116.375 56.5156C116.813 56.1933 117.346 56.026 117.89 56.04C118.171 56.0411 118.452 56.0645 118.73 56.11V58.23C118.38 58.1417 118.021 58.0981 117.66 58.1C117.23 58.1 116.86 58.2 116.51 58.37C116.175 58.5482 115.897 58.8172 115.708 59.1462C115.518 59.4751 115.426 59.8508 115.44 60.23V66H113.13H113.12ZM124.2 66.2C123.22 66.2 122.37 65.99 121.65 65.58C120.95 65.16 120.4 64.58 120.01 63.83C119.611 62.9941 119.416 62.0758 119.44 61.15C119.44 60.14 119.63 59.25 120.01 58.49C120.379 57.7329 120.96 57.0993 121.683 56.6661C122.405 56.233 123.238 56.019 124.08 56.05C124.68 56.05 125.26 56.15 125.8 56.35C126.34 56.54 126.82 56.84 127.23 57.25C127.65 57.65 127.97 58.16 128.21 58.79C128.45 59.41 128.57 60.15 128.57 61.01V61.72H120.52V60.16H126.35C126.35 59.72 126.25 59.33 126.07 58.98C125.884 58.6378 125.608 58.3539 125.27 58.16C124.921 57.9564 124.524 57.8526 124.12 57.86C123.64 57.86 123.22 57.97 122.87 58.2C122.51 58.43 122.23 58.73 122.03 59.1C121.83 59.46 121.73 59.87 121.73 60.3V61.67C121.73 62.24 121.83 62.73 122.04 63.14C122.25 63.54 122.54 63.85 122.92 64.07C123.3 64.28 123.73 64.39 124.24 64.39C124.57 64.39 124.88 64.34 125.15 64.25C125.42 64.15 125.66 64.01 125.86 63.82C126.06 63.63 126.21 63.4 126.31 63.12L128.47 63.37C128.34 63.94 128.07 64.44 127.69 64.87C127.29 65.305 126.793 65.6406 126.24 65.85C125.64 66.08 124.97 66.19 124.21 66.19L124.2 66.2ZM135.43 56.18V57.98H129.79V56.18H135.43ZM131.18 53.83H133.49V63.05C133.49 63.35 133.54 63.6 133.63 63.76C133.73 63.92 133.86 64.04 134.02 64.1C134.18 64.15 134.35 64.18 134.54 64.18C134.769 64.188 134.999 64.161 135.22 64.1L135.61 65.9C135.169 66.0379 134.712 66.1153 134.25 66.13C133.67 66.15 133.15 66.06 132.68 65.87C132.22 65.67 131.85 65.37 131.58 64.97C131.295 64.5085 131.156 63.9719 131.18 63.43V53.83Z" fill="#9B4BA0"/>
<path d="M17.9473 44.4395L18.0527 39.8516C18.0527 30.7695 17.2266 24.4648 15.5742 20.9375C13.8281 17.2227 11.6895 15.3652 9.1582 15.3652C6.87305 15.3652 4.85156 16.8242 3.09375 19.7422L2.19727 19.2676C4.79883 15.2246 7.64062 13.2031 10.7227 13.2031C18.082 13.2031 21.7617 21.6465 21.7617 38.5332L27.3867 29.7266C30.7969 24.3945 32.502 21.0605 32.502 19.7246C32.502 19.2793 31.9746 19.0566 30.9199 19.0566H29.5137L29.7246 17.9844H37.2832L37.0547 19.0566H35.5957L19.793 44L17.9473 44.4395ZM51.0293 39.2012L50.7656 40.5547C47.0391 43.1445 43.8633 44.4395 41.2383 44.4395C39.5742 44.4395 38.2207 43.8594 37.1777 42.6992C36.1465 41.5273 35.6309 40.0156 35.6309 38.1641C35.6309 34.8594 36.8965 31.7539 39.4277 28.8477C41.959 25.9297 44.6602 24.4707 47.5312 24.4707C48.5742 24.4707 49.418 24.8223 50.0625 25.5254C50.707 26.2285 51.0293 27.1426 51.0293 28.2676C51.0293 30.5176 49.8809 32.4512 47.584 34.0684C45.2871 35.6855 42.5449 36.4941 39.3574 36.4941L39.3398 37.2852C39.3398 40.707 40.5938 42.418 43.1016 42.418C45.2695 42.418 47.9121 41.3457 51.0293 39.2012ZM39.3926 35.4043C42.0176 35.1934 44.0684 34.5195 45.5449 33.3828C47.0215 32.2344 47.7598 30.752 47.7598 28.9355C47.7598 27.1426 47.1094 26.2461 45.8086 26.2461C44.4023 26.2461 43.043 27.1836 41.7305 29.0586C40.418 30.9219 39.6387 33.0371 39.3926 35.4043ZM56.5664 44.2109L57.8672 38.7969L59.5723 30.2012C59.748 29.334 59.8359 28.584 59.8359 27.9512C59.8359 26.9434 59.4844 26.4395 58.7812 26.4395C57.5391 26.4395 55.7637 27.7637 53.4551 30.4121L53.7715 28.8477C56.4785 25.9297 58.8281 24.4707 60.8203 24.4707C62.5078 24.4707 63.3516 25.4375 63.3516 27.3711C63.3516 28.2266 63.2461 29.1758 63.0352 30.2188L62.1914 34.4551H62.4199C63.8145 31.5254 65.4609 29.1348 67.3594 27.2832C69.2695 25.4199 71.0156 24.4883 72.5977 24.4883C73.418 24.4883 74.1504 24.6699 74.7949 25.0332L72.457 28.1973C71.7656 27.7402 71.1797 27.5117 70.6992 27.5117C68.4141 27.5117 65.373 30.8691 61.5762 37.584L60.293 44L56.5664 44.2109ZM75.1641 44L76.4121 38.7969L78.8379 26.6504C79.6816 22.4082 81.2695 19.1094 83.6016 16.7539C85.9453 14.3867 88.793 13.2031 92.1445 13.2031C93.3047 13.2031 94.3594 13.3262 95.3086 13.5723L92.8828 16.0859C91.5234 15.4648 90.3516 15.1543 89.3672 15.1543C87.5039 15.1543 86.1035 15.834 85.166 17.1934C84.2402 18.541 83.4023 21.1133 82.6523 24.9102L80.7539 34.4551H81.0527C82.4004 31.502 84 29.1055 85.8516 27.2656C87.7148 25.4141 89.4609 24.4883 91.0898 24.4883C93.5742 24.4883 94.8164 26.0352 94.8164 29.1289C94.8164 32.5508 93.4629 35.8965 90.7559 39.166C87.9668 42.5293 84.5625 44.2109 80.543 44.2109C79.9453 44.2109 79.1895 44.1934 78.2754 44.1582L75.1641 44ZM79.3477 41.5215C80.8008 42.166 82.2656 42.4883 83.7422 42.4883C85.8633 42.4883 87.5625 41.1406 88.8398 38.4453C90.3516 35.2578 91.1074 32.3926 91.1074 29.8496C91.1074 28.0098 90.5625 27.0898 89.4727 27.0898C88.4766 27.0898 87.0293 28.1504 85.1309 30.2715C83.2441 32.3809 81.5801 34.8008 80.1387 37.5312L79.3477 41.5215ZM111.34 34.4551H111.023C109.699 37.3965 108.105 39.7988 106.242 41.6621C104.379 43.5137 102.633 44.4395 101.004 44.4395C98.5312 44.4395 97.2949 42.8926 97.2949 39.7988C97.2949 36.3887 98.6543 33.0488 101.373 29.7793C104.186 26.3926 107.619 24.6992 111.674 24.6992C113.35 24.6992 115.102 24.7695 116.93 24.9102L115.664 30.1133L113.959 38.7969C113.689 40.1562 113.555 41.0352 113.555 41.4336C113.555 42.1719 113.9 42.541 114.592 42.541C115.764 42.541 117.51 41.252 119.83 38.6738L119.514 40.3086C116.947 43.0625 114.645 44.4395 112.605 44.4395C110.906 44.4395 110.057 43.5547 110.057 41.7852C110.057 41.1992 110.197 40.2031 110.479 38.7969L111.34 34.4551ZM112.746 27.4238C111.27 26.7676 109.811 26.4395 108.369 26.4395C106.236 26.4395 104.531 27.7871 103.254 30.4824C101.754 33.6699 101.004 36.5352 101.004 39.0781C101.004 40.918 101.543 41.8379 102.621 41.8379C103.629 41.8379 105.076 40.7832 106.963 38.6738C108.861 36.5527 110.525 34.1328 111.955 31.4141L112.746 27.4238Z" fill="black"/>
</svg>
