<svg width="141" height="71" viewBox="0 0 141 71" fill="none" xmlns="http://www.w3.org/2000/svg">
<path d="M89.95 58.78L87.84 59.01C87.7732 58.7799 87.6584 58.5665 87.5033 58.3838C87.3482 58.2011 87.1563 58.0533 86.94 57.95C86.6558 57.829 86.3488 57.771 86.04 57.78C85.54 57.78 85.14 57.88 84.82 58.09C84.49 58.3 84.33 58.57 84.34 58.9C84.34 59.19 84.44 59.42 84.65 59.6C84.87 59.78 85.23 59.93 85.72 60.04L87.4 60.4C88.33 60.6 89.02 60.92 89.47 61.35C89.93 61.79 90.16 62.35 90.16 63.06C90.16 63.68 89.97 64.22 89.62 64.7C89.26 65.16 88.77 65.53 88.14 65.8C87.51 66.06 86.78 66.2 85.97 66.2C84.77 66.2 83.8 65.94 83.07 65.44C82.712 65.2007 82.409 64.8879 82.1814 64.5223C81.9538 64.1568 81.8067 63.7469 81.75 63.32L84.01 63.1C84.11 63.55 84.33 63.88 84.66 64.1C85 64.33 85.43 64.45 85.96 64.45C86.51 64.45 86.96 64.33 87.28 64.11C87.62 63.88 87.78 63.61 87.78 63.27C87.78 62.99 87.68 62.76 87.46 62.57C87.1655 62.3513 86.8224 62.2071 86.46 62.15L84.79 61.8C84.0107 61.6841 83.2833 61.3396 82.7 60.81C82.4748 60.5733 82.2995 60.2937 82.1844 59.988C82.0693 59.6822 82.0168 59.3564 82.03 59.03C82.03 58.43 82.19 57.9 82.53 57.46C82.86 57.01 83.33 56.66 83.93 56.42C84.53 56.18 85.21 56.05 86 56.05C87.15 56.05 88.05 56.3 88.72 56.79C89.3742 57.2672 89.8156 57.9815 89.95 58.78ZM96.41 66.19C95.43 66.19 94.58 65.99 93.86 65.58C93.16 65.16 92.6 64.58 92.22 63.83C91.8213 62.9941 91.6259 62.0758 91.65 61.15C91.65 60.14 91.84 59.25 92.22 58.49C92.5893 57.7329 93.1705 57.0993 93.893 56.6661C94.6155 56.233 95.4482 56.019 96.29 56.05C96.89 56.05 97.47 56.15 98.01 56.35C98.55 56.54 99.02 56.84 99.44 57.25C99.86 57.65 100.18 58.16 100.42 58.79C100.66 59.41 100.78 60.15 100.78 61.01V61.72H92.73V60.16H98.56C98.56 59.72 98.46 59.33 98.27 58.98C98.0899 58.6404 97.8201 58.3568 97.49 58.16C97.16 57.96 96.77 57.86 96.32 57.86C95.85 57.86 95.44 57.97 95.08 58.2C94.72 58.43 94.44 58.73 94.24 59.1C94.04 59.46 93.94 59.87 93.94 60.3V61.67C93.94 62.24 94.04 62.73 94.25 63.14C94.46 63.54 94.75 63.85 95.13 64.07C95.5 64.28 95.94 64.39 96.45 64.39C96.78 64.39 97.09 64.34 97.36 64.25C97.63 64.15 97.87 64.01 98.07 63.82C98.27 63.63 98.42 63.4 98.52 63.12L100.68 63.37C100.55 63.94 100.28 64.44 99.9 64.87C99.4995 65.305 99.003 65.6406 98.45 65.85C97.85 66.08 97.18 66.19 96.41 66.19ZM107.02 66.19C106.167 66.2398 105.318 66.0355 104.581 65.603C103.844 65.1704 103.252 64.5291 102.88 63.76C102.493 62.9381 102.302 62.0381 102.32 61.13C102.32 60.13 102.51 59.25 102.89 58.49C103.251 57.7495 103.816 57.1282 104.52 56.7C105.22 56.27 106.05 56.05 107.01 56.05C107.81 56.05 108.51 56.2 109.12 56.5C109.716 56.7746 110.227 57.2064 110.597 57.7489C110.967 58.2915 111.182 58.9244 111.22 59.58H109.02C108.92 59.11 108.72 58.72 108.38 58.4C108.199 58.2355 107.988 58.1084 107.758 58.026C107.528 57.9436 107.284 57.9076 107.04 57.92C106.57 57.92 106.15 58.05 105.79 58.3C105.43 58.56 105.16 58.92 104.96 59.4C104.76 59.86 104.66 60.43 104.66 61.1C104.66 61.76 104.76 62.34 104.96 62.82C105.16 63.29 105.43 63.66 105.78 63.92C106.14 64.18 106.56 64.31 107.04 64.31C107.38 64.31 107.68 64.24 107.95 64.11C108.23 63.98 108.45 63.79 108.64 63.55C108.82 63.3 108.94 63 109.02 62.65H111.22C111.188 63.3045 110.98 63.9383 110.618 64.4841C110.255 65.0299 109.751 65.4673 109.16 65.75C108.56 66.05 107.84 66.19 107.02 66.19ZM113.12 66V56.18H115.37V57.82H115.47C115.619 57.2968 115.937 56.8379 116.375 56.5156C116.813 56.1933 117.346 56.026 117.89 56.04C118.171 56.0411 118.452 56.0645 118.73 56.11V58.23C118.38 58.1417 118.021 58.0981 117.66 58.1C117.23 58.1 116.86 58.2 116.51 58.37C116.175 58.5482 115.897 58.8172 115.708 59.1462C115.518 59.4751 115.426 59.8508 115.44 60.23V66H113.13H113.12ZM124.2 66.2C123.22 66.2 122.37 65.99 121.65 65.58C120.95 65.16 120.4 64.58 120.01 63.83C119.611 62.9941 119.416 62.0758 119.44 61.15C119.44 60.14 119.63 59.25 120.01 58.49C120.379 57.7329 120.96 57.0993 121.683 56.6661C122.405 56.233 123.238 56.019 124.08 56.05C124.68 56.05 125.26 56.15 125.8 56.35C126.34 56.54 126.82 56.84 127.23 57.25C127.65 57.65 127.97 58.16 128.21 58.79C128.45 59.41 128.57 60.15 128.57 61.01V61.72H120.52V60.16H126.35C126.35 59.72 126.25 59.33 126.07 58.98C125.884 58.6378 125.608 58.3539 125.27 58.16C124.921 57.9564 124.524 57.8526 124.12 57.86C123.64 57.86 123.22 57.97 122.87 58.2C122.51 58.43 122.23 58.73 122.03 59.1C121.83 59.46 121.73 59.87 121.73 60.3V61.67C121.73 62.24 121.83 62.73 122.04 63.14C122.25 63.54 122.54 63.85 122.92 64.07C123.3 64.28 123.73 64.39 124.24 64.39C124.57 64.39 124.88 64.34 125.15 64.25C125.42 64.15 125.66 64.01 125.86 63.82C126.06 63.63 126.21 63.4 126.31 63.12L128.47 63.37C128.34 63.94 128.07 64.44 127.69 64.87C127.29 65.305 126.793 65.6406 126.24 65.85C125.64 66.08 124.97 66.19 124.21 66.19L124.2 66.2ZM135.43 56.18V57.98H129.79V56.18H135.43ZM131.18 53.83H133.49V63.05C133.49 63.35 133.54 63.6 133.63 63.76C133.73 63.92 133.86 64.04 134.02 64.1C134.18 64.15 134.35 64.18 134.54 64.18C134.769 64.188 134.999 64.161 135.22 64.1L135.61 65.9C135.169 66.0379 134.712 66.1153 134.25 66.13C133.67 66.15 133.15 66.06 132.68 65.87C132.22 65.67 131.85 65.37 131.58 64.97C131.295 64.5085 131.156 63.9719 131.18 63.43V53.83Z" fill="#9B4BA0"/>
<path d="M47.6705 31.5455L51.8892 44.8068H52.0511L56.2784 31.5455H60.3693L54.3523 49H49.5966L43.571 31.5455H47.6705ZM66.8913 49.2557C65.5447 49.2557 64.3857 48.983 63.4141 48.4375C62.4482 47.8864 61.7038 47.108 61.1811 46.1023C60.6584 45.0909 60.397 43.8949 60.397 42.5142C60.397 41.1676 60.6584 39.9858 61.1811 38.9688C61.7038 37.9517 62.4396 37.1591 63.3885 36.5909C64.343 36.0227 65.4624 35.7386 66.7464 35.7386C67.6101 35.7386 68.4141 35.8778 69.1584 36.1562C69.9084 36.429 70.5618 36.8409 71.1186 37.392C71.6811 37.9432 72.1186 38.6364 72.4311 39.4716C72.7436 40.3011 72.8999 41.2727 72.8999 42.3864V43.3835H61.8459V41.1335H69.4822C69.4822 40.6108 69.3686 40.1477 69.1413 39.7443C68.9141 39.3409 68.5987 39.0256 68.1953 38.7983C67.7976 38.5653 67.3345 38.4489 66.8061 38.4489C66.255 38.4489 65.7663 38.5767 65.3402 38.8324C64.9197 39.0824 64.5902 39.4205 64.3516 39.8466C64.1129 40.267 63.9908 40.7358 63.9851 41.2528V43.392C63.9851 44.0398 64.1044 44.5994 64.343 45.071C64.5874 45.5426 64.9311 45.9062 65.3743 46.1619C65.8175 46.4176 66.343 46.5455 66.951 46.5455C67.3544 46.5455 67.7237 46.4886 68.0589 46.375C68.3942 46.2614 68.6811 46.0909 68.9197 45.8636C69.1584 45.6364 69.3402 45.358 69.4652 45.0284L72.8232 45.25C72.6527 46.0568 72.3033 46.7614 71.7749 47.3636C71.2521 47.9602 70.576 48.4261 69.7464 48.7614C68.9226 49.0909 67.9709 49.2557 66.8913 49.2557ZM75.2692 49V35.9091H78.7891V38.1932H78.9254C79.1641 37.3807 79.5646 36.767 80.1271 36.3523C80.6896 35.9318 81.3374 35.7216 82.0703 35.7216C82.2521 35.7216 82.4482 35.733 82.6584 35.7557C82.8686 35.7784 83.0533 35.8097 83.2124 35.8494V39.071C83.0419 39.0199 82.8061 38.9744 82.505 38.9347C82.2038 38.8949 81.9283 38.875 81.6783 38.875C81.1442 38.875 80.6669 38.9915 80.2464 39.2244C79.8317 39.4517 79.5021 39.7699 79.2578 40.179C79.0192 40.5881 78.8999 41.0597 78.8999 41.5938V49H75.2692ZM85.1577 49V31.5455H88.7884V38.108H88.8991C89.0582 37.7557 89.2884 37.3977 89.5895 37.0341C89.8963 36.6648 90.294 36.358 90.7827 36.1136C91.277 35.8636 91.8906 35.7386 92.6236 35.7386C93.5781 35.7386 94.4588 35.9886 95.2656 36.4886C96.0724 36.983 96.7173 37.7301 97.2003 38.7301C97.6832 39.7244 97.9247 40.9716 97.9247 42.4716C97.9247 43.9318 97.6889 45.1648 97.2173 46.1705C96.7514 47.1705 96.1151 47.929 95.3082 48.446C94.5071 48.9574 93.6094 49.2131 92.6151 49.2131C91.9105 49.2131 91.3111 49.0966 90.8168 48.8636C90.3281 48.6307 89.9276 48.3381 89.6151 47.9858C89.3026 47.6278 89.0639 47.267 88.8991 46.9034H88.7372V49H85.1577ZM88.7116 42.4545C88.7116 43.233 88.8196 43.9119 89.0355 44.4915C89.2514 45.071 89.5639 45.5227 89.973 45.8466C90.3821 46.1648 90.8793 46.3239 91.4645 46.3239C92.0554 46.3239 92.5554 46.1619 92.9645 45.8381C93.3736 45.5085 93.6832 45.054 93.8935 44.4744C94.1094 43.8892 94.2173 43.2159 94.2173 42.4545C94.2173 41.6989 94.1122 41.0341 93.902 40.4602C93.6918 39.8864 93.3821 39.4375 92.973 39.1136C92.5639 38.7898 92.0611 38.6278 91.4645 38.6278C90.8736 38.6278 90.3736 38.7841 89.9645 39.0966C89.5611 39.4091 89.2514 39.8523 89.0355 40.4261C88.8196 41 88.7116 41.6761 88.7116 42.4545ZM104.08 49.2472C103.245 49.2472 102.501 49.1023 101.847 48.8125C101.194 48.517 100.677 48.0824 100.296 47.5085C99.9212 46.929 99.7337 46.2074 99.7337 45.3438C99.7337 44.6165 99.8672 44.0057 100.134 43.5114C100.401 43.017 100.765 42.6193 101.225 42.3182C101.685 42.017 102.208 41.7898 102.793 41.6364C103.384 41.483 104.004 41.375 104.651 41.3125C105.413 41.233 106.026 41.1591 106.492 41.0909C106.958 41.017 107.296 40.9091 107.506 40.767C107.717 40.625 107.822 40.4148 107.822 40.1364V40.0852C107.822 39.5455 107.651 39.1278 107.31 38.8324C106.975 38.5369 106.498 38.3892 105.879 38.3892C105.225 38.3892 104.705 38.5341 104.319 38.8239C103.933 39.108 103.677 39.4659 103.552 39.8977L100.194 39.625C100.364 38.8295 100.7 38.142 101.2 37.5625C101.7 36.9773 102.344 36.5284 103.134 36.2159C103.93 35.8977 104.85 35.7386 105.896 35.7386C106.623 35.7386 107.319 35.8239 107.984 35.9943C108.654 36.1648 109.248 36.429 109.765 36.7869C110.288 37.1449 110.7 37.6051 111.001 38.1676C111.302 38.7244 111.452 39.392 111.452 40.1705V49H108.009V47.1847H107.907C107.697 47.5938 107.415 47.9545 107.063 48.267C106.711 48.5739 106.288 48.8153 105.793 48.9915C105.299 49.1619 104.728 49.2472 104.08 49.2472ZM105.12 46.7415C105.654 46.7415 106.126 46.6364 106.535 46.4261C106.944 46.2102 107.265 45.9205 107.498 45.5568C107.731 45.1932 107.847 44.7812 107.847 44.321V42.9318C107.734 43.0057 107.577 43.0739 107.379 43.1364C107.185 43.1932 106.967 43.2472 106.722 43.2983C106.478 43.3437 106.234 43.3864 105.989 43.4261C105.745 43.4602 105.523 43.4915 105.325 43.5199C104.898 43.5824 104.526 43.6818 104.208 43.8182C103.89 43.9545 103.643 44.1392 103.467 44.3722C103.29 44.5994 103.202 44.8835 103.202 45.2244C103.202 45.7188 103.381 46.0966 103.739 46.358C104.103 46.6136 104.563 46.7415 105.12 46.7415Z" fill="black"/>
</svg>
