<svg width="140" height="32" viewBox="0 0 140 32" fill="none" xmlns="http://www.w3.org/2000/svg">
<path fill-rule="evenodd" clip-rule="evenodd" d="M23.3309 19.1762C22.9328 18.9779 20.9755 18.0195 20.6106 17.8871C20.2457 17.7549 19.9803 17.6889 19.7149 18.0855C19.4495 18.482 18.6865 19.3745 18.4543 19.639C18.2221 19.9034 17.9898 19.9366 17.5917 19.7381C17.1936 19.5399 15.9108 19.1215 14.3902 17.7716C13.2067 16.721 12.4077 15.4236 12.1756 15.0269C11.9433 14.6303 12.1507 14.4158 12.35 14.2183C12.5292 14.0407 12.7482 13.7555 12.9472 13.5241C13.1463 13.2928 13.2126 13.1274 13.3454 12.8632C13.4781 12.5987 13.4117 12.3674 13.3121 12.1691C13.2126 11.9708 12.4164 10.0205 12.0847 9.22711C11.7615 8.45461 11.4333 8.55925 11.1889 8.54699C10.957 8.53553 10.6913 8.53308 10.426 8.53308C10.1606 8.53308 9.72921 8.63224 9.36422 9.02878C8.99941 9.42544 7.97091 10.3841 7.97091 12.3341C7.97091 14.2845 9.3974 16.1684 9.59651 16.4328C9.79562 16.6973 12.4037 20.6992 16.3975 22.4154C17.3473 22.8237 18.0888 23.0674 18.667 23.25C19.6207 23.5516 20.4885 23.509 21.1746 23.407C21.9394 23.2933 23.53 22.4486 23.8617 21.5231C24.1935 20.5975 24.1935 19.8042 24.0939 19.639C23.9944 19.4737 23.729 19.3745 23.3309 19.1762ZM16.0669 29.0471H16.0616C13.6852 29.0462 11.3545 28.4107 9.32125 27.21L8.83766 26.9243L3.82551 28.2328L5.1633 23.3694L4.84851 22.8707C3.52286 20.7723 2.82267 18.3471 2.82371 15.8567C2.82663 8.5901 8.76747 2.67813 16.0722 2.67813C19.6094 2.67939 22.9344 4.05207 25.4348 6.54334C27.935 9.03443 29.3112 12.3458 29.3098 15.8673C29.3068 23.1346 23.3661 29.0471 16.0669 29.0471ZM27.3377 4.65031C24.3295 1.65307 20.3291 0.00171072 16.0668 0C7.28465 0 0.137057 7.11295 0.133505 15.8557C0.132359 18.6505 0.866003 21.3783 2.26029 23.7831L0 32L8.44631 29.795C10.7736 31.0583 13.3938 31.7241 16.0604 31.725H16.067C24.8482 31.725 31.9964 24.6113 32 15.8684C32.0016 11.6315 30.3458 7.64749 27.3377 4.65031Z" fill="white"/>
<path d="M42.4957 23L38.3906 8.45455H41.2244L43.8452 19.1435H43.9801L46.7784 8.45455H49.3565L52.1619 19.1506H52.2898L54.9105 8.45455H57.7443L53.6392 23H51.0398L48.1278 12.794H48.0142L45.0952 23H42.4957ZM62.0288 16.608V23H59.4577V8.45455H61.9719V13.9446H62.0998C62.3555 13.3291 62.7508 12.8437 63.2859 12.4886C63.8256 12.1288 64.5122 11.9489 65.3455 11.9489C66.1031 11.9489 66.7636 12.1075 67.3271 12.4247C67.8905 12.742 68.3261 13.206 68.6339 13.8168C68.9464 14.4276 69.1026 15.1733 69.1026 16.054V23H66.5316V16.4517C66.5316 15.7178 66.3422 15.1473 65.9634 14.7401C65.5894 14.3281 65.0638 14.1222 64.3867 14.1222C63.9322 14.1222 63.525 14.2216 63.1651 14.4205C62.81 14.6146 62.5307 14.8963 62.3271 15.2656C62.1282 15.6349 62.0288 16.0824 62.0288 16.608ZM74.8626 23.2202C74.1713 23.2202 73.5487 23.0971 72.9947 22.8509C72.4454 22.5999 72.0098 22.2306 71.6879 21.7429C71.3706 21.2552 71.212 20.6539 71.212 19.9389C71.212 19.3234 71.3256 18.8144 71.5529 18.4119C71.7802 18.0095 72.0903 17.6875 72.4833 17.446C72.8763 17.2045 73.319 17.0223 73.8114 16.8991C74.3086 16.7713 74.8223 16.679 75.3526 16.6222C75.9918 16.5559 76.5103 16.4967 76.908 16.4446C77.3058 16.3878 77.5946 16.3026 77.7745 16.1889C77.9592 16.0705 78.0515 15.8883 78.0515 15.642V15.5994C78.0515 15.0644 77.8929 14.6501 77.5756 14.3565C77.2584 14.063 76.8015 13.9162 76.2049 13.9162C75.5752 13.9162 75.0756 14.0535 74.7063 14.3281C74.3417 14.6027 74.0955 14.9271 73.9677 15.3011L71.5671 14.9602C71.7565 14.2973 72.069 13.7434 72.5046 13.2983C72.9402 12.8485 73.4729 12.5123 74.1026 12.2898C74.7324 12.0625 75.4284 11.9489 76.1907 11.9489C76.7163 11.9489 77.2395 12.0104 77.7603 12.1335C78.2811 12.2566 78.757 12.4602 79.1879 12.7443C79.6187 13.0237 79.9644 13.4048 80.2248 13.8878C80.4899 14.3707 80.6225 14.9744 80.6225 15.6989V23H78.1509V21.5014H78.0657C77.9094 21.8045 77.6893 22.0885 77.4052 22.3537C77.1258 22.6141 76.7731 22.8248 76.3469 22.9858C75.9255 23.142 75.4308 23.2202 74.8626 23.2202ZM75.5302 21.331C76.0463 21.331 76.4937 21.2292 76.8725 21.0256C77.2513 20.8172 77.5425 20.5426 77.7461 20.2017C77.9544 19.8608 78.0586 19.4891 78.0586 19.0866V17.8011C77.9781 17.8674 77.8408 17.929 77.6467 17.9858C77.4573 18.0426 77.2442 18.0923 77.0075 18.1349C76.7707 18.1776 76.5363 18.2154 76.3043 18.2486C76.0723 18.2817 75.8711 18.3101 75.7006 18.3338C75.3171 18.3859 74.9738 18.4711 74.6708 18.5895C74.3678 18.7079 74.1287 18.8736 73.9535 19.0866C73.7783 19.295 73.6907 19.5649 73.6907 19.8963C73.6907 20.3698 73.8635 20.7273 74.2092 20.9688C74.5548 21.2102 74.9951 21.331 75.5302 21.331ZM88.6552 12.0909V14.0795H82.3839V12.0909H88.6552ZM83.9322 9.47727H86.5032V19.7188C86.5032 20.0644 86.5553 20.3295 86.6594 20.5142C86.7683 20.6941 86.9104 20.8172 87.0856 20.8835C87.2608 20.9498 87.4549 20.983 87.668 20.983C87.829 20.983 87.9757 20.9711 88.1083 20.9474C88.2456 20.9238 88.3498 20.9025 88.4208 20.8835L88.854 22.8935C88.7167 22.9408 88.5202 22.9929 88.2646 23.0497C88.0136 23.1065 87.7058 23.1397 87.3413 23.1491C86.6973 23.1681 86.1173 23.071 85.6012 22.858C85.0851 22.6402 84.6755 22.304 84.3725 21.8494C84.0742 21.3949 83.9274 20.8267 83.9322 20.1449V9.47727ZM99.2713 14.9744L96.9276 15.2301C96.8613 14.9934 96.7453 14.7708 96.5795 14.5625C96.4186 14.3542 96.2008 14.1861 95.9261 14.0582C95.6515 13.9304 95.3153 13.8665 94.9176 13.8665C94.3826 13.8665 93.9328 13.9825 93.5682 14.2145C93.2083 14.4465 93.0308 14.7472 93.0355 15.1165C93.0308 15.4337 93.1468 15.6918 93.3835 15.8906C93.625 16.0895 94.0227 16.2528 94.5767 16.3807L96.4375 16.7784C97.4697 17.0009 98.2367 17.3537 98.7386 17.8366C99.2453 18.3196 99.5009 18.9517 99.5057 19.733C99.5009 20.4195 99.2997 21.0256 98.902 21.5511C98.509 22.072 97.9621 22.4792 97.2614 22.7727C96.5606 23.0663 95.7557 23.2131 94.8466 23.2131C93.5114 23.2131 92.4366 22.9337 91.6222 22.375C90.8078 21.8116 90.3224 21.0279 90.1662 20.0241L92.6733 19.7827C92.7869 20.2751 93.0284 20.6468 93.3977 20.8977C93.767 21.1487 94.2476 21.2741 94.8395 21.2741C95.4503 21.2741 95.9403 21.1487 96.3097 20.8977C96.6837 20.6468 96.8707 20.3366 96.8707 19.9673C96.8707 19.6548 96.75 19.3968 96.5085 19.1932C96.2718 18.9896 95.9025 18.8333 95.4006 18.7244L93.5398 18.3338C92.4934 18.116 91.7192 17.7491 91.2173 17.233C90.7154 16.7121 90.4669 16.054 90.4716 15.2585C90.4669 14.5862 90.6491 14.0038 91.0185 13.5114C91.3925 13.0142 91.911 12.6307 92.5739 12.3608C93.2415 12.0862 94.0109 11.9489 94.8821 11.9489C96.1605 11.9489 97.1667 12.2211 97.9006 12.7656C98.6392 13.3101 99.0961 14.0464 99.2713 14.9744ZM103.607 23H100.795L105.915 8.45455H109.168L114.296 23H111.484L107.599 11.4375H107.485L103.607 23ZM103.7 17.2969H111.37V19.4134H103.7V17.2969ZM116.098 27.0909V12.0909H118.627V13.8949H118.776C118.908 13.6297 119.096 13.348 119.337 13.0497C119.578 12.7467 119.905 12.4886 120.317 12.2756C120.729 12.0578 121.255 11.9489 121.894 11.9489C122.737 11.9489 123.497 12.1643 124.174 12.5952C124.855 13.0213 125.395 13.6534 125.793 14.4915C126.195 15.3248 126.397 16.3475 126.397 17.5597C126.397 18.7576 126.2 19.7756 125.807 20.6136C125.414 21.4517 124.879 22.0909 124.202 22.5312C123.525 22.9716 122.758 23.1918 121.901 23.1918C121.276 23.1918 120.757 23.0876 120.346 22.8793C119.934 22.6709 119.602 22.42 119.351 22.1264C119.105 21.8281 118.913 21.5464 118.776 21.2812H118.669V27.0909H116.098ZM118.62 17.5455C118.62 18.2509 118.719 18.8688 118.918 19.3991C119.122 19.9295 119.413 20.3437 119.792 20.642C120.175 20.9356 120.639 21.0824 121.184 21.0824C121.752 21.0824 122.228 20.9309 122.611 20.6278C122.995 20.3201 123.283 19.901 123.478 19.3707C123.676 18.8357 123.776 18.2273 123.776 17.5455C123.776 16.8684 123.679 16.267 123.485 15.7415C123.291 15.2159 123.002 14.804 122.618 14.5057C122.235 14.2074 121.757 14.0582 121.184 14.0582C120.634 14.0582 120.168 14.2027 119.784 14.4915C119.401 14.7803 119.11 15.1851 118.911 15.706C118.717 16.2268 118.62 16.84 118.62 17.5455ZM128.598 27.0909V12.0909H131.127V13.8949H131.276C131.408 13.6297 131.596 13.348 131.837 13.0497C132.078 12.7467 132.405 12.4886 132.817 12.2756C133.229 12.0578 133.755 11.9489 134.394 11.9489C135.237 11.9489 135.997 12.1643 136.674 12.5952C137.355 13.0213 137.895 13.6534 138.293 14.4915C138.695 15.3248 138.897 16.3475 138.897 17.5597C138.897 18.7576 138.7 19.7756 138.307 20.6136C137.914 21.4517 137.379 22.0909 136.702 22.5312C136.025 22.9716 135.258 23.1918 134.401 23.1918C133.776 23.1918 133.257 23.0876 132.846 22.8793C132.434 22.6709 132.102 22.42 131.851 22.1264C131.605 21.8281 131.413 21.5464 131.276 21.2812H131.169V27.0909H128.598ZM131.12 17.5455C131.12 18.2509 131.219 18.8688 131.418 19.3991C131.622 19.9295 131.913 20.3437 132.292 20.642C132.675 20.9356 133.139 21.0824 133.684 21.0824C134.252 21.0824 134.728 20.9309 135.111 20.6278C135.495 20.3201 135.783 19.901 135.978 19.3707C136.176 18.8357 136.276 18.2273 136.276 17.5455C136.276 16.8684 136.179 16.267 135.985 15.7415C135.791 15.2159 135.502 14.804 135.118 14.5057C134.735 14.2074 134.257 14.0582 133.684 14.0582C133.134 14.0582 132.668 14.2027 132.284 14.4915C131.901 14.7803 131.61 15.1851 131.411 15.706C131.217 16.2268 131.12 16.84 131.12 17.5455Z" fill="white"/>
</svg>
