<svg width="109" height="22" viewBox="0 0 109 22" fill="none" xmlns="http://www.w3.org/2000/svg">
<path fill-rule="evenodd" clip-rule="evenodd" d="M15.0818 12.9851C14.833 12.8612 13.6097 12.2622 13.3816 12.1795C13.1536 12.0968 12.9877 12.0556 12.8218 12.3034C12.6559 12.5512 12.1791 13.1091 12.0339 13.2744C11.8888 13.4396 11.7436 13.4604 11.4948 13.3363C11.246 13.2124 10.4443 12.951 9.4939 12.1072C8.75422 11.4506 8.25483 10.6397 8.10972 10.3918C7.96454 10.1439 8.09418 10.0099 8.21877 9.88645C8.33075 9.77546 8.46766 9.59719 8.59203 9.45256C8.71644 9.30801 8.75791 9.20465 8.84085 9.0395C8.92378 8.87416 8.88231 8.72961 8.82007 8.60569C8.75791 8.48173 8.26027 7.26281 8.05292 6.76695C7.85095 6.28413 7.64582 6.34953 7.49309 6.34187C7.34812 6.3347 7.18207 6.33317 7.01622 6.33317C6.85035 6.33317 6.58076 6.39515 6.35264 6.64299C6.12463 6.8909 5.48182 7.49005 5.48182 8.70883C5.48182 9.92779 6.37337 11.1052 6.49782 11.2705C6.62226 11.4358 8.25232 13.937 10.7484 15.0096C11.342 15.2648 11.8055 15.4171 12.1669 15.5313C12.7629 15.7198 13.3053 15.6931 13.7341 15.6294C14.2121 15.5583 15.2062 15.0304 15.4136 14.452C15.6209 13.8734 15.6209 13.3776 15.5587 13.2744C15.4965 13.1711 15.3306 13.1091 15.0818 12.9851ZM10.5418 19.1544H10.5385C9.05328 19.1538 7.59658 18.7567 6.32578 18.0062L6.02353 17.8277L2.89094 18.6455L3.72706 15.6058L3.53032 15.2942C2.70179 13.9827 2.26417 12.4669 2.26482 10.9105C2.26664 6.36881 5.97967 2.67383 10.5451 2.67383C12.7559 2.67462 14.834 3.53254 16.3967 5.08958C17.9594 6.64652 18.8195 8.7161 18.8186 10.9171C18.8168 15.4591 15.1038 19.1544 10.5418 19.1544ZM17.586 3.90644C15.7059 2.03317 13.2057 1.00107 10.5417 1C5.05291 1 0.585661 5.44559 0.58344 10.9098C0.582724 12.6566 1.04125 14.3614 1.91268 15.8645L0.5 21L5.77894 19.6219C7.23349 20.4114 8.87111 20.8276 10.5378 20.8281H10.5419C16.0301 20.8281 20.4977 16.3821 20.5 10.9178C20.501 8.26967 19.4661 5.77968 17.586 3.90644Z" fill="#BE48B4"/>
<path d="M30.0966 17L26.8125 5.36364H29.0795L31.1761 13.9148H31.2841L33.5227 5.36364H35.5852L37.8295 13.9205H37.9318L40.0284 5.36364H42.2955L39.0114 17H36.9318L34.6023 8.83523H34.5114L32.1761 17H30.0966ZM45.723 11.8864V17H43.6662V5.36364H45.6776V9.75568H45.7798C45.9844 9.26326 46.3007 8.875 46.7287 8.59091C47.1605 8.30303 47.7098 8.15909 48.3764 8.15909C48.9825 8.15909 49.5109 8.28598 49.9616 8.53977C50.4124 8.79356 50.7609 9.16477 51.0071 9.65341C51.2571 10.142 51.3821 10.7386 51.3821 11.4432V17H49.3253V11.7614C49.3253 11.1742 49.1738 10.7178 48.8707 10.392C48.5715 10.0625 48.151 9.89773 47.6094 9.89773C47.2457 9.89773 46.92 9.97727 46.6321 10.1364C46.348 10.2917 46.1245 10.517 45.9616 10.8125C45.8026 11.108 45.723 11.4659 45.723 11.8864ZM55.9901 17.1761C55.437 17.1761 54.9389 17.0777 54.4957 16.8807C54.0563 16.6799 53.7079 16.3845 53.4503 15.9943C53.1965 15.6042 53.0696 15.1231 53.0696 14.5511C53.0696 14.0587 53.1605 13.6515 53.3423 13.3295C53.5241 13.0076 53.7723 12.75 54.0866 12.5568C54.401 12.3636 54.7552 12.2178 55.1491 12.1193C55.5469 12.017 55.9579 11.9432 56.3821 11.8977C56.8935 11.8447 57.3082 11.7973 57.6264 11.7557C57.9446 11.7102 58.1757 11.642 58.3196 11.5511C58.4673 11.4564 58.5412 11.3106 58.5412 11.1136V11.0795C58.5412 10.6515 58.4143 10.3201 58.1605 10.0852C57.9067 9.85038 57.5412 9.73295 57.0639 9.73295C56.5601 9.73295 56.1605 9.8428 55.8651 10.0625C55.5734 10.2822 55.3764 10.5417 55.2741 10.8409L53.3537 10.5682C53.5052 10.0379 53.7552 9.5947 54.1037 9.23864C54.4522 8.87879 54.8783 8.60985 55.3821 8.43182C55.8859 8.25 56.4427 8.15909 57.0526 8.15909C57.473 8.15909 57.8916 8.20833 58.3082 8.30682C58.7249 8.4053 59.1056 8.56818 59.4503 8.79545C59.795 9.01894 60.0715 9.32386 60.2798 9.71023C60.492 10.0966 60.598 10.5795 60.598 11.1591V17H58.6207V15.8011H58.5526C58.4276 16.0436 58.2514 16.2708 58.0241 16.483C57.8007 16.6913 57.5185 16.8598 57.1776 16.9886C56.8404 17.1136 56.4446 17.1761 55.9901 17.1761ZM56.5241 15.6648C56.937 15.6648 57.295 15.5833 57.598 15.4205C57.901 15.2538 58.134 15.0341 58.2969 14.7614C58.4635 14.4886 58.5469 14.1913 58.5469 13.8693V12.8409C58.4825 12.8939 58.3726 12.9432 58.2173 12.9886C58.0658 13.0341 57.8954 13.0739 57.706 13.108C57.5166 13.142 57.3291 13.1723 57.1435 13.1989C56.9579 13.2254 56.7969 13.2481 56.6605 13.267C56.3537 13.3087 56.0791 13.3769 55.8366 13.4716C55.5942 13.5663 55.4029 13.6989 55.2628 13.8693C55.1226 14.036 55.0526 14.2519 55.0526 14.517C55.0526 14.8958 55.1908 15.1818 55.4673 15.375C55.7438 15.5682 56.0961 15.6648 56.5241 15.6648ZM67.0241 8.27273V9.86364H62.0071V8.27273H67.0241ZM63.2457 6.18182H65.3026V14.375C65.3026 14.6515 65.3442 14.8636 65.4276 15.0114C65.5147 15.1553 65.6283 15.2538 65.7685 15.3068C65.9086 15.3598 66.0639 15.3864 66.2344 15.3864C66.3632 15.3864 66.4806 15.3769 66.5866 15.358C66.6965 15.339 66.7798 15.322 66.8366 15.3068L67.1832 16.9148C67.0734 16.9527 66.9162 16.9943 66.7116 17.0398C66.5109 17.0852 66.2647 17.1117 65.973 17.1193C65.4579 17.1345 64.9938 17.0568 64.581 16.8864C64.1681 16.7121 63.8404 16.4432 63.598 16.0795C63.3594 15.7159 63.242 15.2614 63.2457 14.7159V6.18182ZM75.517 10.5795L73.642 10.7841C73.589 10.5947 73.4962 10.4167 73.3636 10.25C73.2348 10.0833 73.0606 9.94886 72.8409 9.84659C72.6212 9.74432 72.3523 9.69318 72.0341 9.69318C71.6061 9.69318 71.2462 9.78598 70.9545 9.97159C70.6667 10.1572 70.5246 10.3977 70.5284 10.6932C70.5246 10.947 70.6174 11.1534 70.8068 11.3125C71 11.4716 71.3182 11.6023 71.7614 11.7045L73.25 12.0227C74.0758 12.2008 74.6894 12.483 75.0909 12.8693C75.4962 13.2557 75.7008 13.7614 75.7045 14.3864C75.7008 14.9356 75.5398 15.4205 75.2216 15.8409C74.9072 16.2576 74.4697 16.5833 73.9091 16.8182C73.3485 17.053 72.7045 17.1705 71.9773 17.1705C70.9091 17.1705 70.0492 16.947 69.3977 16.5C68.7462 16.0492 68.358 15.4223 68.233 14.6193L70.2386 14.4261C70.3295 14.8201 70.5227 15.1174 70.8182 15.3182C71.1136 15.5189 71.4981 15.6193 71.9716 15.6193C72.4602 15.6193 72.8523 15.5189 73.1477 15.3182C73.447 15.1174 73.5966 14.8693 73.5966 14.5739C73.5966 14.3239 73.5 14.1174 73.3068 13.9545C73.1174 13.7917 72.822 13.6667 72.4205 13.5795L70.9318 13.267C70.0947 13.0928 69.4754 12.7992 69.0739 12.3864C68.6723 11.9697 68.4735 11.4432 68.4773 10.8068C68.4735 10.2689 68.6193 9.80303 68.9148 9.40909C69.214 9.01136 69.6288 8.70455 70.1591 8.48864C70.6932 8.26894 71.3087 8.15909 72.0057 8.15909C73.0284 8.15909 73.8333 8.37689 74.4205 8.8125C75.0114 9.24811 75.3769 9.83712 75.517 10.5795ZM78.9858 17H76.7358L80.8324 5.36364H83.4347L87.5369 17H85.2869L82.179 7.75H82.0881L78.9858 17ZM79.0597 12.4375H85.196V14.1307H79.0597V12.4375ZM88.9787 20.2727V8.27273H91.0014V9.71591H91.1207C91.2268 9.50379 91.3764 9.27841 91.5696 9.03977C91.7628 8.79735 92.0241 8.59091 92.3537 8.42045C92.6832 8.24621 93.1037 8.15909 93.6151 8.15909C94.2893 8.15909 94.8973 8.33144 95.4389 8.67614C95.9844 9.01705 96.4162 9.52273 96.7344 10.1932C97.0563 10.8598 97.2173 11.678 97.2173 12.6477C97.2173 13.6061 97.0601 14.4205 96.7457 15.0909C96.4313 15.7614 96.0033 16.2727 95.4616 16.625C94.92 16.9773 94.3063 17.1534 93.6207 17.1534C93.1207 17.1534 92.706 17.0701 92.3764 16.9034C92.0469 16.7367 91.7817 16.536 91.581 16.3011C91.384 16.0625 91.2306 15.8371 91.1207 15.625H91.0355V20.2727H88.9787ZM90.9957 12.6364C90.9957 13.2008 91.0753 13.6951 91.2344 14.1193C91.3973 14.5436 91.6302 14.875 91.9332 15.1136C92.2401 15.3485 92.6113 15.4659 93.0469 15.4659C93.5014 15.4659 93.8821 15.3447 94.1889 15.1023C94.4957 14.8561 94.7268 14.5208 94.8821 14.0966C95.0412 13.6686 95.1207 13.1818 95.1207 12.6364C95.1207 12.0947 95.0431 11.6136 94.8878 11.1932C94.7325 10.7727 94.5014 10.4432 94.1946 10.2045C93.8878 9.96591 93.5052 9.84659 93.0469 9.84659C92.6075 9.84659 92.2344 9.96212 91.9276 10.1932C91.6207 10.4242 91.3878 10.7481 91.2287 11.1648C91.0734 11.5814 90.9957 12.072 90.9957 12.6364ZM98.9787 20.2727V8.27273H101.001V9.71591H101.121C101.227 9.50379 101.376 9.27841 101.57 9.03977C101.763 8.79735 102.024 8.59091 102.354 8.42045C102.683 8.24621 103.104 8.15909 103.615 8.15909C104.289 8.15909 104.897 8.33144 105.439 8.67614C105.984 9.01705 106.416 9.52273 106.734 10.1932C107.056 10.8598 107.217 11.678 107.217 12.6477C107.217 13.6061 107.06 14.4205 106.746 15.0909C106.431 15.7614 106.003 16.2727 105.462 16.625C104.92 16.9773 104.306 17.1534 103.621 17.1534C103.121 17.1534 102.706 17.0701 102.376 16.9034C102.047 16.7367 101.782 16.536 101.581 16.3011C101.384 16.0625 101.231 15.8371 101.121 15.625H101.036V20.2727H98.9787ZM100.996 12.6364C100.996 13.2008 101.075 13.6951 101.234 14.1193C101.397 14.5436 101.63 14.875 101.933 15.1136C102.24 15.3485 102.611 15.4659 103.047 15.4659C103.501 15.4659 103.882 15.3447 104.189 15.1023C104.496 14.8561 104.727 14.5208 104.882 14.0966C105.041 13.6686 105.121 13.1818 105.121 12.6364C105.121 12.0947 105.043 11.6136 104.888 11.1932C104.732 10.7727 104.501 10.4432 104.195 10.2045C103.888 9.96591 103.505 9.84659 103.047 9.84659C102.607 9.84659 102.234 9.96212 101.928 10.1932C101.621 10.4242 101.388 10.7481 101.229 11.1648C101.073 11.5814 100.996 12.072 100.996 12.6364Z" fill="#BE48B4"/>
</svg>
