<svg width="80" height="80" viewBox="0 0 80 80" fill="none" xmlns="http://www.w3.org/2000/svg">
<rect width="80" height="80" rx="40" fill="#BE48B4"/>
<g clip-path="url(#clip0_4269_11241)">
<path fill-rule="evenodd" clip-rule="evenodd" d="M49.1636 43.9703C48.666 43.7224 46.2194 42.5244 45.7632 42.3589C45.3071 42.1937 44.9754 42.1111 44.6436 42.6068C44.3119 43.1025 43.3581 44.2182 43.0678 44.5488C42.7776 44.8792 42.4873 44.9207 41.9896 44.6727C41.492 44.4248 39.8885 43.9019 37.9878 42.2145C36.5084 40.9012 35.5097 39.2795 35.2194 38.7836C34.9291 38.2878 35.1884 38.0198 35.4375 37.7729C35.6615 37.5509 35.9353 37.1944 36.1841 36.9051C36.4329 36.616 36.5158 36.4093 36.6817 36.079C36.8476 35.7483 36.7646 35.4592 36.6401 35.2114C36.5158 34.9635 35.5205 32.5256 35.1058 31.5339C34.7019 30.5683 34.2916 30.6991 33.9862 30.6837C33.6962 30.6694 33.3641 30.6663 33.0324 30.6663C32.7007 30.6663 32.1615 30.7903 31.7053 31.286C31.2493 31.7818 29.9636 32.9801 29.9636 35.4177C29.9636 37.8556 31.7467 40.2105 31.9956 40.541C32.2445 40.8716 35.5046 45.874 40.4969 48.0193C41.6841 48.5296 42.611 48.8343 43.3338 49.0625C44.5259 49.4395 45.6107 49.3863 46.4682 49.2587C47.4243 49.1167 49.4125 48.0607 49.8272 46.9039C50.2419 45.7468 50.2419 44.7553 50.1174 44.5488C49.993 44.3421 49.6613 44.2182 49.1636 43.9703ZM40.0836 56.3088H40.077C37.1066 56.3077 34.1932 55.5134 31.6516 54.0125L31.0471 53.6554L24.7819 55.291L26.4541 49.2117L26.0606 48.5884C24.4036 45.9654 23.5283 42.9339 23.5296 39.8209C23.5333 30.7376 30.9593 23.3477 40.0902 23.3477C44.5118 23.3492 48.6679 25.0651 51.7935 28.1792C54.9188 31.293 56.639 35.4322 56.6373 39.8342C56.6335 48.9182 49.2076 56.3088 40.0836 56.3088ZM54.1721 25.8129C50.4119 22.0663 45.4113 20.0021 40.0835 20C29.1058 20 20.1713 28.8912 20.1669 39.8196C20.1654 43.3131 21.0825 46.7229 22.8254 49.7289L20 60L30.5579 57.2437C33.467 58.8228 36.7422 59.6551 40.0755 59.6562H40.0838C51.0602 59.6562 59.9955 50.7642 60 39.8355C60.002 34.5393 57.9323 29.5594 54.1721 25.8129Z" fill="white"/>
</g>
<defs>
<clipPath id="clip0_4269_11241">
<rect width="40" height="40" fill="white" transform="translate(20 20)"/>
</clipPath>
</defs>
</svg>
